<mxfile host="65bd71144e">
    <diagram id="hzKCH8jb2pyxhwCRm9cl" name="Page-1">
        <mxGraphModel dx="1456" dy="720" grid="1" gridSize="10" guides="1" tooltips="1" connect="1" arrows="1" fold="1" page="1" pageScale="1" pageWidth="850" pageHeight="1100" math="0" shadow="0">
            <root>
                <mxCell id="0"/>
                <mxCell id="1" parent="0"/>
                <mxCell id="3" value="" style="shape=image;imageAspect=0;aspect=fixed;verticalLabelPosition=bottom;verticalAlign=top;image=data:image/png,iVBORw0KGgoAAAANSUhEUgAABDMAAAQMCAYAAACLG9LDAAAABHNCSVQICAgIfAhkiAAAABl0RVh0U29mdHdhcmUAZ25vbWUtc2NyZWVuc2hvdO8Dvz4AAAAmdEVYdENyZWF0aW9uIFRpbWUAdG9yIDE0IGRlYyAyMDIzIDA5OjExOjUzEaZugQAAIABJREFUeJzs3XtcVNX+//E3CKLAAHkDBG+omaGZaSpoapZWZlqkZnUkxbT0q3lBj2amec/MtMtJy6zMTM2kzOxkx9LUmE7p0TLU8pZXvANyU0Dm94c/JpHbDDDMjPN6Ph48Hjp77bU/e6+99ho+rL23W7Vq1UwCAAAAAABwEm4mk4lkBgAAAAAAcBru9g4AAAAAAADAGiQzAAAAAACAUyGZAQAAAAAAnArJDAAAAAAA4FQ8yrOyAwcO6Ouv/6309EyZTCa5ubnJx6eqund/QI0aNSrPTQEAAAAAABdVLm8zSUxM1KJF7yooqK46d+4qX1+DeVlaWqo2b/6PTp06qmefHaLg4OCybg4AAAAAALiwMiczdu3apTVr1mrgwGHy9KxcZLns7Cx98MHbevTRXrr99tvLskkAAAAAAODCyvTMjMTERK1Zs1ZDhowqNpEhSZ6elTVkyCitWbNWiYmJZdksAAAAAABwYWVKZixc+I4GDhxm1ToDBw7TwoXvlGWzAAAAAADAhZU6mbF//36FhDQocUbG9Tw9KyskpIH2799f2k0DAAAAAAAXVupkxoYN36pjx3tKtW7Hjvdow4ZvS7tpAAAAAADgwkqdzEhNTc/31hJr+PoalJqaXtpNAwAAAAAAF1bqZEZZ3+haDm+EBQAAAAAALqjUyQw3N7cybbis6wMAAAAAANdU6mSGweCjtLTUUq2blpYqg8GntJsGAAAAAAAurNTJjPvu66YtW74r1bpbtnyn++7rVtpNAwAAAAAAF1bqZEbjxo114sRhZWdnWbVednaWTpw4rMaNG5d20wAAAAAAwIWVOpkhSUOHPqMPPnjbqnU++OBtDR36TFk2CwAAAAAAXFiZkhnBwcF69NFeevfdBSXO0MjOztK77y7Qo4/2UnBwcFk2CwAAAAAAXJibqRzekZqYmKhFi95VUFBdde7cVb6+BvOytLRUbd78H506dVTPPjuERAYAAAAAACiTcklm5Dlw4IC+/vrfSk/P1J49Cbr11nD5+FRV9+4PqFGjRuW1GQAAAAAA4MLKNZlxrXnz5ik2NtYWVQMAAAAAABdWpmdmAAAAAAAAVDSSGQAAAAAAwKmQzAAAAAAAAE6FZAYAAAAAAHAqJDMAAAAAAIBTIZkBAAAAAACcioclhT799FMdO3bMqorj4+OtDqZOnTrq27ev1esBAAAAAADXYVEyo7QJhtjY2FKtBwAAAAAAUBRuMwEAAAAAAE6FZAYAAAAAAHAqJDMAAAAAAIBTIZkBAAAAAACcCskMAAAAAADgVEhmAAAAAAAAp0IyAwAAAAAAOBWSGQAAAAAAwKmQzAAAAAAAAE6FZAYAAAAAAHAqJDMAAAAAAIBTIZkBAAAAAACcCskMAAAAAADgVEhmAAAAAAAAp0IyAwAAAAAAOBWSGQAAAAAAwKmQzAAAAAAAAE7FJsmMzMxMbd++XZmZmbaoHgAAAAAAuLByT2bk5uZq9uzZevHFFzV79mzl5uaW9yYAAAAAAIALczOZTKbyrHDevHnq2bOnGjdurP379+vLL79UbGxseW4CcGpJScl6++13lZ2do9zccu1+KAM3N8nd3U13332XOna8y97hlMp//rNZW7duk+Rm71CAYlWq5K6qVSvr2WcHy8/Pz97hlBtXub7fCNdL4EYeM0tzjb2RjwecX1HndLkmMz766CM1atRIkZGR5s/i4+N14MABRUdHl9dmAKc2a9ZcPfxwPxkMN84X+BvJ1q0b5eFxRX379rV3KFZZvTpOGRk56tLlPnuHAlgkNfWi/v3vzxQbO9reoZQbV7u+O+v1EnCFMdOaa6wrHA84v8LO6XK7zWTDhg3y9fXNl8iQpMjISPn6+mrDhg3ltSnAqV2+nOUyX3SdUceO9+rQoUP2DsNq+/fv50sInIrB4KfLl7PsHUa5crXru7NeLwFXGDOtuca6wvGA8yvsnC6XZMavv/6qQ4cOKSoqqtDlUVFROnTokH799dfy2Bzg1Mr3xi6UN5NJ8vT0tHcYAJyQq13fuV4CAOypzMmM48ePa926dRo6dGix5YYOHap169bp+PHjZd0kAAAAAABwYWVKZly8eFELFy7U+PHjLSo/fvx4LVy4UBcvXizLZgEAAAAAgAsrdTIjOztbc+bM0fjx4y2eYujp6anx48drzpw5ys7OLu2mAQAAAACACyt1MmPOnDkaOnSo1a9U8/Pz09ChQzVnzpzSbhoAAAAAALiwUiUzFi5cqIceekihoaGl2mhoaKgeeughLVy4sFTrAwAAAAAA12V1MiMuLk5hYWFq0aJFmTbcokULhYWFKS4urkz1ACi7119/RSNHDrFqHaNxm+rWDdCFC+fLVKaidO/eSV9/vdbeYTiF69vNkdrRVVVkG9DeAABnw9jlmqxKZsTHxystLU333Vc+7yG+7777lJaWpvj4+HKpD7hRpKZe1GuvzdZ997XXLbfUVsOGtdShw+2KjR2mXbt2SCr6op33+cWLKcWWy5OcnKR33nlTzz03VpJUt25AiT+Wat26jXbs+EM33VTN4nWuj7+8DB8eq7lzZ8rkau9OvE5i4klNmDBK7dqFKyysplq2bKRnn31Kv/76vyLXKU07WsLati5N7DeK8m6D4o69rdob0pEjhzV06ADdfntDNWhQXS1ahKlPn+7avHmjvUMDcJ2862RhPwcP/inJsj59fT3Nm9fXiBFP6/z5c+YyJ04c02OP9VDLlo3M9QwfPkiJiSfNZWbNmqx77mmnsLCaatEiTGPGDFVyclKFHQ9Hv35dP3aV5/fJvLpuvTVUmZmZ+ZYdOPCHuW3L+7urKyhrO1mczNi/f7+MRqOio6NLtaGiREdHy2g0av/+/eVaL+CsTp8+pe7dO2nbth80evTz+vbbeG3Z8j8tWLBIderU04IFr5Tr9lauXKYmTZqqYcObJUk7dvxh/nnnnWWSpM2bt+f73FKenpVVs2ag3NzcyjVma+Xk5Khr1/t17twZbd26ya6x2NORI4fVvXsnnT17Wq+/vljbtu3SRx99pgYNGmr+/JeLXM8R2rG0sd8oKrINHKG9b0SXL19S374PKiMjXR98sEpG4+/65JO16t69p1JSkstcf05OTjlEWfF1A47uu+9+yvcdaMeOP1S/fkOr+3RePUuXrtbevb9rzJih5mWVKnkoKqqfPv74cxmNv+uDD1bp5MkTio5+1Fxmz57fFRs7UVu3/k/vv79Sv/66U889N7hCjoGtr19llZOTUyFjl5+fv9av/yLfZytXLlNISOkevYCysyiZcfbsWS1btkyjR4+2SRCjR4/WsmXLdPbsWZvUDziTF14Yo+Dg2lq9er3uv7+H6tatr5CQULVu3U6jRo3XBx+sLNftffnlGnXr1t38/5o1A80/AQE3SZJq1KiZ7/PCZGVd1rPPRuuBBzrq/Pmrfbmo2xW2bPle3bt3UsOGtdSjx906ePDvZOZjj/WQJDVrVq/QmSAffLBInTu3VlhYTbVp01Tz5s3SlStXzMvztrFp03/00ENdFBZWUz/8sFGenpXVufO9WrfOdW9te+GFWLVo0VJLlqxQ27aRql07RM2b367x4yfrjTcWF7leYbN7LG2HsrR1aWLPycnR3Lkz1LbtrQoLq6nOnVtr5cplhe7PDz98pwcf7KxGjQLVq9e9OnLksHbu3K4ePe5Wo0aB6tHjbh0+fLBM6xV27IqaPVXcsbq+ntzcXC1c+LruuqulwsJqqnXrW7Rgwd8P1v7ssxW6//4Oatiwlpo1q6eRI4fk+6tHccf++m1Zc0yL2wdXl5CwW4mJJzVz5jy1bNlaQUHBCg9vroEDn1WvXr3zlS3NdW7q1OfVsmXjfOUkacSIpxUT069Mdf/wg2P85RWwh+rV838HqlkzUJUqVbKqT19bzx133KnRoydoy5bvlZNz9e2OQUHBeuyxfyg8vLmCgoJ1xx13asSIWP3xx16lp6dLkj7+OE7du/dUSEgdtWrVRuPGTdIPP3ynrKzLNj8G5Xn9Km78smbMvP4adf26RY1zCxbM0b33tiuwj488cp+mTBlf7HHo0+dJrVr19/iXk5OtNWtWqU+fJ/OVK2kMtmTMLKmO7OwsTZ36vG6/vaGaNAnW4MFPau3azwrMcrD0mm/tdyJr6i6v74KFsSiZsX79ej3//PNydy/1y0+KD8LdXc8//7zWr19vk/oBZ5GSkqyNG7/R0KGjVKlSpULLlGfGOS0tTQkJv6lFizvKXE90dB+dP39Oq1evV/XqNYstP3/+HM2Y8aq+/XabPDw8NHHi34nSwmaD/L3ey/rooyWaMmW2fvzxV7322kKtWbNS8+bNKrCNV16ZphdemK6tW/+nli3vlCTdfnsrGY3byrSvziop6YK2bt2kmJhnC13u5+dvcV3WtENp27q0sb/00gR98smHmjnzNW3dulPPPPOcJk0aq08/XV7ofkyb9oo2bNgmd/dKGjZsoF5++SVNnz5XGzZsk6dnZU2cOKbc1itJccfqenPmTNXbb8/XuHGTtG3bLr3//gqFhtY1L3d3d9PkybO0detOvffeJ9qzZ7cmT/6nebmlx16y9phavg+uJjAwSG5ublq3Lq7YmQ6lvc4NGjRUFy+m5Jt9lp6erm+/Xa+oqMfKVHfeNRTA3yzt04WpXNlLubm5ys3NLXR5cnKSPvtshTp06CwfH59Cy6SkJMvb21seHp5Wx26t8rx+lTR+Waqka1RR49xjj/XXwYP7zbdtS9LBg/u1Y8d/1a9f8XcgPPJIX+3a9T8dOXJYkrRx4wb5+PioXbsO+cqVNAbnKW7MLKmOKVMmaN26z/Xaawv1/fe/6N57H9DUqROvq9+a72vWfbep6O+CRbEoOzFgwABVrVrVqoqtVbVqVQ0YMMCm2wAc3eHDB5Wbm6tbbgnP9/ngwU/qlltqm39SUy+Wy/aOHDkkk8mk2rVLPz3uwoVzeuyxHvL29tbHH8fJ19dQ4jrjxk3SHXfcqYYNb9bTTw/TL7/8ZB4cC5sNIkmZmZlauHCBXn31X7r77q4KDq6tDh06a/z4yfr44/cLbCM29gW1a9deISF1VK1adUlS7dqhOnbsiPkvIa7kr7+utnXjxreUqR5r26E0bV3a2FNTL+qTT5bqxRdn6N5771dISKgefzxagwY9q4ULFxQo/89/vqhWrdqoYcPGevrpodq9e5diY19Qy5atzZ/9978/FvhLd2nXK0lxx+paaWlpWrJkkSZPnqWePR9V7dohuu22lurd+3FzmaiofoqM7KjatUPUrl17jR07Sd98s878zBhLj721x9TSfXBFISF19NJLs7VgwRw1b15Pjz56v2bMmKTffttpLlOW61z9+mHq0qWrvvhitXn5hg1fqVIlD3Xt+kC5XEMBVxQZ2Tzfd7A2bZpKsqxPF+bChfNavPgttWzZWpUre+VbFh3dW02aBOu22xooNzdXS5d+WmgdqakX9cYbc9W//yCb/bH5WuV1/bJk/LJUSdeoosa54ODa6tTpXq1a9bG57Keffqzbbmuppk3DC9RzfZ1duz5gXnflymXq2/fJAn9oLGkMzlPcmFlcHWlpqVq5cpkmT56pLl26KSQkVI899g/17fv3DBFrr/nWfLexx3fBonhYVRqAXcycOU8ZGRnauXO7Ro4cUm4PscybulhU1t8STz75iJo1a6F33lkmDw/LLilNmvz9S2n16jWVk5OjzMwMGQx+Ra7z5597denSJT355MP5Pr9yJVeXL19Senp6vv1o3vz2AnUYDAaZTCalp6fL39+6aWy4ytp2KE1bl9aBA38qJydbbdvm/wtJ27bttXDh68rKupzvi2OTJk3N/65WrYYk6eabb8n3WU5OjjIy0vPFa8161rD0WB048Ieysi4rMrJjkXVt3/6T5s2brX37EnTpUqZycq6Y28fX19fimKw/phXX3s5o4MBn1afPP/Tzzz/q999/008//ajFi/+lyZNnadCgoWW+zj3ySF/Fxg5TZmamqlatqi++WK3u3XvKy6uKfv31f2W+hgKuaNWqr/J9Z7h25mxJffpakZHNJV39JbN589sLvb3zlVfeVEZGuv74Y6+mTXtes2ZN0ZQps/OVycq6rCFD+qt27RCNHftCee5qscrj+mXJ+GWpslyjnnjiKY0e/aymTJktT09PrVmzSqNGFZw5UZh+/fpr3Ljh+sc/YrR16ybNnj1ff/11KF8ZS8fg4sbM4urYv/8P5eRkq3Xr/LfLtGkTobffni+pNN/XLP9uc+jQAYf5LkgyA3Ag9euHyd3dXXv37lZwcG3z57VqBUlSvqdaV658dVphVlZWvjouX770/5fnz/YXJu9Ck5aWZnUmNM8999yvr776XH/8sVfh4c0tWsfNreBfEUpK0ORNxVy2LE41a9YqsPz62WOengWnXaampsrNza1MyRtnVb9+mNzc3LR//75855a1rG2H0rT19cor9usVFlthf+G6Pl5r1ivstjCTqfBpxeVxrCTp4sUURUf31v33P6SxY19QtWrV9b///aLRo59Vbq51s0WsVV77cCPz9fVVly73qUuX+/Tcc+P0+uuv6NVXZ2jgwGfKfJ2799775e5eSd9+u14dOnTStm2b9fHHV58TVB7XUMAV1alTr9jZScX16WvHhlWrvlJAwE3y8/Mv8m1RQUHBkqSwsEbKycnWyJFDNGHCFHl5VZF09RlG//d/Mbp4MUWrVq2z6LteeSrP61dhrBkzy3KN6tKlm6pW9dbXX6+Vn5+/UlNT9PDDfSxat0OHznJ3d9fo0c+offuOCg6unS+ZYc0YXNSYaWkd1x+va/9fHt/XivpuY4/vgkUhmQE4kICAm3TPPffprbfmq2PHLsXeB1mvXgO5ublp797fzYOfJO3Zs1uBgUGqUqVKidurV+/qL4knThxTgwYNSxXz2LEvKCDgJj3+eE+tWPGlxQmNouT9xeP6+0hvvrmpvLyq6MSJY7rzzoIPbrLEiRPHVKdOvQq5v9TR3HRTNXXo0FlLlixUx45dCiy/eDHFoudmlEc75Cmqra9naeyNGzeRh4en/vvfbYqK+vuBh//9749q2PDmCv/SJ12dDSRJSUnnzV+G//hjT5nqbNSoiSpX9lJ8/Bb16fNEgeX79+9TWlqaxo6dpNq1QyRJ3377db4ylh57RzymN5qmTZspIyNDOTnZZe5flSt7qXv3nvr889W6cOG8atasZb6Xuzz7LoCiXdunr71GlpQUKcy1SfHc3FyNHv2sDh8+qNWrv7botl5bs/b6VdL4VZ5jZnHjnIeHh/r0eUKffvqxDAY/de/ey+Lj6e7urj59ntSCBXO0aNHSAsstGYNLUlIdjRrdLA8PT23f/pMeeijK/PnPPxvN/7blNd8e3wWLUiCZsXnzZt199906e/asatSoUeDzpKQkBQQwPRuwlZkzX1NU1H169NEH9MwzIxQefpsqV/bSyZPH9emnH8vNzU3u7u6qUaOWunXrrunTJ8nb20d169bXb7/t1KJFbxT5oMTr+fr66tZbm2vXrh3q0KFzqWP+5z9flMlk0hNP9NKKFV/q1lublbqukJA6kqT//Off6tKlm9zc3FStWnX5+Pho2LBRmjz5n8rNvaK2bdsrOztbu3fv0sGD+zVqVPFPoJakXbt2qF279qWOzdnNmPGqoqLu06BBj2vIkBGqU6eekpLO65tvvtLu3bv04YeF35t7rfJohzxFtXVpY/f1NejJJwdo+vQX5e8foKZNm2vLlu+1ZMkizZr1msVxlaebb75F1apV1+uvz9U///miDhz4U++//06Z6vT19dWgQc9q+vQXVKVKFbVq1Vbnzp3Rn3/uU+/ejys0tJ4qVaqkDz98R9HRTyshYbc++GBRvjosPfaOeEyd1fbtP+nDDxfrwQcfVtOm4apc2Uv79v2u2bOn6O67u6pyZS9VruxV5v71yCOP6R//eETHjh1Rr169zX9ZK8++C7iS8+fP6sqV/M/+CQi4Sb/++r8S+7Sl/v3vq89CaNbsNnl4eOr333/VrFlT1KPHI+Z6JkwYKaNxm5YuXa2cnGydPXtaklSjRi2bv0q7vK5fJY1f5TlmljTOPf54tBYuXCB3d3etWPGlVXU/99xYDRgwxPy8h2tZMgaXpKQ6DAY/9evXX9OmTZSvr0FNmtyq+Pgt5gdz581CttU1317fBQvjUDMzcnJyLL7nHrhRBQUF65tvturdd9/S/Pkv68iRw8rNNSk4uLbatWuvr77aZM4ez5+/SDNnTtazzz6llJQkBQYGa9CgoRo+PNbi7fXsGaV//3udVesUZvz4yTKZTOYZGqVNaISEhGrcuEmaM2eaxo0brtzcXB09evUd5qNHT1BgYJDeeedNjRv3nDw9PXTzzU31+ONPlVhvdnaWfvjhO7311pJSxXUjaNCgodav/0Gvvz5HI0YM0rlzZ+XvH6B27TpYdd9tWdrhWsW1dWljnzJltgwGPz3//GidO3dOdevW0/Tpc/M9FKsieXpW1htvLNYLL8Sqc+c71bp1W40ePV6jRlmWcCzK+PFT5Ofnr9mzX1Ji4gnVrFlL//hHjKSrT51/+eXXNXfuDH3wwbtq3bqtxo6dpDFj/r5/25pj72jH1FnVrVtffn7+mjt3ho4e/Uu5ubkKDq6tbt26Kzb27yfQl7V/tWvXXjVr1tL+/fsKXO/Kq+8CruSeewr+5fmjjz7Trbc2s6hPW8Ld3V0LFszRoUP7lZ2drdq1Q/Xww300cuTfz3HIeyX2Aw/clW/d338/YtUbyUqjPK9fxY1f5TlmljTO1a1bX+3atVdi4km1bRtpVd0eHp5F/sJtyRhcEkvqmDr1ZVWuXFkjRw7R5cuXFBnZSRMmTFFs7DB5eV1NgNnymm+P74KFcTNdd8OKpTMz3nnnHc2cOVMnT55UYGCgxo4dq9Gj/37NyhtvvKF//etfOnz4sGrVqqWYmBhNmTLFPJUkr76vv/5aU6ZM0a5duxQXF6cePXpYdQAAZzN58kwNHjzc3mGYJSVdUPv2t2nt2o1lftOFI/v66y81d+50ff/9zyX+BePTT99TbGzZkjsVbdasOerfv2y/IAMVbdmyRZo48caZEeBo1/eK4IzXS8BVxkxLr7Gucjyud/fdd6pv3yc1dOgoe4dSLt56a56WL/9QRuNue4diM9ef06WaBvHXX39p6NChmjVrlh5//HGdPXtWiYmJ5uUvvfSSVq5cqQULFqh58+bat2+fBg8erCtXrmjmzJn56po4caIWLFig+vXru+RD+QB7u+mmahoyZITefHNeoU/WvlG89dY8jR37gs2nYgIAAMBxnT9/TuvXf6ETJ4457SzDPXt+1759CWrVqo0qVaqkrVs366235uWbzeMKSpXMOHfunEwmk7p376569eqpXr165mUZGRl65ZVX9N133ykiIkKSFBoaqlmzZmn48OEFkhnTpk1Tp06dyrALAMrKFe6V/vrrH+wdAgAAAOysZctGqlatumbNmq/q1WvaO5xSe//9RZo4cbSysrIUGlpXI0f+U88885y9w6pQpUpm3H777brzzjvVsWNHPfTQQ+rZs6eioqJUqVIlJSQkKDMzU127ds23zpUrV3Tp0iWlpaXle79uq1atyrYHAAAAAABYwJpnMjiqW29tpq++2mTvMOyuQDKjcuXKkqTLly/n+/zSpUuSJC8vL3l4eOjHH3/Uhg0b9M033+iZZ57RJ598os8//9z8WpVvvvlGQUFBBTbo7e1d6PYAAAAAAAAsUSCZ0bBhQ7m5uem3335TSEiI+fNdu3apdu3aqlq1qiTJ09NTPXr0UI8ePdSpUyf17dtXmZmZCg8PV5UqVXT06FF16NCh4vYEAAAAAAC4hALJjMDAQPXq1UuxsbHy8fFRWFiYtm/frrlz52rkyJGSpJ9//lk///yz7r33Xnl4eGjdunUKCQlRlSpV5ObmpgkTJmjEiBG6cuWKOnbsqOzsbO3YsUN//PGHJk+eXOE7CQAAAAAAbhyFPjNj6dKl+uc//6k+ffrowoULCgkJ0ahRozRx4tX3CBsMBsXFxWnixIm6dOmS7rjjDsXFxZnfEjBlyhQFBwfr1Vdf1dNPPy1PT0+Fh4dr8ODBFbdnAFBK172x2ik4YcgAbgDOeL0EOG3z43jAWRWazPDz89OiRYu0aNGiQldq2rSpvv/++2IrHjJkiIYMGVLk8s6dOzMAwiW5uV398scrQh1TUtIZ+fv72zsMqwUE+OvMmdOqVSvQ3qEAFrkRvwO42vXdWa+XgCuMmdZcY13heMD5FXZOu9shDsClderUQZs2/cfeYaAQZ8+e0SefvK+nnnrK3qFYbfDgGC1f/p7OnDlt71AAi2zb9p06dmxv7zDKlStd3535egm4wphpzTXWFY4HnF9h57Sb6Ub80wjg4NasWaMDBw7ZOwxcJyDATzExMfL09LR3KKWSnZ2t995boosXU+0dClCs7Oxs3XxzI/Xt29feoZQ7V7m+O/v1EriRx8zSXGNv5OMB51fUOW2zZEZ8fLwiIyNtUTUAB0Jfx42OcxyOjnMUcHz0U9dCe1cMm91mYjQabVU1AAdCX8eNjnMcjo5zFHB89FPXQntXDJ6ZAQAAAAAAnArJDAAAAAAA4FRIZgAAAAAAAKdis2RGRESEraoG4EDo67jRcY7D0XGOAo6PfupaaO+KwatZAQAAAACAU+E2EwAAAAAA4FRIZgAAAAAAAKdCMgMAAAAAADgVmyUz4uPjbVU1AAdCX8eNjnMcjo5zFHB89FPXQntXDJslM4xGo62qBuBA6Ou40XGOw9FxjgKOj37qWmjvisFtJgAAAAAAwKmQzAAAAAAAAE6FZAYAAAAAAHAqNktmRERE2KpqAA6Evo4bHec4HB3nKOD46KeuhfauGG4mk8lk7yAAAAAAAAAsZffbTL777jvddddd8vPz00033aRevXpp79699g5Lv/76q/pJgNssAAAgAElEQVT27avAwED5+vqqZs2aeuCBB7Ru3TpJ0vbt2+Xm5qZLly7lWy/v85ycnCLLAAAAAACA0rNrMuPrr7/Www8/rGeffVYXLlzQiRMn1LZtW7Vv314HDx60W1xbtmzRXXfdpXbt2mnv3r1KS0vToUOH9PTTT2v9+vV2iwsAAAAAANg5mREbG6sXXnhBTz75pDw8POTt7a2JEyfqgQce0OTJkyX9PdNhyZIlql+/vgwGgwYMGJBvtkNqaqpiYmJUvXp1BQQEaMCAAcrIyMi3/po1a9S0aVN5e3urVatW2r17d5FxDR8+XBMmTNCYMWNUrVo1SZLBYNCjjz6qRYsW2fCIAAAAAACAktgsmREfH1/s8uPHj2vfvn3q27dvgWWPPfaYvv3223yfbdiwQQkJCdq/f7927typSZMmmZcNHDhQSUlJOnz4sI4dO6bjx49rwoQJ+daPi4uT0WhUUlKSwsPDNWTIkELjOnHihHbv3q1+/fpZuquASyuprwPOjnMcjo5zFHB89FPXQntXDJslM4xGY7HLz507J0kKDAwssKxWrVo6f/58vs+mTp0qHx8fBQUFaeLEiVq+fLm5nri4OM2ZM0d+fn4yGAyKjY3VihUr8q0/e/ZsBQQEyMvLS4MHD9b27duLjatWrVrmz+Li4hQQECB/f39VqVJFV65cKWHvAddRUl8HnB3nOBwd5yjg+OinroX2rhh2u82kRo0akqQzZ84UWHbmzBlVr14932d169Y1/7tevXo6ffq0pKszKUwmk9q0aaOAgAAFBASoX79+SktLU25urnmda5MTVatWVU5OjnJyciyKKyoqSsnJyfruu+90+fJlmUwmubtfPXTXbuPa/+ctBwAAAAAA5ctuv3GHhoaqSZMmWr16dYFlq1ev1r333pvvs6NHj+b7d15yIigoSJK0Z88eJScnKzk5WSkpKcrMzCxVQiEkJETh4eFauXJlseWCg4MlSUeOHMn3+eHDhxUUFEQyAwAAAAAAG7Hrb9xz587V9OnTtWLFCuXk5CgjI0Nz5szRV199pWnTpuUrO3XqVKWnp+vMmTOaPXu2nnjiCUlXb1Pp2bOnxo0bpwsXLkiSTp06pY0bN5Y6rjfffFOzZ8/Wa6+9Zq7z8uXL+uWXX8xlgoODdc899+j555/X2bNnJUkHDx7UrFmzFB0dXeptAwAAAACA4tksmREREVFimYceekhr1qzRW2+9pZtuukkhISHatm2btm3bpsaNG+cr27VrV4WHhyssLEzNmjXTjBkzzMuWLVsmHx8fNWnSRAaDQZ06dSr2bSUlufvuu7VlyxbFx8frlltukcFgUJ06dbRu3Tp98cUX8vDwkCStWrVKN910k8LDw+Xr66suXbqoR48e+WIDbnSW9HXAmXGOw9FxjgKOj37qWmjviuFmMplM9g6iONu3b9edd96pzMxMValSxd7hADeE06dPa+PGjXrwwQcVEBBg73AAAAAAwCo82AFwQYGBgQoLC1NERISio6P1888/2zskAAAAALAYyQzARUVEROj999/XDz/8oIcfflgtW7bUwoULlZycbO/QAAAAAKBYDn+bCQDbMhqN6t+/v9LT0+Xp6Sk3Nzd16tRJw4cPV5s2bewdHgAAAAAUYLOZGfHx8baqGkA5ioiIMD9ENzs7W1lZWfrPf/6jfv36WTRbg76OGx3nOBwd5yjg+OinroX2rhgetqr40UcftVXVACpAZmamMjMzNW3aNL322mt69913za9EtkRiYqINowMqjtFoVGRkpL3DAIrEOQo4Pvqpa6G9K4bNkhljx45VbGysraoHUI6MRqOefPJJZWZmSpI8PT1VtWpV+fv7a/DgwerTp4/5rSeWJCmCg4NtGi8AAAAA12azZAYA53BtIsPPz09ZWVnq1q2bBg0axDMzAAAAADgkkhmACzMajXrssceUk5OjOnXqFJiFAQAAAACOyGbJjIiICFtVDaAcGI1GxcTE6IEHHmAWBlAMxjM4Os5RwPHRT10L7V0xeDUr4IJOnz6tjRs36sEHH7RqFkZwcLDFz8zgAaAAAAAAbIVkBgCLkcwAAAAA4Ajc7R0AAAAAAACANUhmAAAAAAAAp2KzZEZ8fLytqgYAoMIwnsHRcY4Cjo9+6lpo74phs2SG0Wi0VdUAAFQYxjM4Os5RwPHRT10L7V0xuM0EAAAAAAA4FZIZAAAAAADAqZDMAAAAAAAATsVmyYyIiAhbVQ3AhezcuVO+vr66fPlyqZZfa/v27XJzc9OlS5esWg+ujfEMjo5zFHB89FPXQntXDJslMyIjI21VNQAnd21SoSQtW7ZUWlqavLy8Cl3v2uXWKO16JSlq3/I+z8nJsWr/XZ0jHCvGMzg6zlHA8dFPXQvtXTG4zQQAAAAAADgVkhkA7CrvL+9r1qxR06ZN5e3trVatWmn37t35lp8+fVodO3aUJNWoUUO+vr56++23C/zlftGiRWratKkMBoMCAgIUFRWlU6dOFbndvPVatWolX19f80+lSpX00ksvSZJSU1MVExOj6tWrKyAgQAMGDFBGRobNjklaWpqGDh2qwMBA+fr6Kjw8XLt27ZIknTlzRlFRUfLz81ONGjU0YsQIZWVl5dunzz77TOHh4fLx8VHr1q21e/durV27Vs2bN5e3t7fuuOMOJSQk5FtnyZIlql+/vgwGgwYMGJBvJoQl2yyq/Uo6fsWtn5KSUmibS9L8+fMVGhoqb29vhYSEaN68eTZrDwAAADgekhkAHEJcXJyMRqOSkpIUHh6uIUOG5Fvu7++vLVu2SJLOnTuntLQ0DRs2rEA9oaGh+uqrr5Samqo///xTFy9eLFBXYXbs2KG0tDSlpaVp3bp18vf31yOPPCJJGjhwoJKSknT48GEdO3ZMx48f14QJE8phrwsXHR2thIQEc0xr165V9erVJUlPPPGEJCkxMVEJCQnasmWLJk+enG/9NWvWaNu2bbpw4YKaNWumhx56SKtXr9aWLVuUlJSk2267Tc8880y+dTZs2KCEhATt379fO3fu1KRJk8zLLNlmce1nyfErbP2i2vyvv/7SmDFjtHTpUmVkZGjv3r3q2rVrWQ45AAAAnI3JRn788UdbVQ3AToKCgsql3C+//GKSZMrMzDT/+8iRI+blW7ZsMXl4eBRZNjMzs9C6CvP999+bqlatalFdJpPJtG/fPlONGjVM69atM5lMJtPZs2dNbm5upj/++MNc5uuvvzbVqFGjxH0r7PPs7OxiYz5z5oxJkmnXrl0FliUmJpokmfbs2WP+bOXKlebjXdix3Lp1q0mS6cSJE/k+u/74FlVnabZ5bfuVdPysaf88J0+eNFWqVMn01ltvmZKTkwscp/LGeAZHxzkKOD76qWuhvSuGzWZmGI1GW1UN4AZUq1Yt87+rVq2qnJwc5eTkWF1PXFyc2rVrp2rVqsnf3189e/ZUZmamrly5UuK658+f14MPPqhJkyapR48ekqQTJ07IZDKpTZs2CggIUEBAgPr166e0tDTl5uYWqMPd/epl9fplef/PW16UkydPSpIaNWpUYFne7TJ169Y1f1avXj2dPn06X7lrj2WVKlUK/ez641tUnaXZ5rXtZ+nxs6b9g4OD9emnn+qzzz5TaGioIiMjtXnz5kLLlgfGMzg6zlHA8dFPXQvtXTG4zQSA03Bzcyt2eWJiovr27atRo0YpMTFRKSkpWrt2rSTJZDIVu25WVpYeeeQR3XfffRo5cqT586CgIEnSnj17lJycrOTkZKWkpCgzM7PQxERwcLAk6ciRI/k+P3z4sIKCgkpMZtSuXVuSdPDgwQLL8mI5evSo+bOjR48qMDCw2DotcX2decmFsm7T2uN3vaLaPCoqSps2bdK5c+fUrVs39e7d26J4AAAAcGMgmQHAaeQ9N+LQoUOFLs+bgREQECAvLy8dPXpU06ZNs6juQYMGycfHR2+88Ua+zwMDA9WzZ0+NGzdOFy5ckHR1tsLGjRsLrSc4OFj33HOPnn/+eZ09e1bS1cTErFmzFB0dXWIcNWvWVFRUlEaOHGmepXHgwAEdO3ZMQUFB6tKli1588UVlZGTozJkzmj17tvr372/RPhZn6tSpSk9PN9eZ95yMsm7T2uN3vcLa/PDhw9q4caOysrLk6elpfmArAAAAXAfJDABOo379+ho2bJgiIyMVEBCghQsX5lseFhaml19+WdHR0TIYDOrdu7f69etnUd0ff/yxNm/eLH9/f/MbTWbNmiVJWrZsmXx8fNSkSRMZDAZ16tQp39s6rrdq1SrddNNNCg8Pl6+vr7p06aIePXpoxowZFsXy4YcfqnHjxmrRooUMBoN69eplTgQsX75cOTk5CgoKUtOmTRUZGanp06dbVG9xunbtqvDwcIWFhalZs2b5Yi3rNq09ftcqrM2zs7M1adIk8xtOPvnkE61atcrqfQYAAIDzcjOVNPe6lOLj4xUZGWmLqgHYSXBwsBITE8utHOxv+/btuvPOO5WZmWl+vgbyYzyDo+McBRwf/dS10N4Vw2bJDAA3HpIZNx6SGQAAAHBG3GYCAAAAAACcioe9AwAA2E/r1q1LfNMLAAAA4GiYmQEAAAAAAJyKzWZm8NATwLUFBwfbOwSL8GwPlITxDI6OcxRwfPRT10J7VwybJTOMRiMNCLgwZ0gSOEvCBfbFeAZHxzkKOD76qWuhvSsGt5kAAAAAAACnQjIDAAAAAAA4FZIZAAAAAADAqdgsmREREWGrqgEAqDCMZ3B0nKOA46Ofuhbau2K4mUwmk72DAOAcgoODLXqwp6Xl7M1Z4gQAAACQH7eZAAAAAAAAp0IyA4BdJScna/ny5Tp9+rS9QwEAAADgJEhmALCLn3/+WUOGDFFERITCwsIUGBho75AAAAAAOAmbJTPi4+NtVTUAJ5WcnKzFixerTZs2evjhh/XNN9/o/fff5yFJcGiMZ3B0nKOA46Ofuhbau2LYLJlhNBptVTUAJ5M3C6Nly5aaO3eujh07pipVqmjVqlUkMuDwGM/g6DhHAcdHP3UttHfF8LB3AABuTMnJyVq9erUWL16slJQUZWRkKCcnR5cuXVLVqlW1fPlyEhkAAAAASoVkBgCbaNq0aZHLMjMzFRUVVYHRAAAAALiRkMwAYBN79+7VihUr9O677yolJUWZmZnmZT4+Plq2bBkzMwAAAACUis2emcEvKYBrCwgI0NChQ7Vz506tXLlSXbt2VeXKleXp6an09HT179+f+wnhFBjP4Og4RwHHRz91LbR3xXAzmUwmewcBwDkEBwcrMTGx1OWSk5PNszVOnz4tT09PrVy5kgs+AAAAAKvYbGYGAFzv2tkaX3zxhTp16qSYmBhmaAAAAACwCskMAHbRpk0bffTRRzIajTp06JBOnz5t75AAAAAAOAluMwFgsbLeZgIAAAAA5cFmMzPi4+NtVTUAABWG8QyOjnMUcHz0U9dCe1cMmyUzuAceAHAjYDyDo+McBRwf/dS10N4Vg2dmAAAAAAAAp0IyAwAAAAAAOBWSGQAAAAAAwKnYLJkRERFhq6oBAKgwjGdwdJyjgOOjn7oW2rti8GpWABbj1awAAAAAHAG3mQAAAAAAAKfitMmM7du3y83NTZcuXbJ3KFbbuXOnfH19dfny5RLLOvN+AgAAAABgC3ZNZhiNRrVv317e3t7y9/dXixYt9Pnnn1doDPZIFrRs2VJpaWny8vKqsG1aiuQJAAAAAMDR2SyZER8fX+zy9PR0de/eXT179lRSUpKSkpK0ZMkSVa9e3VYhOYSsrCx7h1AkR44NAOylpPEMsDfOUcDx0U9dC+1dMWyWzDAajcUuP3jwoJKTkzV48GB5eXnJ3d1drVu3VseOHc1lUlNTFRMTo+rVqysgIEADBgxQRkZGofWVVDYtLU1Dhw5VYGCgfH19FR4erm3btpm3V6NGDfn6+urtt98utP758+crNDRU3t7eCgkJ0bx58yzadt5Mh2XLlunmm2+WwWDQf//733yzHxYtWqSmTZvKYDAoICBAUVFROnXqVInHOK/uJUuWqH79+jIYDBowYEC+WRVnzpxRVFSU/Pz8VKNGDY0YMcKctCgsNkuPBwC4ipLGM8DeOEcBx0c/dS20d8Ww220mjRo1Us2aNfXUU09p7dq1hb75YODAgUpKStLhw4d17NgxHT9+XBMmTCi0vpLKRkdHKyEhQTt27FBaWprWrl2revXqacuWLZKkc+fOKS0tTcOGDStQ919//aUxY8Zo6dKlysjI0N69e9W1a1er4ly/fr22b9+u5ORkVapUKd+y0NBQffXVV0pNTdWff/6pixcvasiQIRYfyw0bNighIUH79+/Xzp07NWnSJPOyJ554QpKUmJiohIQEbdmyRZMnTy4yNkuOBwAAAAAA9mS3ZIa3t7e2bdumwMBAjRo1SrVr11bbtm21Z88eSVd/mY6Li9OcOXPk5+cng8Gg2NhYrVixokBdJZU9e/asPv/8c7355psKDQ2VdDWZUqdOHYti9fLyUqVKlbRv3z6lpKTIz89Pt912m1VxzpgxQ35+fqpatWqB+nv06KGGDRtKkmrVqqUXXnhBGzdutPBISlOnTpWPj4+CgoI0ceJELV++XJJ06tQpfffdd5o5c6Z8fHwUGBioiRMnaunSpRbHBgAAAACAo/Gw58Zvvvlmvffee5KkEydOaPjw4erXr59+++03nThxQiaTSW3atDGXN5lMysrKUm5ubr56Sip78uRJSVcTGKURHBysTz/9VG+++aYmTJig5s2ba9asWercubPFceYlUQoTFxenV155RX/++aeuXLmi3NxcZWZm6sqVKxbFV7duXfO/69Wrp9OnT0uS+VaVopZbEhsAAAAAAI7GZjMzIiIirCofEhKiMWPGKCEhQZIUFBQkSdqzZ4+Sk5OVnJyslJQUZWZmyt09f9glla1du7akq8/puJ6bm5tF8UVFRWnTpk06d+6cunXrpt69e1sdZ2ESExPVt29fjRo1SomJiUpJSdHatWslXU2KWOLo0aP5/l2rVq18sV2/PDAwsMi6LD0eAOAqrB3PgIrGOQo4Pvqpa6G9K4bNkhmRkZHFLj9y5IjmzZun48ePS5JSUlK0ePFitW7dWpIUGBionj17aty4cbpw4YKkqzMNCrv9oqSyNWvWVFRUlEaOHGmepXHgwAEdO3bM/PaUQ4cOFRnr4cOHtXHjRmVlZcnT01O+vr7m515YE2dh8mZgBAQEyMvLS0ePHtW0adMsWjfP1KlTlZ6erjNnzmj27Nnm52QEBQWpS5cuevHFF5WRkWFe3r9//yLrsuR4AIArKWk8A+yNcxRwfPRT10J7Vwy7PjPjp59+Ups2beTj46MGDRro4sWLWrlypbnMsmXL5OPjoyZNmshgMKhTp07avXt3ofWVVPbDDz9U48aN1aJFCxkMBvXq1UsXLlxQ/fr1NWzYMEVGRiogIEALFy4sUHd2drYmTZpkfsPHJ598olWrVpUqzuuFhYXp5ZdfVnR0tAwGg3r37q1+/fpZehglSV27dlV4eLjCwsLUrFkzzZgxw7xs+fLlysnJUVBQkJo2barIyEhNnz69yLosOR5wfqdPn9by5cuVnJxs71AAAAAAwGpuJkvvZYDD2b59u+68805lZmaqSpUq9g4HTsZoNComJkZdunTRU089le+5L0UJDg4u9M1DpS0HAAAAAKVht5kZAOwrIiJCixcv1pdffqlHHnlE7du31+LFi5mtAQAAAMDh2SyZER8fb6uqAZSTDh06aMWKFfLw8NBff/2lhQsXqlWrVvq///s//fzzz/YOD3AIjGdwdJyjgOOjn7oW2rti2CyZYTQabVU1/r/WrVvLZDJxiwnKpEOHDlq+fLk8PDyUmJiojIwMbdy4UTExMczWAMR4BsfHOQo4Pvqpa6G9K4aHrSp+9dVX9eqrr9qqegA2dPHiRUnShQsXNHnyZL3yyit699137RwVAAAAAFxls2TG2LFjFRsba6vqAZQjo9GoAQMGKCMjQzk5OZIkDw8P+fv7KyYmRjExMQoICLBzlAAAAABwlc2SGQCcQ14iIz09Xbm5ufLw8FCbNm00btw4tWvXzt7hAQAAAEABNktmRERE2KpqAOXEaDTq8ccfV1ZWlqpVq8YsDKAQjGdwdJyjgOOjn7oW2rtiuJlMJpO9gwBQ8YxGo2JiYtSsWTPFxsZaNAsjODhYiYmJ5VYOAAAAAEqD20wAF3T69GkdOnRIRqORWRgAAAAAnA4zMwBYjJkZAAAAAByBu70DAAAAAAAAsIbNkhnx8fG2qhoAgArDeAZHxzkKOD76qWuhvSuGzZIZRqPRVlUDAFBhGM/g6DhHAcdHP3UttHfF4DYTAAAAAADgVEhmAAAAAAAAp0IyAwAAAAAAOBWbJTMiIiJsVTUAABWG8QyOjnMUcHz0U9dCe1cMN5PJZLJ3EACcQ3BwsBITE8utHAAAAACUhkPfZrJ9+3a5ubnp0qVL2rlzp3x9fXX58mWL13FkJcV5I++7pfsDAAAAAEBh7J7M2LFjhx5++GHVqFFDPj4+ql+/vkaMGKFz587lK9eyZUulpaXJy8ur3LZ97S//ef/29fXN9/PQQw9ZVY8t2GLf8xiNRrVv317e3t7y9/dXixYt9Pnnn5f7dq5VnvvjLAkcAAAAAED5sWsyY/PmzercubO6dOmiQ4cOKT09XVu2bJGPj4+2b99ul5jOnTuntLQ088+6devsEkdFSE9PV/fu3dWzZ08lJSUpKSlJS5YsUfXq1e0dGgAAAAAARbJZMiM+Pr7EMiNGjNDzzz+v5557Tn5+fpKkunXr6uWXX9b999+fr+z1f4FPS0vT0KFDFRgYKF9fX4WHh2vXrl0FtrF79241aNBAr7/+epn3af78+QoNDZW3t7dCQkI0b948paSkqGPHjpKkGjVqyNfXV2+//bYkadGiRWratKkMBoMCAgIUFRWlU6dO5atz+fLlql+/vgwGgwYMGFDoDIPr972wOK61fv16NW3aVN7e3mrVqpV2795d6P4cPHhQycnJGjx4sLy8vOTu7q7WrVub90eSUlNTFRMTo+rVqysgIEADBgxQRkZGscekpGXX78+ZM2cUFRUlPz8/1ahRQyNGjFBWVla+smvWrLFonwCgvFkyngH2xDkKOD76qWuhvSuGzZIZRqOx2OUnT57U77//rn79+pWq/ujoaCUkJGjHjh1KS0vT2rVrC8wo+Pbbb9WtWzfNnz9fI0eOLFBH69atZTKZVKVKlRK399dff2nMmDFaunSpMjIytHfvXnXt2lX+/v7asmWLpL9ndQwbNkySFBoaqq+++kqpqan6888/dfHiRQ0ZMiRfvRs2bFBCQoL279+vnTt3atKkSaWK41pxcXEyGo1KSkpSeHh4gW3madSokWrWrKmnnnpKa9euLfSBjQMHDlRSUpIOHz6sY8eO6fjx45owYUKJsVgSZ54nnnhCkpSYmKiEhARt2bJFkydPtmifrGlDACiNksYzwN44RwHHRz91LbR3xbDbbSZnz56VJNWqVatU637++ed68803FRoaKunqL+Z16tQxl3nvvfc0cOBAffHFF3r44YctrjsoKEgBAQHmnxdffFGS5OXlpUqVKmnfvn1KSUmRn5+fbrvttmLr6tGjhxo2bCjp6n6+8MIL2rhxY74yU6dOlY+Pj4KCgjRx4kQtX7682DotiWP27NkKCAiQl5eXBg8eXOQtO97e3tq2bZsCAwM1atQo1a5dW23bttWePXskXU3OxMXFac6cOfLz85PBYFBsbKxWrFhRYiyWHq9Tp07pu+++08yZM+Xj46PAwEBNnDhRS5cuLdU+AQAAAABufHZLZtSoUUPS30kNa5w8eVLS1QRGUWbMmKF+/fqpbdu2VtV96tQpJScnm3+mT58u6eqrJj/99FN99tlnCg0NVWRkpDZv3lxsXXFxcWrXrp2qVasmf39/9ezZU5mZmbpy5Yq5TN26dc3/rlevnk6fPl1snZbEcW2CqGrVqsrJyVFOTk6h9d1888167733dPjwYR0/fly1a9c2z5Y5ceKETCaT2rRpY07u9OvXT2lpacrNzS02FkuPV95tNyUdB2v2CQAAAABwY7NbMiMkJETNmjXTypUrrV63du3akq4+86EomzZt0ueff17ibRvWiIqK0qZNm3Tu3Dl169ZNvXv3liS5ubkVKJuYmKi+fftq1KhRSkxMVEpKitauXStJMplM5nJHjx7N929LZqoUFUdZhYSEaMyYMUpISJB0dZaKJO3Zs8ec3ElJSVFmZqbc3d1LjMWSOPO2cf1xCAwMLJd9AgAAAADceGyWzIiIiCixzJtvvqnZs2frX//6l1JTUyVJx48f18SJE7Vhw4Yi16tZs6aioqI0cuRI8yyNAwcO6NixY+YyDRo00NatWxUXF6eRI0fmSyCUxuHDh7Vx40ZlZWXJ09NTvr6+qlSpkiSZn9Vx6NAhc/m8GRh5t0YcPXpU06ZNK1Dv1KlTlZ6erjNnzmj27Nnm50eUJg5rHTlyRPPmzdPx48clSSkpKVq8eLFat24tSQoMDFTPnj01btw4XbhwQdLVmRR5t8oUF4ulcQYFBalLly568cUXlZGRYT4O/fv3L9U+AUB5s2Q8A+yJcxRwfPRT10J7VwybJTMiIyNLLNO5c2dt2rRJ3377rRo0aCBfX1916NBBaWlp5l+oi/Lhhx+qcePGatGihQwGg3r16mX+hTtPSEiIfvjhB23dulVPP/20cnNzS4wp740keT+tWrWSJGVnZ2vSpEnm5Z988olWrVolSapfv76GDRumyMhIBQQEaOHChQoLC9PLL7+s6OhoGQwG9e7du9CHnXbt2lXh4eEKCwtTs2bNNGPGjGLjKy4Oa3l7e+unn35SmzZt5OPjowYNGujixYv5ZsssW7ZMPj4+atKkiQwGgzp16mR+k0hxsVgT5/Lly5WTk6OgoCA1bdpUkbVNVFgAACAASURBVJGR5tt7YBunT5/W8uXLlZycbO9QAIdnyXgG2BPnKOD46KeuhfauGG6msk5ZAOCUjEajBg0apC5duig6Olpt2rQpcZ3g4OBC33pT2nIAAAAAUBokMwAX9v3332vAgAG6cuWKGjZsqP79+6tPnz4KCAgotDzJDAAAAACOwG4PAAVgf126dNGHH36oSpUq6dixY/roo4/UunVrDR8+XD///LO9wwMAAACAQtksmREfH2+rqgGUo7yExpUrV3TgwAGlp6frl19+0TPPPKOOHTtq8eLFPFsDLo3xDI6OcxRwfPRT10J7VwwPW1X86KOP2qpqADaW96rc5ORkTZ48Wa+88oreffddO0cF2IfRaORBXnBonKOA46Ofuhbau2LYLJkxduxYxcbG2qp6AOXIaDQqJiZGWVlZysjIkCS5ubmpcuXK6t+/v8aMGVPkczQAAAAAoKLZLJkBwDnkJTIyMzN1+fJlubu7q3nz5ho/frzuvvtue4cHAAAAAAWQzABcmNFo1BNPPKHLly/LYDAoOjqaWRgAAAAAHJ7NkhkRERG2qhpAOcibkdGsWTONGTOGWRhAERjP4Og4RwHHRz91LbR3xXAzmUwmewcBoGKdPn1aGzdu1IMPPmjVLIzg4GAlJiaWWzkAAAAAKA2SGQAsRjIDAAAAgCNwt3cAAAAAAAAA1iCZAQAAAAAAnIrNkhnx8fG2qhoAgArDeAZHxzkKOD76qWuhvSuGzZIZRqPRVlUDAFBhGM/g6DhHAcdHP3UttHfF4DYTAAAAAADgVEhmAAAAAAAAp0IyAwAAAAAAOBWbJTMiIiJsVTUAABWG8QyOjnMUcHz0U9dCe1cMN5PJZLJ3EACcQ3BwsBITE8utXEXavn277rzzTmVnZ8vDw8Pe4Wjnzp266667dP78eXl5edk7HAAAAMCpcJsJ8P/Yu/e4qup8/+PvrRi6ue0TKCB4yezCqF0mh2LXUbN0mqasYbRI00yziyNmOp5jHTI7jllNPszRLPMyGSnetTPZjBONZsVujI7NOGhNJYUoghzYKAIqun5/+GMPKOy9FdbebPbr+Xj4eMD6ftdnfb7ru2GxPq4L/MLhcOjmm2+W1WpVVFSUrr32Wm3evNnfafnM9ddfr8rKSgoZOltoslgsqqmp8XcqAAAACBAUMwD43PHjx3XnnXdq2LBhKi8vV3l5uZYvX67o6Gh/p9YmnTx50t8pAAAAAC2KYgYAn/vuu+/kdDo1YcIEhYaGql27durfv78GDBjg6nPs2DGNGzdO0dHRstlsGjt2rKqqqiT963/yN27cqKSkJFmtVt1www3as2ePa/1Dhw5pyJAhCgsLU79+/Ty+73v+/PlKTEyU1WpVQkKC5s2b51UuntZtqu3cqxFKSkqUmpqqyMhIxcTEKD093VWE8Ga89dX1z8zM1JVXXqmIiAjV1tZ6HMe5+2zhwoWyWCyqra1t9OqJumW1tbUXvZ8qKipc8x4TE6Pw8HAtXrzY7VwBAAAAphUzcnJyzAoNIMD17t1bnTt31kMPPaR333230edrPPzwwyovL1d+fr4OHDigwsJCzZgxo0GfTZs2yeFwqLy8XH369NGjjz7qahs9erQiIiJUUlKi7OxsZWZmNpnP999/r6lTp2rlypWqqqrSvn37NGTIEK9ycbeup7j1jRw5UpJUVFSkvLw87dy5UzNnzvR6vI3ZunWrcnNz5XQ6FRIS4nGfXsg+a8zF7KeoqCjt3LlTklRaWqrKykpNnDjxgrZrNo5naO34jAKtHz+nwYX59hHDJK+88opZoQH4SVxcXIv1+/rrr43x48cbPXv2NCQZycnJRl5enmEYhnHkyBHDYrEYX3/9tav/+++/b8TExBiGYRiff/65Icn44YcfXO07d+40QkJCDMMwjKKiIkOSsXfvXlf7unXrDEnGqVOnzsvl0KFDRvv27Y1FixYZTqezQZunXNyt666tbgzV1dWN5rtmzRrXfvQ03nPV9f/mm2+8HoenfVY/33O3c+rUqWbtp8ZityYcz9Da8RkFWj9+ToML8+0b3GYCwC+uvPJKLVu2TPn5+SosLFTXrl2VlpYmSTp48KAMw1BycrJsNptsNpvS0tJUWVmpM2fOuGJ06dLF9XWnTp1UW1ur2tpaHT58WJLUvXt3V3u3bt2azCU+Pl7r1q3Thg0blJiYKLvdrh07dniVi7t13bXV11i+PXr0UHFxcYN+TY23KYmJia6vPY3jQvfZuZqznwAAAIALRTEDgN8lJCRo6tSpysvLkyTFxcVJkvbu3Sun0ymn06mKigpVV1erXTvPv7bq1i8oKHAtO3DggNt1UlNTtX37dpWWlmro0KEaPny417k0ta6nNnf5FhQUKDY21uNYveVpHJ72Wd1bVyorK13L6hdbmrOfLBZLi40TAAAAwYFiBgCf++GHHzRv3jwVFhZKkioqKrR06VL1799fkhQbG6thw4Zp+vTpKisrk3T26oXs7Gyv4sfFxWnQoEF69tlnVVVVpZKSkgYP5TxXfn6+srOzdfLkSXXo0EHh4eFq3769V7m4W9dd27n5Dh48uEG+c+fO1ejRo70arzc8jcPTPrviiisUFRWlxYsX6/Tp0zpw4IDmzJnjdXx3+6LuLTb79+9vsfECAACgbTOtmJGSkmJWaAABzmq16rPPPlNycrLCwsJ02WWX6ejRo1qzZo2rT2ZmpsLCwnTVVVcpIiJCAwcObPLtHY3JzMxUeXm5OnfurNtuu02jRo1qsu+pU6eUkZHhepvG6tWrtXbtWq9ycbeup7j1rVq1SrW1tYqLi1NSUpLsdrtmz57t9Xi94WmfuttnHTt2VGZmpt566y1FRkZqxIgRGjdunNfx3e2Lnj17auLEibLb7bLZbHr99debPdbi4mKtWrVKTqez2bE4nqG14zMKtH78nAYX5ts3LIZhGP5OAkBgiI+Pb/TNIxfbD61bbm6ufvKTn+jUqVMKCQnxdzoXzOFwaPz48Ro8eLDGjBmj5ORkf6cEAACAFsJtJgCANiklJUWvvvqq/ud//ke/+MUvNHDgQC1durRFrtYAAACAf1HMAAC0WUOHDtXrr78ui8WisrIybdy4UcnJyZo0aZJ27drl7/QAAABwkbjNBIDXuM0EgWrr1q167LHHdPr0aYWGhurqq69WWVmZOnXqpAcffFAjRoyQzWbzd5oAAADwkmnFjJycHNntdjNCA/CTCylmAIEgJiZGpaWlioiI0JIlSzRy5Eiv16Vgh9aCv7mA1o+f0+DCfPuGaU90czgcTCAQxDjRQ2tS9zDQuttN6hw/flzDhw9XRkaGYmNjJXn32aVgh9aEv7mA1o+f0+DCfPtG4D2eHgCAC1BXyKitrdWxY8dksVh0+eWX66mnnlJqaqq/0wMAAMBFoJgBAGizHA6HRo0apZqaGnXs2PG8qzAAAAAQmChmAADaJIfDoXHjxql37956/PHHuQoDAACgDTGtmJGSkmJWaAAA3CouLtb+/fvlcDh4SwnaPP7mAlo/fk6DC/PtG7yaFYDXeDUr2jo+4wAAAIGhnb8TAAAAAAAAuBAUMwAAAAAAQEChmAEAAAAAAAKKacWMnJwcs0IDAADg/+NvLqD14+c0uDDfvmFaMcPhcJgVGgAAAP8ff3MBrR8/p8GF+fYNbjMBAAAAAAABhWIGAAAAAAAIKBQzAAAAAABAQDGtmJGSkmJWaAAAEIR2796t8PBwnThxwt+ptCr8zQW0fvycBhfm2zdMK2bY7XazQgMA0Krl5ubKYrEoPDxc4eHhioqK0tChQ5WXl+fv1LxSl39NTY2/U2ng+uuvV2VlpUJDQ/2dSqvC31xA68fPaXBhvn2D20wAADBJaWmpKisrVVBQoMTERD3wwAP+TgkAAKBNoJgBAIDJoqKiNH78eO3du7fB8mPHjmncuHGKjo6WzWbT2LFjVVVV5Wo/dOiQhgwZorCwMPXr108LFy6UxWJRbW1to1dP1C2rra31Kv78+fOVmJgoq9WqhIQEzZs3TxUVFRowYIAkKSYmRuHh4Vq8eHGj42psfW/H5m7dptrOHXNJSYlSU1MVGRmpmJgYpaen6+TJkw36bty4UUlJSbJarbrhhhu0Z8+eC5g5AADQWlHMAADAZGVlZXrzzTd14403Nlj+8MMPq7y8XPn5+Tpw4IAKCws1Y8YMV/vo0aMVERGhkpISZWdnKzMz84K26y7+999/r6lTp2rlypWqqqrSvn37NGTIEEVFRWnnzp2S/nVlycSJE8+L3dT6zdm2N3HrGzlypCSpqKhIeXl52rlzp2bOnNmgz6ZNm+RwOFReXq4+ffro0UcfvaB9CAAAWifTihk5OTlmhQYAICDExcUpIiJC0dHR+uijj7R+/XpXW2lpqTZt2qSXXnpJkZGRioiI0LRp05SVlSVJOnz4sP7yl79ozpw5CgsLU2xsrKZPn+71tj3FDw0NVfv27fXVV1+poqJCkZGRuuaaa7yO72795mzb27wOHz6sDz/8sMH+eeaZZ7Ry5coG/ebOnSubzabQ0FBNmDBBubm5Xo8xUPA3F9D68XMaXJhv3zCtmOFwOMwKDQBAQDh8+LCOHj2qzz77TJWVlVqyZImr7eDBgzIMQ8nJybLZbLLZbEpLS1NlZaXOnDmjw4cPS5K6d+/uWqdbt25eb9tT/Pj4eK1bt04bNmxQYmKi7Ha7duzY4XV8d+s3Z9ve5tXY/unRo4eKi4sb9OvSpYvr606dOqm2ttZ1G05bwd9cQOvHz2lwYb59g9tMAAAwkcVi0Y033qgXX3xRL7/8soqKiiSdvWpDkvbu3Sun0ymn06mKigpVV1erXbt2rvaCggJXrAMHDri+rnujR2VlpWtZ/RN5T/ElKTU1Vdu3b1dpaamGDh2q4cOHu3L2RlPrN2fbntrOHV/9/VNQUKDY2FivcgcAAIGNYgYAAD4wduxYdevWTa+88ookKTY2VsOGDdP06dNVVlYm6ezVBtnZ2ZLOnqwPGjRIzz77rKqqqlRSUtLgIZlXXHGFoqKitHjxYp0+fVoHDhzQnDlzXO2e4ufn5ys7O1snT55Uhw4dFB4ervbt20uSoqOjJUn79+9vcjzu1m/Ott211RcXF6fBgwc32D9z587V6NGjL2heAABAYKKYAQCAD4SEhGjWrFlasmSJSktLJUmZmZkKCwvTVVddpYiICA0cOLDB2zYyMzNVXl6uzp0767bbbtOoUaNcbR07dlRmZqbeeustRUZGasSIERo3blyDbbqLf+rUKWVkZLjeWLJ69WqtXbtWktSzZ09NnDhRdrtdNptNr7/++nnjcbd+c7btKW59q1atUm1treLi4pSUlCS73a7Zs2df8NwAAIDAYzEMwzAjcE5Ojux2uxmhAfhJfHy86xL5lugHtDat/TOem5urn/zkJzp16pRCQkJ8vn20nOLiYmVnZ+vnP/+5bDZbs2LxNxfQ+vFzGlyYb98w7coMJg8AAKBxsbGx6tWrl1JSUvSzn/1M77///kXH4m8uoPXj5zS4MN++wW0mAAAAfpCSkqIVK1boq6++0iOPPKLevXtr2rRp+r//+z9/pwYAQKtHMQMAgADRv39/GYbBLSZtSEpKilavXq2oqCgZhqHVq1erX79+Gjx4cLOu1gAAoK2jmAEAAOBHdVdoXHLJJYqMjJRhGNq3b5/Gjx/P1RoAADTBtP/a4aEnAIC2LD4+3t8pIAi0a9dOq1ev1h/+8ActWbJEI0eO9HpdHsQMtB6cGwUX5ts3TCtmOBwOJhAA0GZxooiWtG3bNj3yyCOqra1VSEiIevfurWPHjiksLEzTp0/XiBEjXG898faNOwBaD86Nggvz7RvcdAsAAOBHdYUMq9WqxMREFRQUqE+fPhozZoySk5P9nR4AAK0SxQwAAAA/yc7O1oQJE3TmzBnFxcUpLS2twVUYAACgcRQzAAAA/MDhcGjy5MkaNmwYV2EAAHCBTCtmpKSkmBUaAAAgoBUXF2v//v3KycnhKgwgCHBuFFyYb98wrZjBA08AAAAaFxsbq1GjRvk7DQA+wrlRcGG+faOdvxMAAAAAAAC4EBQzAAAAAABAQKGYAQAAAAAAAoppxYycnByzQgMAAABAwODcKLgw375hWjHD4XCYFRoAAAAAAgbnRsGF+fYNbjMBAAAAAAABhWIGAAAAAAAIKBQzAAAAcJ7c3FxZLBbV1NS0itgvvPCCoqOjFR4erh07drR4Thdq9+7dCg8P14kTJ3y6bmvU1sYDIDCYVsxISUkxKzQAAABawBdffKF7771XMTExCgsLU8+ePZWenq7S0lJ/p9ZAcXGxMjIy9Mc//lGVlZUaNGiQv1PS9ddfr8rKSoWGhrrt11jhxtt1A0VbG48ZODcKLsy3b5hWzLDb7WaFBgAAQDPt2LFDgwYN0uDBg7V//34dP35cO3fuVFhYmHJzc/2dXgMHDx6UYRi65pprLmr9kydPtnBGwIXh3Ci4MN++wW0mAAAAQSg9PV1PP/20Jk+erMjISElS9+7d9eKLL+qOO+5w9du6dauSkpJktVp1ww03aM+ePa62Y8eOady4cYqOjpbNZtPYsWNVVVXlaq+srNQTTzyh2NhYhYeHq0+fPvryyy/Py2XPnj267LLLtGDBgvPatmzZoltuuUWSFBMTo7i4OElSSUmJUlNTFRkZqZiYGKWnp7uKFnVXQ2RmZurKK69URESEamtrz4vtLv+ioiLFxsbqnXfecfUfO3asbr31Vp0+ffq8Ky7mz5+vxMREWa1WJSQkaN68eaqoqNCAAQNcuYeHh2vx4sUN1q37euPGjU3u58LCQt12220KCwtTv379tHDhQlkslkbH1FQu3s6Zu3Wbajt3X3gzN+7G6y4HAHAxAMBLcXFxLdoPaG34jKO1a6nP6MGDBw1Jxnfffddkn88//9yQZIwcOdIoLy83ampqjNGjRxs33XSTq88vf/lL49577zUqKiqMo0ePGrfddpuRnp7uav/FL35h/Pu//7tx4MABwzAM45tvvjEKCgpcsaurq41t27YZcXFxxubNmz3mUl1d7Vp22223Gb/4xS+MyspK4/Dhw8Y111xj/Od//meD/vfff79RUVFhVFVVNRrXU/4ffPCBERkZaezdu9f4/e9/b8TGxhpFRUXn5ZSfn29IMrKzsw3DMIyKigrjb3/7W5O511/mzX4eOHCgcd999xnHjx83iouLjZtuusmQZJw6deq8MbnLxdOY3a17IWP0Zm6aGq+n/AGgDsUMAF7jRA9tHZ9xtHYt9Rn98ssvDUnGsWPHmuxTd9L5ww8/uJbt3LnTCAkJMQzDMI4cOWJYLBbj66+/drW///77RkxMjGEYhlFSUmJIMr788ssmYy9cuNDo2rWr8dlnn7nN99yT5aKiIkOSsXfvXlefNWvWuMZd1/+bb75pMqan/Os899xzxhVXXGFEREQYH374YaM5HTp0yGjfvr2xaNEiw+l0us393GWe9nPdWOvnuX79+iaLGe5y8TRmd+t6O0Zv56ap8brbDgDUZ9ptJjk5OWaFBgAAQDPExMRIko4cOeKxb5cuXVxfd+rUSbW1taqtrXU9xyI5OVk2m002m01paWmqrKzUmTNndOjQIUlS7969m4z9m9/8RmlpabrxxhsvKP/Dhw9LOntbTJ0ePXqouLi4Qb/ExMQmY3jKv87jjz+uH374Qddff70GDx7caKz4+HitW7dOGzZsUGJioux2+wW/caWp/Vw31oSEBFd7t27dmozjLhdPY3a3rrdj9HZumhpvS+zL1ohzo+DCfPuGacUMh8NhVmgAAAA0Q0JCgvr27as1a9ZcdIy6Z1fs3btXTqdTTqdTFRUVqq6uVrt27dS1a1dJ0nfffddkjO3bt2vz5s3KyMi4qG0XFBS4lhUUFCg2NrbF8pekM2fOaMyYMbrrrrv0zTffaMWKFU3GS01N1fbt21VaWqqhQ4dq+PDhkiSLxXJBYztX3ZgOHjzoWlZYWOh2naZy8WbMTa3rqa1OS8yNN9sJNJwbBRfm2zd4ACgAAEAQWrhwoebOnavXXntNx44dk3T2JPmZZ57Rtm3bPK4fGxurYcOGafr06SorK5N09n/ls7OzJUmdO3dWamqqnnzySddVGt9++60OHDjginHZZZfp448/1qZNm/Tkk0/KMAyvco+Li9PgwYP17LPPqqqqSiUlJZo7d65Gjx7t9fg95S+dvXKksLBQb7/9trKysjRlyhT94x//OC9Wfn6+srOzdfLkSXXo0EHh4eFq3769JCk6OlqStH//fq9zqy8+Pl4DBgzQrFmzVF1drdLSUrcPxHSXi6cxu1vXXVt9zZ0bb7cDABQzAAAAgtCgQYO0fft2/fnPf9Zll12m8PBw3XLLLaqsrFT//v29ipGZmamwsDBdddVVioiI0MCBAxu8leKtt97SFVdcoWuvvVYRERG65557XCfRdRISEvTRRx/p448/1iOPPNLgFg93Vq1apdraWsXFxSkpKUl2u12zZ8/2fgd4yP8vf/mLXnnlFa1fv15hYWEaOHCg/uM//kMjRozQ8ePHG8Q5deqUMjIyXG8sWb16tdauXStJ6tmzpyZOnCi73S6bzabXX3/9gnKsy7OoqEgxMTG69dZbdd9998lisTR6ku8uF09jdreup7j1NWduLmQ7AIKbxfC2BH6B5s2bp2nTppkRGoCfxMfHq6ioqMX6Aa0Nn3G0dnxGIUlr1qzRU089xRwHEM6Nggvz7RumXZmRkpJiVmgAAAAgaOzbt0979+6VJH3//fd64YUX2sRzJIIJ50bBhfn2DdOKGXa73azQAAAAQNBwOp266667FBYWph//+Mfq37+/XnzxRX+nhQvAuVFwYb59I8TfCQAAAABoWkpKykU/QBQA2ioeAAoAAAAAAAIKV2YAAAC0QfHx8f5OwSs8xBIAcDFMK2bk5ORwrxAAAICfBEKRIFAKLkBzcW4UXJhv3zDtNhOHw2FWaAAAAAAIGJwbBRfm2zd4ZgYAAAAAAAgoFDMAAAAAAEBAoZgBAAAAAAACimnFjJSUFLNCAwAAAEDA4NwouDDfvmFaMYOntwIAAAAA50bBhvn2DW4zAQAACGJOp1OrVq1ScXGxv1MBAMBrFDMAAACC0CeffKJ7771XKSkp6tWrl2JjY/2dEgAAXgvxdwIAAADwDafTqddee03vvPOOKioqdMkllygrK4v7uwEAAce0KzNycnLMCg0AAIAL8Mknn+juu+9W3759tWjRIh0/flyRkZEUMgAf4dwouDDfvmFaMcPhcJgVGgAAAB44nU7NmTNHSUlJuv/++5Wbm6vTp08rNDRUVqtVv//97ylkAD7CuVFwYb59g9tMAAAA2qCkpKRGl584cUInTpxQamqqjzMCAKDlUMwAAABog/bt26f169fr7bff1tGjR2WxWFxvLOnQoYMyMzM1cOBAP2cJAMDF4W0mAAAAbZDNZtOECRP08ccfa+nSpbrlllsUFhamHj16yDAMjR49Wh999JG/0wQA4KKYVszgHkwAAIDWITk5WYsWLVJubq7Gjx+vnj176vTp03rwwQcpaAA+wLlRcGG+fcNiGIbh7yQABIb4+HgVFRW1WD+gteEzjtauJT+ju3bt0ttvv60PP/xQK1as4I9vAEBA4ZkZAAAAQSg5OVnJyclyOp3aunWrevXqpdjYWH+nBQCAVyhmAAAABDGbzaZRo0b5Ow0AAC4IDwAFAAAAAAABxbRiRk5OjlmhAQAAACBgcG4UXJhv3zCtmOFwOMwKDQAAAAABg3Oj4MJ8+wa3mQAAAAAAgIBCMQMAAAAAAAQUihkAAAAAACCgmFbMSElJMSs0AAAAAAQMzo2CC/PtGyFmBbbb7WaFBlqdPXv2aMmSJf5Ow3THjx/Xq6++6rFfTU2NV/2A1ubkyZPasWOHV/34jMMfAvkz+stf/lLdunXzdxqAX3BuFFyYb9+wGIZh+DsJINBNmjRJr732mr/TAACg1VqwYIEmT57s7zQAAG2EaVdmAMHorrvuCupKbH5+vpYuXarIyEjNnj3b3+kAF+z555/Xpk2bPPZLTU3Vc88954OMgIYC8TO6fft2bdmyxd9pAADaGIoZQAuy2+16/PHH/Z2G33zyySdaunSpQkJC+N83BKS5c+dq4MCBHvtdcsklfMbhF4H4GT1z5gzFDABAizPtAaA5OTlmhQaC1qWXXqpLL71Uq1ev9ncqAAAA8BLnRsGF+fYN04oZDofDrNAA6mlrBQ6LxeL6l5GRIUn68ssvZbfbFRoaKqvVqqSkJK1bt85nufhiG/X/zZo1y6t1Z82a5XXfxrbpbfuF7IeW3mf1482aNavBfgIAIFBwbhRcmG/f4DYTAK1SVlaW+vTpI0l68MEHlZeXpxkzZigpKUm7d+9WeXm5T3Lwlfrb6tu3r1frPP/885J0UQWNC+HL/eDO8OHDdfXVV+uBBx7wdyoAAADwM9OuzABwYXbt2qXBgwerZ8+eiomJUY8ePXT33Xe7vUzt0ksvdX09adIk11UabUFaWpr69esnSfr6668lSXfeeadGjx6t+fPn67HHHnP1raqq0pQpU9S1a1d16NBBvXv31uuvv+5qX7JkiXr06KGQkBBFRUU1eEiru7YHHnigwYlzTU2Npk+frsTERHXo0EEJCQmaOnWqqqurXX3qrhqYOXOmbDabunTpos2bN3sc7+233+7616tXL4+5ubtyYsOGDerZs6cuueQSderUSXa7Xbt37z5vm88995wiIiJ0zTXX6Ntvv20yt3P3g7u86rzwwgu69NJLzxu/p7n69ttvde211yo8PPy8hxf27dtXaWlpTeYJAACA4EExA2glSkpKFBYWpnvvvVfjx4/Xj370I3366acaMWKESktLG12n/sNGBw0apMcff9yvDyB97733TIlb97C7AQMGKCYmRiNHjlR+fr6rfdKkSVqwYIFuvPFG/fa3v9V1jUMfLQAAIABJREFU112niRMnup74P23aNHXs2FHLly/XnDlzdNlll7nWddd2rvT0dL3yyivq27ev3njjDfXr10/z58/XpEmTzuubl5enyZMn68iRI5o6darHMXbu3Nn17+WXX/aYW/2rJbKyshp8Hx0dralTp+p3v/udpk+frv/93//V+PHjz9tmUVGRHnjgAe3Zs0fp6ekec6zjzT774osvNGnSpPPG72mu0tPT9fe//10jR47UwYMHvc4JAAAAwcViGIZhRuCcnJygfkUlgsukSZP02muv6YUXXmhWMeGjjz7S559/LqfTqZMnT2rZsmWSpJUrV+ruu+92XXWxaNEijRw5UpIaXeYPGRkZWrx4saZMmaI1a9aoqKjoouLUXWFQ/1eT0+nUvHnz9P777+vLL7/UmTNndN1117muNoiMjNSxY8fOizV+/HgtW7ZMycnJ+uqrr/Tzn/9cV199tX7605/qpptukiS3befmEhUVpaNHj6qkpESdO3fWkSNH1KVLF0VGRqqioqLBOkeOHJHNZlOHDh1ksVh05swZt+P94IMPXMt69eqlXr16uc2tqX0lSWvWrNG0adN06NAh17L27durtra2wXpHjx6VYRiKioqS1WrV8ePHG4177vfe7LOmxu9prsLCwlRVVdUgt3PH2NS4W0J8fLxXn11v+wEtLRA/o6+++qqeeuopLViwoNW8YQXwNc6Nggvz7RumPTODyQMuzK9//WutWLGi0bbKykofZ3Nh6hcy5s+frzVr1rRofKvVqtmzZ2v27Nnau3ev+vTpo7y8PFd73cntokWLdNVVV7mWx8bGSjpbKNi0aZPy8vL0zjvvaNasWdqyZYvuuecet21N8ebhkzExMa6vvTnpvv32289bdjG5SdKvfvUrlZWVufbHiBEj5HQ6z+t3scUAb/Jqavye5qr+OibV2gEA8DnOjYIL8+0b3GYCtBJ1byN54oknVFRUpH379rna3J3Umfm/1N44t5Bhhssvv1wzZszQ22+/reXLl0tq+JDM+++/X5K0bNky5efn6/vvv9eaNWu0ePFiSWf3aU1Nja677jolJCRIkvbv3++x7Vz33XefJGn06NFasWKFHnroIUnSiBEjmj3GNWvWuP794x//8Cq3yMhISWcLA3/6059cy9u1O/ur/fjx4/rDH/7QaCFDOltA+/Wvfy3pX7fyeONC9tm5PM3VgAEDXLlNmzbN65wAAAAQXHibCdBKdO3aVfv379ef/vQn1dTU6NNPP/VqvW7duqmgoEALFizQnj171K5dO73wwgsmZ3uWLwoZknTrrbdq3bp1KiwsVEhIiAYMGKBFixa52hcuXKiYmBhlZWVp4sSJ6tSpk370ox+5ngNRWlqqmTNnqqysTJGRkbr//vs1btw4j23nWrhwoaKiopSVlaUPPvhAXbp00ZQpU1pkf9d/wOZzzz2nvn37eswtIyNDc+bMUXp6uvr06aM77rhD0tnixuTJkzV79mw98cQT6tGjh3744YfzthkbG6v58+erX79++t3vfud1rheyz87laa4WLlyo1NRUrVq1Sr/61a+8zgkAAADBxbRnZgDBpCWemfHFF19oypQp+vrrr9W9e3fNnj1bo0aNkvSv52E09nyMbdu26dlnn1V+fr5Onz4tSSorK2uBUbnnrpDRnHu16z9zwWq1ymq1NjtXtA1VVVWqqqpS586dJfHMDASnQPyM8swMAIAZTLvNxN3rJAGc74YbbtDHH3+skpIS5ebm6mc/+5nKyspUVlbmKlyc+70k/fSnP9WuXbt05MgRV7vZfHFFRufOnX12hQkCw8svv+wqZAAAEEg4NwouzLdvmHabicPh4MEnQBtkdiGj/ls93L0mFcFnzJgxuuWWW/ydBgAAF4xzo+DCfPsGz8wA4LXHHntM69evN/WKjMbe6gFI/3plLQAAAEAxA2hB+fn5+uSTT/ydhinee+890wsZAAAAAOANihlAC1q6dKmWLl3q7zRMExYWRiEDAAAAgN+ZVsxISUkxKzTQ6iQkJEg6+1aTX/7yl37OxhwhISEaMWKEv9MAAAAIOJwbBRfm2zdMK2bwwBMEk06dOkmSrrjiCg0aNMi/yQAAAKBV4dwouDDfvmHaq1kBAAAAAADMQDEDAAAAAAAEFIoZAAAAAAAgoJhWzMjJyTErNAAAuEAvvPCCoqOjFR4erqVLlyo8PFwnTpzwd1otavfu3W1yXAACH+dGwYX59g3TihkOh8Os0AAAtClffPGF7r33XsXExCgsLEw9e/ZUenq6SktLWyR+cXGxMjIy9Mc//lGVlZWaMGGCKisrFRoa2iLxW4vrr7++TY4LQODj3Ci4MN++wW0mAAD40Y4dOzRo0CANHjxY+/fv1/Hjx7Vz506FhYUpNze3RbZx8OBBGYaha665xmPfkydPtsg2AQAAzEQxAwAAP0pPT9fTTz+tyZMnKzIyUpLUvXt3vfjii7rjjjskSSUlJUpNTVVkZKRiYmKUnp7uKjrk5ubKYrFo48aNSkpKktVq1Q033KA9e/ZIkrZs2aJbbrlFkhQTE6O4uDjXOjU1Na6vMzMzdeWVVyoiIkJ//etfZbFYtGHDBvXp00dhYWHq37+/9uzZo3fffVf9+vWT1WrVj3/8Y+Xl5TU5tvnz5ysxMVFWq1UJCQmaN2+eq+3YsWMaN26coqOjZbPZNHbsWFVVVXm1blNt9cfV3P0GAABaN4oZAAD4yaFDh/SPf/xDaWlpbvuNHDlSklRUVKS8vDzt3LlTM2fObNBn06ZNcjgcKi8vV58+ffToo49Kku69917t3LlTklRaWqrDhw83uo2tW7cqNzdXTqdT7du3lyRt3LhRn3zyicrKytS3b1/dfffdWr9+vXbu3Kny8nJdc801euyxxxqN9/3332vq1KlauXKlqqqqtG/fPg0ZMsTV/vDDD6u8vFz5+fk6cOCACgsLNWPGDI/reorbUvsNAAC0bqYVM1JSUswKDQBAm3DkyBFJUpcuXZrsc/jwYX344YeaM2eOwsLCFBsbq2eeeUYrV65s0G/u3Lmy2WwKDQ3VhAkTLvgWld/85jeKjIxUp06dXMteeukl/du//ZtCQ0P1yCOP6IcfftDLL7/cYNlf//rXRuOFhoaqffv2+uqrr1RRUaHIyEjXbS6lpaXatGmTXnrpJUVGRioiIkLTpk1TVlaWx3XdtfljvwGANzg3Ci7Mt2+YVsyw2+1mhQYAoE2IiYmR9K+iRmPqrqTo3r27a1mPHj1UXFzcoF/9gkinTp1UW1ur2tpar3NJTEw8b1n9mB07dmx0WVPbiY+P17p167RhwwYlJibKbrdrx44dkv71DI/k5GTZbDbZbDalpaWpsrJSZ86ccbuuu7b6fLXfAMAbnBsFF+bbN7jNBAAAP0lISFDfvn21Zs2aJvvExcVJkgoKClzLCgoKFBsba3p+zZWamqrt27ertLRUQ4cO1fDhwyX9a0x79+6V0+mU0+lURUWFqqur1a5dO7fremqrE8j7DQAAeEYxAwAAP1q4cKHmzp2r1157TceOHZMkFRYW6plnntG2bdsUFxenwYMH69lnn1VVVZVKSko0d+5cjR492s+Zu5efn6/s7GydPHlSHTp0UHh4uOtZHLGxsRo2bJimT5+usrIySWevpMjOzva4rru2+gJ1vwEAAO9QzAAAwI8GDRqk7du3689//rMuu+wyhYeH65ZbblFlZaX69+8vSVq1apVqa2sVFxenpKQk2e12zZ4928+Zu3fq1CllZGQoJiZG4eHhWr16tdauXetqz8zMVFhYmK666ipFRERo4MCBrjeJuFvXU9z6AnG/AQAA71gMwzDMCJyTk8O9Qggar776qp566iktWLBAkydP9nc6pomPj1dRUVGL9QNaGzM+406nU1u3btXtt9/OLQ5otkD8PRwsx0jAHc6Nggvz7RumXZnhcDjMCg0AQKu3a9cujR8/XikpKerVqxeFDAAIYpwbBRfm2zdC/J0AAABthdPp1Nq1a/Xmm2+qqKhIISEhWrt2La9oAwAAaGEUMwAAaKZdu3ZpyZIl+vDDD2WxWFRTUyOr1ap33nmHQgYAAIAJKGYAAHAR6l+FUfda0TNnzkgShQwAAACTmVbM4A84AEBblpyc7HqV6rmqqqqUmprq44wAAK0V50bBhfn2DdOKGTy9FQDQlu3atUvr1q1rcGXG6dOnJXFlBswTHx/v7xQAXATOjYIL8+0bpr3NBACAtsxms+nRRx9Vbm6uVq1apZ/+9KcKDQ1Vp06dVFVVpQcffJCnmQMAAJiEYgYAAM2UnJys5cuX68svv9SMGTOUkJCg6upq3X///RQ0AAAATEAxAwCAFlL/ao0tW7ZoyJAhGjduHAUNAACAFmZaMSMnJ8es0AAAtHp1V2s4HA7t379fxcXF/k4JAOAnnBsFF+bbN0wrZvC/UAAAnL1aY9SoUYqNjfV3KgAAP+HcKLgw377BbSYAAAAAACCgUMwAAAAAAAABhWIGAAAAAAAIKKYVM1JSUswKDQAAAAABg3Oj4MJ8+4ZpxQy73W5WaAAAAAAIGJwbBRfm2ze4zQQAAAAAAAQUihkAAAAAACCgUMwAAAAAAAABxbRiRk5OjlmhAcBUu3fvVnh4uE6cOOHvVJotNzdXFotFNTU1Htu9HbenmM3Js7a2tsViAgDQWnBuFFyYb98wrZjhcDjMCg0giDgcDt18882yWq2KiorStddeq82bN5u6zeuvv16VlZUKDQ01dTsXyowiQn2tddwAAAQ6zo2CC/PtG9xmAqDVOn78uO68804NGzZM5eXlKi8v1/LlyxUdHe3v1AAAAAD4EcUMAK3Wd999J6fTqQkTJig0NFTt2rVT//79NWDAAFefY8eOady4cYqOjpbNZtPYsWNVVVXlap8/f74SExNltVqVkJCgefPmeWw79wqIkpISpaamKjIyUjExMUpPT9fJkycb9N24caOSkpJktVp1ww03aM+ePU2O62JyrqiocI07JiZG4eHhWrx4sSTpjTfeUFJSkiIiImSz2ZSamqrDhw832OaqVavUs2dPRUREaOzYsY1e3XHuuN3tO0naunVrk2P2NMZDhw5pyJAhCgsLU79+/fgfDAAAAFwQihkAWq3evXurc+fOeuihh/Tuu++qqKjovD4PP/ywysvLlZ+frwMHDqiwsFAzZsyQJH3//feaOnWqVq5cqaqqKu3bt09Dhgzx2HaukSNHSpKKioqUl5ennTt3aubMmQ36bNq0SQ6HQ+Xl5erTp48effTRJsd1MTlHRUVp586dkqTS0lJVVlZq4sSJkqTExES99957OnbsmP75z3/q6NGj521/27ZtysvL0zfffKPdu3crIyPD7b73Zv+4G7O7MUrS6NGjFRERoZKSEmVnZyszM9NtPgAAAEB9phUzUlJSzAoNIEhYrVZ98sknio2N1ZQpU9S1a1fdeOON2rt3r6SzJ/WbNm3SSy+9pMjISEVERGjatGnKysqSJIWGhqp9+/b66quvVFFRocjISF1zzTUe2+o7fPiwPvzwQ82ZM0dhYWGKjY3VM888o5UrVzboN3fuXNlsNoWGhmrChAnKzc1tdEzNybkpd911ly6//HJJUpcuXfRf//Vfys7ObtDn+eefV1hYmOLi4vTMM89o1apVbmN6k0dTY/Y0xsOHD+svf/lLg306ffp0t/kAABDIODcKLsy3b5hWzLDb7WaFBhBErrzySi1btkz5+fkqLCxU165dlZaWJkk6ePCgDMNQcnKybDabbDab0tLSVFlZqTNnzig+Pl7r1q3Thg0blJiYKLvdrh07dkiS27b66m7X6N69u2tZjx49VFxc3KBfly5dXF936tRJtbW1jb6Zozk5N2XTpk266aabdOmllyoqKkrDhg1TdXW1Tp8+7erjKf9zeZNHU2P2NMbG9mm3bt3c5gMAQCDj3Ci4MN++wW0mAAJGQkKCpk6dqry8PElSXFycJGnv3r1yOp1yOp2qqKhQdXW12rU7++stNTVV27dvV2lpqYYOHarhw4e74rlrq1O3jYKCAteygoICxcbGXtQYmpOzxWI5L15RUZHuu+8+TZkyRUVFRaqoqNC7774rSTIMo0HO9b+uX4hoijf752LG2Ng+PXDggFexAQAAAIliBoBW7IcfftC8efNUWFgoSaqoqNDSpUvVv39/SVJsbKyGDRum6dOnq6ysTNLZKynqbrHIz89Xdna2Tp48qQ4dOig8PFzt27f32FZfXFycBg8erGeffVZVVVUqKSnR3LlzNXr06IsaU3NyrnuLy/79+13x6q7AqLvdo6CgQP/93/993naff/55HT9+3JV/3XNAmuLt/rmYMcbFxWnQoEEN9um5DxcFAAAA3KGYAcCvnE6nVq1a1ehtD1arVZ999pmSk5MVFhamyy67TEePHtWaNWtcfTIzMxUWFqarrrpKERERGjhwoOutGqdOnVJGRobr7R+rV6/W2rVrPbada9WqVaqtrVVcXJySkpJkt9s1e/bsix7zxebcs2dPTZw4UXa7XTabTa+//rp69eqlF198UWPGjFFERISGDx/uug2nviFDhqhPnz7q1auX+vbtq9/85jduc7yQ/XOhY6xrLy8vV+fOnXXbbbdp1KhRXscGAAAALEb965BbUE5ODvcKIWi8+uqreuqpp7RgwQJNnjzZ3+mYJj4+vtE3ilxMv127dun3v/+9duzYoRUrVvCgJLQKLfkZB8wQiJ/RYDlGAu5wbhRcmG/fMO3KDIfDYVZoAAHK6XRq6dKluummm3Tvvffqvffe07JlyyhkAACANo1zo+DCfPtGiL8TAND21V2FsW3bNnXq1EllZWXq2LGj3nnnHd18883+Tg8AAABAgKGYAcAUTqdT69ev1/Lly1VRUaGamhrV1NSourqaQgYAAACAZqGYAcAUycnJOnbsWKNtNTU1Xr/mE/C1+Ph4f6cAAAAAD0wrZnAPPBDcdu3apczMTC1btkwVFRU6ceKEJKldu3ayWq16++23+T2BgMBDvAAAzcXfPMGF+fYN0x4Ayh9+QHCz2WxKT0/X3/72N61bt06DBg1Shw4dZLFYdPz4cY0ZM4aHIyEgcDwDADQXx5Lgwnz7hmnFDACok5ycrKysLP3973/Xf/7nf6pz5846fvy40tLSKGgAAAAAuGAUMwD4TP2rNbZs2aKbb75Z48aNo6ABAAAA4IJQzADgF8nJyVq9erUcDof279+v4uJif6cEAAAAIECYVszIyckxKzSANsRms2nUqFGKjY31dypAozieAQCai2NJcGG+fcO0YgaXjQMA2gKOZwCA5uJYElyYb9/gNhMAAAAAABBQKGYALejJJ5/U888/L0l6/vnnZbFY2tT3hw8fblX58D3f8z3f833r/329bds2AQDQ0iyGYRhmBJ43b56mTZtmRmig1Xn11Vf11FNPacGCBZo8ebK/0zFNfHy8ioqKWqwfEAg4nqE1CcTfw8FyjATc4VgSXJhv3zDtyoyUlBSzQgMA4DMczwAAzcWxJLgw375hWjHDbrebFRoIKBaLxfUvIyNDkvTll1/KbrcrNDRUVqtVSUlJWrdunc9yMXsbhw8flsViUceOHZWcnHxBD0Fq6RxnzZqlWbNmNTtO/bxmzZrVYF7RtnE8AwA0F8eS4MJ8+0aIvxMAgkVWVpb69OkjSXrwwQeVl5enGTNmKCkpSbt371Z5eblPcvCVrKwsffrpp1q0aJEeeugh/fOf//R6vZZUd892SxQ06gwfPlxXX321HnjggRaLCQAAAMB7PAAU8JG0tDT169dPkvT1119Lku68806NHj1a8+fP12OPPebqW1VVpSlTpqhr167q0KGDevfurddff93VvmTJEvXo0UMhISGKiopqUP111/bAAw80OAGvqanR9OnTlZiYqA4dOighIUFTp05VdXW1q0/d1QczZ85UcXGxunTpos2bN3s13t/+9reSpIKCAq/Hdm6OnvqfOHFCM2bMUPfu3RUSEqIuXbrorbfecuV+7ji8jfvtt9/q2muvVXh4uJ577rkGY+vbt6/S0tI87gMAAAAA5qCYAfjBwIEDJUkDBgxQTEyMRo4cqfz8fFf7pEmTtGDBAt1444367W9/q+uuu04TJ07Upk2bJEnTpk1Tx44dtXz5cs2ZM0eXXXaZa113bedKT0/XK6+8or59++qNN95Qv379NH/+fE2aNOm8vnl5eQoLC9ORI0c0depUj2MsLS3VH/7wB0nSLbfc4vXYzuWpf3p6ul566SXFx8frjTfe0NNPP61LLrlEUsOrPLKyshp8703cv//97xo5cqQOHjzocbwAAAAAfMgwyaeffmpWaKDVmT9/viHJWLBgwXltkoxzf9TKy8uNjIwM48c//rHRrl07Q5Jx3XXXudojIiJc69X/N378eMMwDOMnP/mJERERYaSlpRmzZs0yHA6Ha113befmEhkZaUgySkpKDMMwjJKSEkOSERkZed46R44cMeLi4gxJhsViaXJfnJtzQkKCUVhY6PXYzs3RU/+6MdTfhqf9701cq9VqSDKOHj1qVFRUNBqnqdhoWzieoTWJi4tr0X6+4O4YCQQLjiXBhfn2DdOemeFwOHjwCdAEq9Wq2bNna/bs2dq7d6/69OmjvLw8V3vd7RCLFi3SVVdd5VoeGxsrSfrggw+0adMm5eXl6Z133tGsWbO0ZcsW3XPPPW7bmuLNQyxjYmJcXxtevNF527ZtWrFihdauXatnnnlGK1eu9GpsTeXmbX9veRvXMAyvxou2i+MZAKC5OJYEF+bbN7jNBPCDyy+/XDNmzNDbb7+t5cuXSzr7HIY6999/vyRp2bJlys/P1/fff681a9Zo8eLFkqQnnnhCNTU1uu6665SQkCBJ2r9/v8e2c913332SpNGjR2vFihV66KGHJEkjRoxo9hiHDh2qt956SwkJCXr77bf12WefeTW2c3nqXzeG1NRULVu2TAsWLGhwO0lkZKSks0WLP/3pT17HHTBggCTp17/+Ne8JBwAAAFoZ3mYC+MGtt96qdevWqbCwUCEhIRowYIAWLVrkal+4cKFiYmKUlZWliRMnqlOnTvrRj36k9PR0SWefRzFz5kyVlZUpMjJS999/v8aNG+ex7VwLFy5UVFSUsrKy9MEHH6hLly6aMmWKXnjhhRYZZ8eOHfXss8/q8ccf19NPP63t27e7HVvdFRD1rxTxtC8WLlwom82mNWvW6PHHH9ell17qevCoJGVkZGjOnDlKT09Xnz59dMcdd3gdNzU1VatWrdKvfvWrFtkfAAAAAFqGxTDp+ul58+bxv5kIGq+++qqeeuopLViwQJMnT27QVndifuTIEVmtVlmtVn+k2CLi4+NVVFTUYv3qKygo0B//+Ec9/vjjuvzyy/Xtt99ebJqmq6qqUlVVlTp37izJu9tuELg4nqE1MfP3sFncHSOBYMGxJLgw375h2m0mKSkpZoUGAlLnzp1b7IqHtmjFihV64okndMUVV+jNN9/0dzpuvfzyy65CBto+jmcAgObiWBJcmG/fMO02Ex54Apz1wQcfuL5295rUYDdr1izNmjXL32l4ZcyYMQ1eN4u2jeMZAKC5OJYEF+bbN3hmBmCy22+/3d8poIX16tVLvXr18ncaAAAAQNDibSYAAAAAACCgUMwAAAAAAAABxbRiRk5OjlmhAQDwGY5nAIDm4lgSXJhv3zCtmOFwOMwKDQCAz3A8AwA0F8eS4MJ8+wa3mQAAAAAAgIBCMQMAgACxe/duhYeH68SJE/5OxRRtfXwAAKDlUMwAAMAHcnNzZbFYFB4ervDwcEVFRWno0KHKy8vzOsb111+vyspKhYaGtkguNTU1zYrT0lpqfAAAoO0zrZiRkpJiVmgAAHympY9npaWlqqysVEFBgRITE/XAAw+0aHwAQOvDuVFwYb59w7Riht1uNys0AAA+Y9bxLCoqSuPHj9fevXsbLD927JjGjRun6Oho2Ww2jR07VlVVVZLOv6LCXV9Jqqys1BNPPKHY2FiFh4erT58++uSTTzRgwABJUkxMjMLDw7V48eJGc5w/f74SExNltVqVkJCgefPmeZWnp3Wbajt3fCUlJUpNTVVkZKRiYmKUnp6ukydPNui7ceNGJSUlyWq16oYbbtCePXsubkIAwEScGwUX5ts3uM0EAAA/KCsr05tvvqkbb7yxwfKHH35Y5eXlys/P14EDB1RYWKgZM2Y0GsNT3zFjxigvL09ffPGFKisr9e6776pHjx7auXOnpH9dJTJx4sTzYn///feaOnWqVq5cqaqqKu3bt09Dhgzxatvu1vUUt76RI0dKkoqKipSXl6edO3dq5syZDfps2rRJDodD5eXl6tOnjx599FG3+x0AALQNFDMAAPChuLg4RUREKDo6Wh999JHWr1/vaistLdWmTZv00ksvKTIyUhEREZo2bZqysrLOi+Op75EjR7R582YtXLhQiYmJkqTevXurW7duXuUZGhqq9u3b66uvvlJFRYUiIyN1zTXXeLVtd+u6a6vv8OHD+vDDDzVnzhyFhYUpNjZWzzzzjFauXNmg39y5c2Wz2RQaGqoJEyYoNzfXq/EBAIDARjEDAAAfOnz4sI4eParPPvtMlZWVWrJkiavt4MGDMgxDycnJstlsstlsSktLU2Vlpc6cOdMgjqe+hw4dknS2gHEx4uPjtW7dOm3YsEGJiYmy2+3asWOHV9t2t667tnP3kyR1797dtaxHjx4qLi5u0K9Lly6urzt16qTa2lrV1tZe1JgBAEDgMK2YkZOTY1ZoAAB8xozjmcVi0Y033qgXX3xRL7/8soqKiiSdvWpDkvbu3Sun0ymn06mKigpVV1erXbuGh2xPfbt27SpJ+u677xrdvjdSU1O1fft2lZaWaujQoRo+fLjXeTa1rqe2c8dXUFDgWlZQUKDY2FivcgeA1oRzo+DCfPuGacUMh8NhVmgAAHzGzOOm1/yKAAAgAElEQVTZ2LFj1a1bN73yyiuSpNjYWA0bNkzTp09XWVmZpLNXKGRnZ5+3rqe+nTt3Vmpqqp588knXVRrffvutDhw4oOjoaEnS/v37m8wtPz9f2dnZOnnypDp06KDw8HC1b9/eq227W9ddW31xcXEaPHiwnn32WVVVVamkpERz587V6NGjL3AvA4D/cW4UXJhv3+A2EwAA/CQkJESzZs3SkiVLVFpaKknKzMxUWFiYrrrqKkVERGjgwIFNvqHDU9+33npLV1xxha699lpFRETonnvuUVlZmXr27KmJEyfKbrfLZrPp9ddfPy/2qVOnlJGR4XrjyerVq7V27Vqvtu1uXU9x61u1apVqa2sVFxenpKQk2e12zZ49++J2NgAAaFNC/J0AAABthdPp1NatW3X77befdztE//79ZRjGeeuMHDnS9dYOSYqMjNSbb76pN99887y+devXXcngrq8kRURENNn+2muv6bXXXmtyLFdeeaU+++yzJtvdbdvduu7azt1HcXFx2rJli1d9m1oGAADaJq7MAACgmXbt2qVHH31UKSkp6tWrl2nPdfjyyy+VkJCgDh06mBIfAAAgUJh2ZUZKSopZoQEA8JmmjmdOp1Pr16/X0qVLVVhYqJCQEK1du9a0499DDz2kbdu26Xe/+50p8QEA5uHcKLgw375hWjHDbrebFRoAAJ8593i2a9cuLVu2TB988IE6dOigY8eOqVOnTlq1apWpf7ysXLnStNgAAHNxbhRcmG/f4JkZAAB4UP8qjIqKClVVVam2tlY1NTU+KWQAAACgIYoZAAC4sX37dj366KOqrKxstL26ulqpqak+zgoAACC4UcwAAMCNW2+9VZ9//rmysrL05ptvqqKiQtXV1a72sLAwZWZmcmUGfCI+Pt7fKQAA0CqY9jaTnJwcs0IDAOAzOTk5stlseuKJJ7R7926tWbNGQ4YM0SWXXKIOHTro+PHjGj16tBwOh79TBQC0UpwbBRfm2zdMK2bwRx0AoC0493iWnJyst99+W3/729/09NNPKy4uTlVVVUpLS+PYBwBoFMeH4MJ8+4ZpxQwAANqy+ldrbNmyRQMHDtS4ceP4AwYAAMAHKGYAANBMdVdrOBwO7d+/X8XFxf5OCQAAoE3jAaAAALQQm82mUaNG+TsNAACANs+0KzN4qjsAoC3geAYAaC6OJcGF+fYN04oZdrvdrNAAAPgMxzMAQHNxLAkuzLdv8MwMAAAAAAAQUChmAAAAAACAgEIxAwAAAAAABBTTihk5OTlmhQYAwGc4ngEAmotjSXBhvn3DtGKGw+EwKzQAAD7D8QwA0FwcS4IL8+0b3GYCAAAAAAACCsUMAAErNzdXFotFNTU1/k4FAAAAgA9RzADQqjkcDt18882yWq2KiorStddeq82bN/s7LQAAAAB+ZFoxIyUlxazQAILE8ePHdeedd2rYsGEqLy9XeXm5li9frujoaH+ndsFOnjzp1bKLiQNzcTwDADQXx5Lgwnz7hmnFDLvdblZoAEHiu+++k9Pp1IQJExQaGqp27dqpf//+GjBgQIN+W7duVVJSkqxWq2644Qbt2bPH1VZSUqLU1FT9P/buPyzKOt//+GsAQ4GB2cAAxR+Z2uVR9NpEOlCXuirubqW5HC3LxUUq2/Wqs62uezi71jdLs9rY9jqWpa0d3cnyR/7a1q7TLukuGlNKpzYCtyxNUfkhySAICgP39w8v5oACM/yYGQaej+uaK7o/9/35vD/3Pc6HefO5P3d4eLiioqL06KOPOhMCu3bt0ujRo537PvHEEzKZTDp+/Lgk6fDhw4qIiJDD4Wg1vqqqKmVkZCgyMlIWi0Xp6emqqamR9H+3wFitVo0ePVpms1kfffTRNdscDke7MbZWT1vxwDMYzwAAXcVY0rdwvb2D20wA9FgjR47UwIED9ZOf/ER79+5VcXFxq/vt2rVLNptNFRUVGjt2rBYvXuwsu//++yVJxcXFKigoUE5Ojp544glJ0rRp03T8+HGdOnVKkvTXv/5Vo0aNUnZ2tvP/p0yZoqCgoFbbXbRokSoqKnTixAkVFRXp9OnTyszMbLHPvn37lJeXJ7vdrsDAwGu2BQUFtRtja/W0FQ8AAADQV5DMANBjhYSE6NChQ4qOjtZjjz2mQYMG6dZbb1VhYWGL/dasWSOLxaLg4GA99NBDysvLkySVlJTo/fff1+rVqxUaGqro6Gj9+te/1ubNmyVJFotFt9xyi7Kzs3XhwgUdPXpUmZmZ+utf/ypJys7O1owZM1qNrby8XLt27dJzzz2n8PBwmc1mLVu2TG+99VaL/VatWqXw8HANGDCg1W2uYmyvHgAAAKCvIpkBoEcbPXq0/vCHP+jEiRM6ffq0Bg0apPnz57fY54YbbnD+PGDAADkcDjkcDpWUlEiShg4d6iwfNmyYSktLnf8/Y8YMZWdn68CBA0pKStIdd9yh/fv3q7q6Wjabrc1kxpkzZ2QYhhITE2WxWGSxWDR//nxVV1ersbHRuV9cXNw1xzbf5k6MbdUDAAAA9FUeS2bk5uZ6qmoAfdTgwYO1dOlSFRQUuLV/TEyMJDlvI2n6OTo62vn/M2bM0P79+/XXv/5VKSkpiomJ0aBBg/T73/9ekZGR+pd/+Zd26y4sLJTdbpfdbldlZaVqa2sVEOD+R6s7McK3GM8AAF3FWNK3cL29w2PJDJvN5qmqAfQRJ0+eVFZWlk6fPi1Jqqys1GuvvaaEhAS3jo+JidG0adP0+OOPq6amRmVlZVqzZo3S0tKc+9x22226cOGCrFarcxbGjBkz9Nvf/lbTp09vs+7o6GjNnj1by5cv1/nz5yVdmWXRtN6Gu9yJEb7FeAYA6CrGkr6F6+0d3GYCwKfsdru2bNlyzW0V0pU1Mz788EMlJiYqNDRUN954oy5cuKCtW7e6Xf+WLVvkcDgUExOjMWPGKDk5WU8//bSzPDg4WLfffrv69++v+Ph4SVJKSoouXLjQ5i0mTaxWq0JDQ3XzzTfLbDZrypQpLZ6k0l0xAgAAAGiJJfEB+MThw4e1efNm7d+/X6+//nqrt1UMHDhQO3bsaLOOhIQEGYbR7raYmBjt2bOn3Vj+8pe/tPj/O+6445p6WxMeHq4NGzZow4YNnYrNnRjbOgYAAADoy0hmAPAau92uHTt2aNOmTfrmm28UEBCgt956S0lJSb4ODQAAAIAf8Vgygy8nAJo0zcL4n//5H0VERKi0tFRBQUHasmWLbr/9dl+HB7SL8QwA0FWMJX0L19s7PJbMSE5O9lTVAPxA81kYlZWVqq+vV01NjWpqanTdddeRyIDfYDwDAHQVY0nfwvX2Dm4zAeARkyZNUnV1tUwm0zVrPtTV1WnevHk+igzomOLiYl+HAAAAgKuQzADgEUeOHNHrr7+u119/XZWVlXI4HJKkoKAghYSEaNOmTUzBAwAAANApPJoVgEdYLBYtXbpUn3/+uXbs2KHk5GQFBQWpoaFBFy9eVHp6Os/gBgAAANApHktm5ObmeqpqAH7mX//1X7Vz507l5+frl7/8pSwWi6qqqnTfffeR0ECPx3gGAOgqxpK+hevtHR5LZvAFBcDVms/W2LVrlyZNmqSMjAw+L9Cj8f4EAHQVY0nfwvX2Dm4zAeAT//qv/6odO3bIZrPp+PHjKi0t9XVIAAAAAPwEC4AC8CmLxaIFCxb4OgwAAAAAfoRkBtCNDhw4oMbGRl+H4TF1dXX629/+5tZ+v//97z0fEOAFH3zwgQIDA30dBiDJPz+H//73v/s6BABAL+SxZAaPXERftGfPHu3Zs8fXYXjU9773Pbf2+8UvfuHhSADv2b17t69DAJz4HAb8D9+N+haut3eYDMMwfB0E4O+Kior6xJedlStXateuXS73S01N1f/7f//PCxEBQN/iz5/DP/rRjzRkyBBfhwEA6CVIZgBwW2xsrIqLi7ttPwBAx/A5DADAFTzNBAAAAAAA+BWSGQAAAAAAwK94LJmRm5vrqaoBAPAaxjMAQFcxlvQtXG/v8Fgyw2azeapqAAC8hvEMANBVjCV9C9fbO7jNBAAAAAAA+BWSGQAAAAAAwK+QzAAAAAAAAH7FY8mMpKQkT1UNAIDXMJ4BALqKsaRv4Xp7h8kwDMPXQQDwD7GxsSouLu62/QAAHcPnMAAAV3CbCQAAAAAA8CskMwAAAAAAgF8hmQF0o7y8PJlMJl26dMnXoQAAAABAr+WxZEZubm675U1f+sLCwhQWFqaIiAjNnDlTBQUFngqpW7nzpbU3f7HtCX0bOXKkPvrooxbbmt5PYWFhCgkJafEeCwsL81Gk7mnvnF7976XpNWvWrGvKw8PD9Z3vfEff/e53lZmZqdLSUm93BehVXI1nAAC4wljSt3C9vcNjyQybzebWfuXl5aqurtapU6cUFxen++67z1MhwU11dXU9vp38/HzV1tYqMTGxxfbq6mrnKycnR5Jkt9ud2/xd07+Xptc777xzTfmFCxdUXl6uTZs2qbi4WOPHj9fx48d9FDHg/9wdzwAAaAtjSd/C9faOHnObSUREhB544AEVFha22F5VVaWMjAxFRkbKYrEoPT1dNTU1zvKzZ88qJSVFoaGhio+P19q1a2UymeRwOFr9S3fTNofD4Vb9L774ouLi4hQSEqLBgwcrKytLlZWVmjx5siQpKipKYWFhWrduXYu429unvTab4nv77bc1duxYhYaGKiEhQfn5+dq7d6/i4+MVEhKiW265xTmLpemYjRs3avjw4TKbzUpPT2/Rb3fatFqtGj16tMxmsxwOh1599VWNGTNGZrNZFotFqampKikpabNvrs53W+24ugat2bNnj+6++26ZTKZ292tNWVmZUlNTFR4erqioKD366KMtEiunT5/W9OnTW31PuVPeXGf61h0CAwM1YcIEbd68Wbfffrt+85vfeLxNAAAAAPCWHpPMOH/+vDZs2KBbb721xfZFixapoqJCJ06cUFFRkU6fPq3MzExneVpamsxms8rKypSdnS2r1dqhdtur/5tvvtHSpUu1efNm1dTU6OjRo0pJSVFERITzr/5NfylfsmRJi3rb28dVnyRp586dOnTokM6fP69x48Zp1qxZ2rFjh3JyclRRUaHx48fr4YcfbnHMe++9p4KCAh07dkyffPKJVqxY4fZ5lKR9+/YpLy9PdrtdQUFBiouL05///GdVVVXpyy+/1IULF7R48WK3+t+eq9txJ7ar7d69W3PmzHG7zebuv/9+SVJxcbEKCgqUk5OjJ554wln+4x//WFFRUTp37pzef/99vfnmmy2Od1XeXGf61t3S0tKUnZ3t1TYBAAAAwKMMD3nhhRfaLT9y5IghyYiIiDDCwsIMScawYcOMM2fOOPc5d+6cYTKZjC+++MK57d133zWioqIMwzCM4uJiQ5JRWFjoLN++fbshyaivr3e2UVtbe0279fX1Lus/e/asERgYaLz00kuG3W5vNf7mdbfVx+b7uGqz6ZiTJ086yw8ePGhIanFuDh48aAQFBbU4pvl52Lp1qxETE9OhNo8dO9ZmXwzDMPbv328MGDCgzb65Ot+tteMqttacPHnSsFgsRl1dXbvxNm+7SWvvmebnqqm8eTw7duxw1uOqvPk56Gjf2ntPNf/30vy1YsUKl8fm5uYaAQEB7Z4rdzWdp+7aD/AHrsYzwJv4HAb8E2NJ38L19o4gTyVJkpKS3NqvpKREwcHBOnz4sO68806tX79eK1eulCSdOXNGhmG0WBfBMAzV1dWpsbFRJSUlkqShQ4c6y4cMGeJ2jK7qj42N1fbt27V27VplZmYqPj5ezzzzjKZOnep2Gx1ts8kNN9zg/Ll///6tbnM4HC1ubWh+HoYNG+Zc+NHdNuPi4lrEumvXLj3//PP68ssv1dDQoMbGRtXW1qqhoaHT/b+6HVexBQRcO3loz549uuOOO9SvX78Ot93ae6b5uWoqHzx4sLO8+XvKVXlznembO/E3vR/cVVpaquuvv77DbQG4wt3xDACAtjCW9C1cb+/w2G0mycnJbu9rMpl066236tlnn9Xzzz+v4uJiSVJMTIwkqbCwUHa7XXa7XZWVlaqtrVVAQICz/NSpU866ioqKnD8HBwdLUouFH5s/2cFV/ZKUmpqqAwcOqLy8XDNnztTcuXOdMbvTr6u502ZnNT8Pp06dciY/OtNmcXGx7rnnHj322GMqLi5WZWWl9u7dK+nKF/LW+ubqfLemM7F15RaT1t4zp06dUnR0tCQ5/3vmzBln+enTp50/uypvrS1PXOuOeOONN5SSkuK19oDepiPjGQAArWEs6Vu43t7RY9bMkKT09HQNGTJEL7zwgqQrXxxnz56t5cuX6/z585Ku/GW66f7/mJgYTZ06VY8//rhqampUVlamrKwsZ32jRo1SRESE1q1bp4aGBhUVFWn16tXOclf1nzhxQtnZ2aqrq1O/fv0UFhamwMBASVJkZKQktfuUiNb2cdVmV6xcuVIXL15UWVmZ1qxZ41wbojNtNs3AsFgsCg4O1qlTp/TUU0+12zdX57s1HY3t22+/1ZEjR/TDH/7QjTNyrZiYGE2bNq3Fe2bNmjVKS0uTJMXGxmry5Ml68sknVVtbq/Ly8hbvKVflXelbk8uXL+vSpUvOV319fYf72djYqPz8fGVkZOjgwYN6+umnO1wHAAAAAPRUPSqZERQUpCeffFLr169XeXm5JMlqtSo0NFQ333yzzGazpkyZovz8fOcxVqtVFRUVGjhwoKZPn64FCxY4y/r37y+r1apNmzYpPDxc8+bNU0ZGRos226u/vr5eK1ascD6x480339S2bdskScOHD9eSJUuUnJwsi8WiV1555Zr+tLWPqz51VkpKisaOHasRI0Zo3LhxWrVqlVv9bM2IESP07LPPauHChTKbzZo7d67mz5/fbt/cOd+t6Uhs77zzjqZOnaqwsLAOnJmWtmzZIofDoZiYGI0ZM0bJycktvuxbrVYVFxcrKipK3/ve93TPPffIZDI5E1muyjvbtyYWi0UDBgxwvhYtWuQsa3ovNr0mTpzY4tioqCiFh4fr+uuvV1pamqKiovTZZ5/ppptuarFfaWmptmzZIrvd3uHzBwAAAAC+ZjIMw/B1EN0pLy9PkyZNUn19vYKCPLYkSI/S1Ofa2toOr6fgb+bMmaO77rpLDz74oNfa3Lp1q37xi184b3/qaHlPZbPZ9MADD2jatGlauHBhi7U92hIbG+tWP93dDwDQMXwOAwBwhcdmZuTm5nqqavRhycnJnV4vw11Hjx5VYWGhpCuP533mmWeca6W4U+4vkpKS9NJLL+lPf/qTfvSjH2ny5Ml67bXXmK0BXIXxDADQVYwlfQvX2zs8lsyw2Wyeqhp92K9+9StFRUV5tA273a677rpLoaGhuuWWW5SQkKBnn33W7XJ/Mm3aNG3atEmBgYEqKirSH//4RyUkJOiRRx7R4cOHfR0e0CMwngEAuoqxpG/hentHr7sPIyEhQb3szhmX+mKfPSkpKandhV1dlfubpoRGenq6vvrqK0nSkSNH9MEHH8hsNistLU3z5s2TxWLxcaQAAAAAcIXHkhkvvPCC86kkAPxL06Nr7Xa7nnjiCT3//PPasGGDj6MCAAAAgCs8lsz45S9/qWXLlnmqegDdyGazKSMjQ3V1daqpqZEkmUwmXXfddUpLS9PSpUuZmQEAAACgx/BYMiMpKclTVQPoRk2JjNraWl2+fFkBAQGKj4/Xf/zHf+h73/uer8MDfI7xDADQVYwlfQvX2zt63aNZAbjPZrPp/vvv1+XLl2U2m3Xvvfe2OwuDRwICgG/xOQwAwBW9bgFQAO5pmpExbtw4LV26lFkYAAAAAPwGyQygDyotLdXx48dls9lYCwMAAACA3yGZAfRB0dHRWrBgga/DAAAAAIBOCfBUxbm5uZ6qGgAAr2E8AwB0FWNJ38L19g6PJTNsNpunqgYAwGsYzwAAXcVY0rdwvb3DY8kMAAAAAAAATyCZAQAAAAAA/ArJDAAAAAAA4Fc8lsxISkryVNUAAHgN4xkAoKsYS/oWrrd3mAzDMHwdBAD/EBsbq+Li4m7bDwDQMXwOAwBwBbeZAAAAAAAAv0IyA0CfkJeXJ5PJJIfD4etQAAAAAHQRyQwAPmGz2XTbbbcpJCREERERmjBhgnbv3u3rsPxCU2Lm0qVLvg4FAAAA8AmPJTNyc3M9VTUAP3fx4kXdcccdmj17tioqKlRRUaGNGzcqMjLS16FJkurq6nwdAnoQxjMAQFcxlvQtXG/v8Fgyw2azeapqAH7u66+/lt1u10MPPaTg4GAFBAQoISFBkydPdu5TVVWljIwMRUZGymKxKD09XTU1NZL+b2bCzp07NWbMGIWEhGjixInKz893Hn/27FmlpKQoNDRU8fHx7X4mNdVntVo1evRomc1mORyOdmNorY21a9c6b2VpbfbE1be6uKr/xRdfVFxcnEJCQjR48GBlZWWpsrLSeZ6ioqIUFhamdevWdfGKoD2MZwCArmIs6Vu43t7BbSYAvG7kyJEaOHCgfvKTn2jv3r2trri/aNEiVVRU6MSJEyoqKtLp06eVmZnZYp9du3bJZrOpoqJCY8eO1eLFi51laWlpMpvNKisrU3Z2tqxWq8u49u3bp7y8PNntdgUFBbmMoTNtuNvHb775RkuXLtXmzZtVU1Ojo0ePKiUlRREREcrJyZEklZeXq7q6WkuWLOlQuwAAAIC/I5kBwOtCQkJ06NAhRUdH67HHHtOgQYN06623qrCwUNKVL+m7du3Sc889p/DwcJnNZi1btkxvvfVWi3rWrFkji8Wi4OBgPfTQQ8rLy5MklZSUaP/+/Vq9erVCQ0MVHR2t5cuXu4xr1apVCg8P14ABA1zG0Nk2mriqPzg4WIGBgfrnP/+pyspKhYeHa/z48W7XDwAAAPRmQb4OAEDfNHr0aP3hD3+QJJ05c0aPPPKI5s+fr88++0xnzpyRYRhKTEx07m8Yhurq6tTY2OjcdsMNNzh/HjBggBwOhxwOh0pKSiRJQ4cOdZYPGTLEZUxxcXHOn13F0Nk23K0/NjZW27dv19q1a5WZman4+Hg988wzmjp1qtttAAAAAL2Vx2ZmJCUleapqAL3M4MGDtXTpUhUUFEiSYmJiJEmFhYWy2+2y2+2qrKxUbW2tAgJcf2w1HX/q1CnntqKiog7F5CoGV20EBwdLkqqrq53bSktL3a5fklJTU3XgwAGVl5dr5syZmjt3riTJZDJ1qC/oGsYzAEBXMZb0LVxv7/BYMiM5OdlTVQPwcydPnlRWVpZOnz4tSaqsrNRrr72mhIQESVJ0dLRmz56t5cuX6/z585Ku3NaRnZ3tVv0xMTGaOnWqHn/8cdXU1KisrExZWVkditFVDK7aGDVqlCIiIrRu3To1NDSoqKhIq1evdrv+EydOKDs7W3V1derXr5/CwsIUGBgoSc6nvhw/frxDfULnMJ4BALqKsaRv4Xp7B2tmAPC6kJAQffjhh0pMTFRoaKhuvPFGXbhwQVu3bnXuY7VaFRoaqptvvllms1lTpkxp8bQSV6xWqyoqKjRw4EBNnz5dCxYs6HCcrmJor43+/fvLarVq06ZNCg8P17x585SRkeF2/fX19VqxYoXziSVvvvmmtm3bJkkaPny4lixZouTkZFksFr3yyisd7ltfVFpaqi1btshut/s6FAAAAHSRyTAMw9dBAPAPsbGxrT55pLP79TZ5eXmaNGmS6uvrFRTEkkQ9kc1m0wMPPKBp06Zp4cKFLdYsAfwBn8MAAFzBzAwAQJ+RlJSk3//+9/rTn/6kH/3oR5oyZYpee+01ZmsAAAD4GY8lM3Jzcz1VNQAAnTZz5ky98sorMplMOn/+vHbu3KnExEQ98sgjOnz48DX7M54BALqKsaRv4Xp7h8eSGTabzVNVA0CPlJCQIMMwuMXED9x5551av369Kioq9I9//EN1dXX66quv9Mgjj1wzW4PxDADQVYwlfQvX2zv4jRuAR8TGxvo6BMBtly9f1j/+8Q9JUlRUlJ544gn99re/1fr1630cGQAAAFpDMgOAR7DwHHq6psVAm243aXLx4kXNnTtXK1asUHR0tP73f//Xh1ECAACgNSQzAAB9TlMiw+FwqKqqSiaTSTfddJN+8YtfKDU11dfhAQAAwAWPJTOSkpI8VTUAAJ1ms9m0YMECXbp0Sf37928xC6M1jGcAgK5iLOlbuN7eYTIMw/B1EAD8Q2xsrFu3j7i7H+BtNptNGRkZGjJkiH76058yCwN+h89hAACu4DYTAECfUFpaquPHj8tms8lisfg6HAAAAHQByQwAQJ8QHR2tBQsW+DoMAAAAdIMAXwcAAAAAAADQER5LZuTm5nqqagAAvIbxDADQVYwlfQvX2zs8lsyw2WyeqhoAAK9hPAMAdBVjSd/C9fYObjMBAAAAAAB+hWQGAAAAAADwKyQzAAAAAACAX/FYMiMpKclTVQMA4DWMZwCArmIs6Vu43t5hMgzD8HUQAPxDbGysiouLu20/AEDH8DkMAMAV3GYCAAAAAAD8CskMAAC6IC8vTyaTSWFhYS1es2bN8nVorWqK99KlS74Opdv0xj4BAID2Bfk6AAAAeoPy8nL179/fo23U1dXpuuuu82gbPaldAACAtnhsZkZubq6nqgYAwGu6Op41zRrYuXOnxowZo5CQEE2cOFH5+fnOfaqrq/Wzn/1M0dHRCgsL09ixY/Xpp586j7VarRo9erTMZrNefvllTZgwoUUbX3/9tYKCgnTy5EnnMRs3btTw4cNlNpuVnp6uS5cuqbKyUpMnT5YkRUVFKSwsTOvWrWsz5ubtOhwOVVVVKSMjQ5GRkbJYLEpPT1dNTY3zuLNnzyolJUWhoaGKj4/X2rVrZTKZ5HA4Wp090bTN4XBIksv6X3zxRcXFxSkkJESDBw9WVlaW230CAF/iu1HfwvX2Do8lM2w2m6eqBgDAa7prPOLwM9wAACAASURBVNu1a5dsNpsqKio0duxYLV682Fm2cOFCFRQU6OOPP1Z1dbX27t2ryMhIZ/m+ffuUl5cnu92utLQ0ff311zpy5IizfOPGjZoxY4aGDRvm3Pbee++poKBAx44d0yeffKIVK1YoIiJCOTk5kq7MJKmurtaSJUvajLl5u0FBQVq0aJEqKip04sQJFRUV6fTp08rMzHTun5aWJrPZrLKyMmVnZ8tqtXboHLVX/zfffKOlS5dq8+bNqqmp0dGjR5WSktLhPgGAL/DdqG/hensHa2YAANANYmJiZLFYnK/HH3+8RfmaNWtksVgUHByshx56SHl5eZKkc+fOaffu3Vq7dq3i4uIkSSNHjtSQIUOcx65atUrh4eEaMGCAwsPDNX/+fG3cuFGS1NDQoM2bN+uhhx5q0d7KlSsVGhqqmJgY/frXv9aWLVs63Kfm7ZaXl2vXrl167rnnFB4eLrPZrGXLlumtt96SJJWUlGj//v1avXq1QkNDFR0dreXLl7vdlqv6g4ODFRgYqH/+85+qrKxUeHi4xo8f3+E+AQCA3oE1MwAA6AYlJSXtrplxww03OH8eMGCAHA6HHA6Hzp49K+lKAqMtTUmOJg8//LBmzJih3/3ud3r//fflcDg0e/bsFvsMHTrU+fOwYcNUWlraof5c3e6ZM2dkGIYSExOd2wzDUF1dnRobG1VSUnJNu80TMq64qj82Nlbbt2/X2rVrlZmZqfj4eD3zzDOaOnVqh/sFAAD8HzMzAADwoUGDBkm6su6FuyZNmqSbbrpJO3bs0MaNG5Wenq5+/fq12OfUqVMtfm5KpphMpk7FGRMTI0kqLCyU3W6X3W5XZWWlamtrFRAQ4Cxv3m5RUZHz5+DgYElX1gdp0jzB4qp+SUpNTdWBAwdUXl6umTNnau7cuV3qEwAA8F8eS2YkJSV5qmoAALzG0+PZwIEDlZqaqp///OfOWRpfffVVi0RAaxYvXqysrCy9++67evDBB68pX7lypS5evKiysjKtWbNG999/vyQ51+I4fvx4h+KMjo7W7NmztXz5cp0/f17Sldko2dnZkq4kI6ZOnarHH39cNTU1KisrU1ZWlvP4UaNGKSIiQuvWrVNDQ4OKioq0evVqt+s/ceKEsrOzVVdXp379+iksLEyBgYFd6hMAeAvfjfoWrrd3eCyZkZyc7KmqAQDwGnfHs6YnaTS9Jk6c6HYbmzZt0qhRozRhwgSZzWbdfffdzi/0bVmwYIFOnDih2267TaNGjbqmPCUlRWPHjtWIESM0btw4rVq1SpI0fPhwLVmyRMnJybJYLHrllVfcjtNqtSo0NFQ333yzzGazpkyZ0uKpLFarVRUVFRo4cKCmT5+uBQsWOMv69+8vq9WqTZs2KTw8XPPmzVNGRobb9dfX12vFihXO8/zmm29q27ZtXe4TAHgD3436Fq63d5gMwzB8HQQA/xAbG6vi4uJu2w9A5xmGoZtuukmrVq1yzrqQrjzudNKkSaqtrW13DQ9vaIqlvr5eQUEs09Ud+BwGAM8pLS1Vdna27rzzTlksFl+HAxdYMwMAAD/09ttvq7a2Vv/2b//m61AAAOgVoqOjNWLECE2aNEmpqan68MMPfR0S2sGfSQAA8DPR0dEKCAjQhg0bnAtrAgCArktKStLmzZt17733KjU1Vddff73S09P14IMPMlujh/HYzIzc3FxPVQ0AgNf0xPGstLRUxcXFmjVr1jVlCQkJMgzD57eYNI+FW0wA9HU9cSxB25KTk7Vt2zYFBwfr22+/1e9+9zvFx8e7PVuD6+0dHktm2Gw2T1UNAIDXMJ4BALqKscT/JCcna8uWLerfv78Mw5DD4ZDNZtO8efM0btw4vfDCC7Lb7a0ey/X2Do8tAJqVlaVly5Z5omoAPsLCc+iLYmNjfR0CAADoIYKCgnTjjTfq2LFjCg8P16uvvtpiIW5X+B25+zDvEwCAdvzyl78kOY8eg6Qy4J/4Q69/evLJJ7V+/XpJUkxMjMaOHasTJ07IZDLpqaee0rx585zraLj72YzuQzIDAAAAAIBmnnzySW3YsEGjRo3SwIED9fnnn8tisejFF19UYmKir8ODPJjMSEpK8lTVAAB4DeMZAKCrGEv8y0svvaTXX39dAQEBMplM+sEPfqCNGzfyNJMexmPJjOTkZE9VDQCA1zCeAQC6irHEf9hsNq1bt06zZ8/WwoULmYXRg3GbCQAAAACgzystLdXx48eVm5vLLAw/QDIDAAAAANDnRUdHa8GCBb4OA24K8HUAAAAAAAAAHeGxZEZubq6nqgYAwGsYzwAAXcVYAnQ/jyUzbDabp6oGAMBrGM8AAF3FWAJ0P24zAQAAAAAAfoVkBgAAAAAA8CskMwAAAAAAgF/xWDIjKSnJU1UDAOA1jGcAgK5iLAG6n8eSGcnJyZ6qGgAAr2E8AwB0FWMJ0P24zQQAAABtstlsuu222xQSEqKIiAhNmDBBu3fv9nVYvVJeXp5MJpMuXbrk61AAoMcjmQEAAIBWXbx4UXfccYdmz56tiooKVVRUaOPGjYqMjPR6LHV1dT2iDgBAz0AyAwAAAK36+uuvZbfb9dBDDyk4OFgBAQFKSEjQ5MmTnftUVVUpIyNDkZGRslgsSk9PV01NjbO8urpaP/vZzxQdHa2wsDCNHTtWn376aauzEJq2ORwO589Wq1WjR4+W2WyWw+Fw2V5zna3j7NmzSklJUWhoqOLj47V27dpr4morbnfOyYsvvqi4uDiFhIRo8ODBysrKUmVlpfO8RkVFKSwsTOvWreviFQSA3stjyYzc3FxPVQ0AgNcwnqEvGzlypAYOHKif/OQn2rt3r4qLi6/ZZ9GiRaqoqNCJEydUVFSk06dPKzMz01m+cOFCFRQU6OOPP1Z1dbX27t3boZkd+/btU15enux2u4KCgly21x11pKWlyWw2q6ysTNnZ2bJarW7H6+qcfPPNN1q6dKk2b96smpoaHT16VCkpKYqIiFBOTo4kqby8XNXV1VqyZEmH2kXPxVgCdD+PJTNsNpunqgYAwGsYz9CXhYSE6NChQ4qOjtZjjz2mQYMG6dZbb1VhYaGkK1+6d+3apeeee07h4eEym81atmyZ3nrrLUnSuXPntHv3bq1du1ZxcXGSriRIhgwZ4nYMq1atUnh4uAYMGOCyve6oo6SkRPv379fq1asVGhqq6OhoLV++3O14XdUfHByswMBA/fOf/1RlZaXCw8M1fvx4t+uHf2IsAbpfkK8DAAAAQM81evRo/eEPf5AknTlzRo888ojmz5+vzz77TGfOnJFhGEpMTHTubxiG6urq1NjYqLNnz0q6ksDorKYkSFP77bUXEND63+k6UkdJSYkkaejQoc7yjiRfXNUfGxur7du3a+3atcrMzFR8fLyeeeYZTZ061e02AACsmQEAAAA3DR48WEuXLlVBQYEkKSYmRpJUWFgou90uu92uyspK1dbWKiAgQIMGDZJ0Ze2NqwUHB0u6sqZGk9LS0nbbd9WeO1zV0VR+6tQp5zFFRUVux+1OjKmpqTpw4IDKy8s1c+ZMzZ07V5JkMpnc6gMAgGQGAAAA2nDy5EllZWXp9OnTkqTKykq99tprSkhIkCRFR0dr9uzZWr58uc6fPy/pym0a2dnZkqSBAwcqNTVVP//5z52zNL766isVFRVp1KhRioiI0Lp169TQ0KCioiKtXr263XhctecOV3XExMRo6tSpevzxx1VTU6OysjJlZWU5j3cVt6v6T5w4oezsbNXV1alfv34KCwtTYGCgJDnXEjl+/Ljb/QGAvspjyYykpCRPVQ0AgNcwnqEvCwkJ0YcffqjExESFhobqxhtv1IULF7R161bnPlarVaGhobr55ptlNps1ZcoU5efnO8s3bdqkUaNGacKECTKbzbr77rt1/vx59e/fX1arVZs2bVJ4eLjmzZunjIwMlzG5as8druqwWq2qqKjQwIEDNX36dC1YsMBZ5k7c7dVfX1+vFStWOJ9Y8uabb2rbtm2SpOHDh2vJkiVKTk6WxWLRK6+80qF+oediLAG6n8kwDMPXQQDwD7Gxsa2uZN/Z/QAAHeOJz2G73a59+/ZpxowZio6O7mqIvVJeXp4mTZqk+vp6BQWx5ByAlvgd2Te4zQQAAKAPOnTokObMmaOkpCSNGDGCRAYAwK+QWgYAAOgj7Ha7Xn75Zb3xxhuqrKzUddddp7feeosp8AAAv0MyAwAAoJc7dOiQnnvuOX3yySdqaGhQv379FB4erv/+7/8mkeGGhIQEcWc2APQsHrvNJDc311NVAwDgNYxn8Fd2u12rV6/WmDFjdO+99yovL08NDQ0KDg5WSEgIiQzAixhLgO7nsZkZNptNycnJnqoeAACvYDyDv0pMTFRVVZWCgoLU2Njo3H758mVdvnxZqampPowOAICu4TYTAACAXujw4cPasWOH/vjHP+rChQsymUwqLS2VJPXr109Wq1VTpkzxcZRA35CVlaVly5b5Ogx4SGxsrK9D6JN4mgkAAEAvZLFY9NBDD+ngwYN67bXXdPvttys0NFTDhg2TYRhKS0vT3//+d1+HCQBAp5DMAAAA6OUSExP10ksvKS8vTw888ICGDx+uhoYG/fjHPyahAQDwSx5LZrCgFACgN2A8Q2/SfLbG7t27dffdd+unP/2pbDabr0MDejXGEqD7eWzNDBZLAwD0Boxn6K0SExOVmJgou92uffv2acSIEYqOjvZ1WECvxFgCdD8WAAUAAOjDLBaLFixY4OswAADoENbMAAAAAAAAfoVkBgAAAAAA8CseS2bk5uZ6qmoAALyG8QwA0FWMJUD381gyg1WxAQC9AeMZAKCrGEuA7sdtJgAAAAAAwK+QzAAAAAAAAH6FZAYAAAAAAPArHktmJCUleapqAAC8hvEM6D55eXkymUxyOBy+DgV+pum9c+nSJV+H0imMJUD381gyIzk52VNVAwDgNYxn6I2avhiGhYUpLCxMERERmjlzpgoKCnwek79+WW1PT+jbyJEj9dFHH7Va9vHHH2vOnDmKiopSaGiohg8frkcffVTl5eVdbtcbfW+vjavf602vWbNmXVMeHh6u73znO/rud7+rzMxMlZaWdluMjCVA9+M2EwAAgD6qvLxc1dXVOnXqlOLi4nTffff5OiS/U1dX1+Pbyc/PV21trRITE68p+9vf/qapU6dq2rRpOn78uC5evKicnByFhoYqLy+vKyG7zRvnsOm93vR65513rim/cOGCysvLtWnTJhUXF2v8+PE6fvy4x2MD0DkkMwAAAPq4iIgIPfDAAyosLGyxvaqqShkZGYqMjJTFYlF6erpqamqc5a+++qrGjBkjs9ksi8Wi1NRUlZSUOMvPnj2rlJQUhYaGKj4+vs3HU1ZWVmry5MmSpKioKIWFhWndunUuY2j6q/rbb7+tsWPHKjQ0VAkJCcrPz9fevXsVHx+vkJAQ3XLLLc5ZJ03HbNy4UcOHD5fZbFZ6enqLv+q706bVatXo0aNlNpvlcDjaPBdt9a212QTNb8Npqx1X16Q1e/bs0d133y2TyXRN2aOPPqr//M//1L//+78rPDxckjR06FA9++yz+sEPfiBJKisrU2pqqsLDwxUVFaVHH33UmYBoinPnzp0aM2aMQkJCNHHiROXn57vs+9V9a68dbwkMDNSECRO0efNm3X777frNb37j1fYBuI9kBgAAQB93/vx5bdiwQbfeemuL7YsWLVJFRYVOnDihoqIinT59WpmZmc7yuLg4/fnPf1ZVVZW+/PJLXbhwQYsXL3aWp6WlyWw2q6ysTNnZ2bJara22HxERoZycHEn/9xf0JUuWuBWDJO3cuVOHDh3S+fPnNW7cOM2aNUs7duxQTk6OKioqNH78eD388MMtjnnvvfdUUFCgY8eO6ZNPPtGKFSvc7rck7du3T3l5ebLb7QoKCmrzXLTXN3dc3Y47sV1t9+7dmjNnzjXbz549q88//1zz589v9/j7779fklRcXKyCggLl5OToiSeeaLHPrl27ZLPZVFFRobFjx7rV96v75k473pSWlqbs7GyftQ/ABcNDPvjgA09VDcBHYmJiunU/wB8wnqEn6a7P4SNHjhiSjIiICCMsLMyQZAwbNsw4c+aMc59z584ZJpPJ+OKLL5zb3n33XSMqKqrNevfv328MGDDAMAzDKC4uNiQZhYWFzvLt27cbkoz6+vo2Y6qtrXU7hqZjTp486Sw/ePCgIalFXw4ePGgEBQW1OKZ5XFu3bnWeM3fbPHbsWJvn4epz0Vrf2ttWX1/fajuduSYnT540LBaLUVdXd03Zp59+akgyqqqq2jy+tevY/Hy1dg1ycnKuOd+t9bN539xtp3k9V9fXXllERESL14oVK1wem5ubawQEBLR5bjqCsaR343dk3wjyVJLEZrOx0A0AwO8xnqE3KykpUXBwsA4fPqw777xT69ev18qVKyVJZ86ckWEYLdZZMAxDdXV1amxsVEBAgHbt2qXnn39eX375pRoaGtTY2Kja2lo1NDQ4bzcZOnSo8/ghQ4Z0KD5XMTS54YYbnD/379+/1W0Oh6PFU1SaxzVs2DDnYo/uthkXF9ci1vbORVc0b8eda3K1PXv26I477lC/fv2uKYuKipIknTt3TmFhYa2239p1bH6+mjQ/3wMGDLjmfLvqm7vtdFZJSYnzveGu0tJSXX/99d3SPmMJ0P24zQQAAKAPM5lMuvXWW/Xss8/q+eefV3FxsSQpJiZGklRYWCi73S673a7KykrV1tYqICBAxcXFuueee/TYY4+puLhYlZWV2rt3r6QrX7Cbjj916pSzraKionbjuJqrGLqieVynTp1yfhnvTJuuzkVrfQsODpYkVVdXO7e5+uLemdjausVEkgYPHqxx48Zp69atLtu8+nxFR0e3G2uT1vruiXY84Y033lBKSorP2gfQPpIZAAAAUHp6uoYMGaIXXnhBkhQdHa3Zs2dr+fLlOn/+vKQrf91uWkOgadaBxWJRcHCwTp06paeeespZX0xMjKZOnarHH39cNTU1KisrU1ZWVpvtR0ZGSlKLp0e4iqErVq5cqYsXL6qsrExr1qxxrtfQmTZdnYvW+jZq1ChFRERo3bp1amhoUFFRkVavXt1uzB2N7dtvv9WRI0f0wx/+sM06165dqzVr1ujll19WVVWVJOn06dP69a9/rffee08xMTGaNm1ai+u4Zs0apaWltRtre31vTVfbkaTLly/r0qVLzld9fb3bxzZpbGxUfn6+MjIydPDgQT399NMdrgOAd5DMAAAAgIKCgvTkk09q/fr1Ki8vlyRZrVaFhobq5ptvltls1pQpU5Sfny9JGjFihJ599lktXLhQZrNZc+fOvWYhSavVqoqKCg0cOFDTp0/XggUL2mx/+PDhWrJkiZKTk2WxWPTKK6+4jKErUlJSNHbsWI0YMULjxo3TqlWrWsTdkTZdnYvW+ta/f39ZrVZt2rRJ4eHhmjdvnjIyMlzG3ZHY3nnnHU2dOrXNW0gkaerUqTpw4ID+8pe/6MYbb1RYWJhuv/12VVdXKyEhQZK0ZcsWORwOxcTEaMyYMUpOTnb7S35b17U1XWlHkiwWiwYMGOB8LVq0yFnW9DSVptfEiRNbHBsVFaXw8HBdf/31SktLU1RUlD777DPddNNNbrcPwLtMhmEYnqg4NzeX+8KAXiY2NtY5/bg79gP8AeMZehI+h7suLy9PkyZNUm1tbYfXUPA3c+bM0V133aUHH3zQ16H4pdLSUmVnZ+vOO++UxWLpUl2MJb0bn82+4bGZGfxjBQD0BoxnAPxVcnJym+tlwLXo6GiNGDFCSUlJuu+++3T48OFO18VYAnQ/bjMBAAAAeqFf/epXzieWoHOSkpL0+uuvKzc3V3PmzNH48eP1X//1X7Lb7b4ODejzSGYAAACgz0hISJBhGL3+FhN0n6SkJG3dulVhYWH69ttv9dxzz2n8+PGaP39+l2ZrAOgakhkAAAAA0I6kpCRt3rxZoaGhkqT6+nr9/e9/17x585itAfhIkKcqZpEbAEBvwHgGfxUbG+vrEIBer66uTufOndOaNWv00ksvaf369c7H/LqDxSCBzvNYMsNms/HLHwDA7zGewV/xJQnoXh988IEWLFigy5cvS5JCQkIUHBysiIgIZWRkaN68ec6nnrj7ZAsAneexZAYAAAAA9AbNExlRUVG6ePGivv/97ys9PV2JiYm+Dg/ok0hmAAAAAEAbPvjgA82fP18NDQ0aPnz4NbMwAPgGyQwAAAAAaIXNZtODDz6oWbNmMQsD6GE8lsxISkryVNUAAHgN4xkA9E2lpaU6fvy4bDYbszCAHshjyQwWSwMA9AaMZwDQN0VHR2vBggW+DgNAGwJ8HQAAAAAAAEBHkMwAAAAAAAB+hWQGAAAAAADwKx5LZuTm5nqqagAAvIbxDAAAoOfxWDLDZrN5qmoAALyG8QwAAKDn4TYTAAAAAADgV0hmAAAAAAAAv0IyAwAAAOgh8vLyZDKZ5HA4fB0KAPRoHktmJCUleapqAAC8hvEMfVlYWJjzFRISIpPJ1GJbb9GUQLh06ZKvQ+mQ7o575MiR+uijj9xuo6ms+XsiLCxMs2bNuqY8PDxc3/nOd/Td735XmZmZKi0t7VSMnemzv15fAO0L8lTFycnJnqoaAACvYTxDX1ZdXe38OS8vT5MmTZLdbldQkMd+hex2dXV1uu6663pNO56Sn5+v2tpaJSYmdvjY8vJy9e/f32V5Q0ODPv/8c/3ud7/T+PHjZbPZNGLEiK6EDaAP4zYTAAAAdFpVVZUyMjIUGRkpi8Wi9PR01dTUSPq/v4i//fbbGjt2rEJDQ5WQkKD8/Hzt3btX8fHxCgkJ0S233KKCgoIWx2zcuFHDhw+X2WxWenp6i7+qu9Om1WrV6NGjZTab5XA49Oqrr2rMmDEym82yWCxKTU1VSUmJKisrNXnyZElSVFSUwsLCtG7dulb/mt/8FpC22mkvttacPXtWKSkpCg0NVXx8/DVPUOpo3O0d0549e/bo7rvvlslkcuu6d0ZgYKAmTJigzZs36/bbb9dvfvObNvd98cUXFRcXp5CQEA0ePFhZWVmd6nN7x3T0WgHoWUhmAAAAoNMWLVqkiooKnThxQkVFRTp9+rQyMzNb7LNz504dOnRI58+f17hx4zRr1izt2LFDOTk5qqio0Pjx4/Xwww+3OOa9995TQUGBjh07pk8++UQrVqzoUJv79u1TXl6ecyZJXFyc/vznP6uqqkpffvmlLly4oMWLFysiIkI5OTmSrswgqK6u1pIlS9zu/9XtuBNbc2lpaTKbzSorK1N2drasVmuL8s7E3dYx7dm9e7fmzJnjdr+7Ki0tTdnZ2a2WffPNN1q6dKk2b96smpoaHT16VCkpKZ3qc3vHdPRaAehhDABwU0xMTLfuBwDoGF9+Dh85csSQZNTX1zu3nTt3zjCZTMYXX3zh3Pbuu+8aUVFRLY45efKks/zgwYOGJOPMmTMttgUFBbU4prCw0Fm+detWZ5/cbfPYsWPt9mf//v3GgAEDWhxTW1t7TX9b21ZfX99qO65iu1pxcfE1fd2+ffs157kjcbs6pjUnT540LBaLUVdXd01Ze200lUVERLR4rVixwuWxubm5RkBAQKvxnD171ggMDDReeuklw263ux1PW31u7ZiOXquO4Pelvodr7hseu+ExNzeX+4wBAH6P8Qxo25kzZ2QYRot1FgzDUF1dnRobG53bbrjhBufPTWsrXL3N4XC0eILH0KFDnT8PGzbMuWCku23GxcW1iHXXrl16/vnn9eWXX6qhoUGNjY2qra1VQ0NDp/t/dTuuYgsIaDkpuunWj+Z9HTJkSJfjbu+YwMDAa/bfs2eP7rjjDvXr169jnW/Wj/bWzGhNaWmprr/++lbLYmNjtX37dq1du1aZmZmKj4/XM888o6lTp7ZZX0fPU0evFYCex2P/Sq++3w8AAH/EeAa0LSYmRpJUWFgou90uu92uyspK1dbWdvnL4KlTp1r83JT86EybxcXFuueee/TYY4+puLhYlZWV2rt3r6QrX2BbWyciODhYUstFUF09gaOjsTXt37yvRUVFXYrb1TGt8fYtJpL0xhtvKCUlpc3y1NRUHThwQOXl5Zo5c6bmzp0rSZ3qc2vHePK9C8A7+JcKAACATomOjtbs2bO1fPlynT9/XtKVv9K3tRZCR6xcuVIXL15UWVmZ1qxZo/vvv7/TbTb9hd5isSg4OFinTp3SU0895SyPjIyUJB0/fty5bdSoUYqIiNC6devU0NCgoqIirV69ut2YOxpbTEyMpk6dqscff1w1NTUqKytTVlZWl+J2dczVvv32Wx05ckQ//OEP2+3b5cuXdenSJeervr6+3f1b09jYqPz8fGVkZOjgwYN6+umnW93vxIkTys7OVl1dnfr166ewsDDnjJLO9Lm1Yzz53gXgHSQzAAAA0GlWq1WhoaG6+eabZTabNWXKFOXn53e53pSUFI0dO1YjRozQuHHjtGrVqk63OWLECD377LNauHChzGaz5s6dq/nz5zvLhw8friVLlig5OVkWi0WvvPKK+vfvL6vVqk2bNik8PFzz5s1TRkaGy7g7GpvValVFRYUGDhyo6dOna8GCBV2K29UxV3vnnXc0depUhYWFtdsvi8WiAQMGOF+LFi1yljU9JaTpNXHixBbHRkVFKTw8XNdff73S0tIUFRWlzz77TDfddFOrbdXX12vFihXOet98801t27at031u7Zimc++J9y4A7zAZbc0366KsrCwtW7bME1UD8JHY2FgVFxd3236AP2A8Q0/iic9hu92uffv2acaMGYqOju5qiF2Wl5enSZMmqba2tsPrMKDj5syZo7vuuksPPvigr0PpNfh9qe/hmvuGx2ZmJCUleapqAAC8hvEMvdXhw4f1wAMPKCkpSSNGjOgRiQx4X3JystfXywCA7uCxp5mw8jsAoDdgzJarsQAAIABJREFUPENvYrfbtW3bNm3YsEHFxcUKCgrStm3bSNr1Yb/61a98HQIAdIrHkhkAAADoGQ4fPqz169fr/fffl8lk0qVLlxQSEqI33nijxyUyEhIS2nzqBgAATUhmAAAA9ELNZ2E0PXKysbFRknpsIgMAAHeRzAAAAOiFEhMTVVVV1WpZTU2NUlNTvRwRAADdx2PJjNzcXO4zBgD4PcYz+KvDhw9r+/btLWZmNDQ0SGJmBuBJsbGxvg4B6BM89jQTm83mqaoBAPAaxjP4K4vFosWLFysvL09btmzR97//fQUHB2vAgAGqqanRj3/8Y97fAAC/5bFkBgAAAHqGxMREbdy4UZ9++qkyMzM1ePBg1dbW6t577yWhAQDwSyQzAAAA+ojmszX27NmjlJQUZWRkkNAAAPgdFgAFAADogxITE5WYmCi73a59+/ZpxIgRio6O9nVYAAC4xWPJDBaUAgD0Boxn6O0sFosWLFjg6zAAAOgQj91mwsrvAIDegPEMAACg52HNDAAAAAAA4FdIZgAAAAAAAL9CMgMAAAAAAPgVjyUzcnNzPVU1AABew3gGAADQ83gsmcHzygEAvQHjGQAAQM/DbSYAAAAAAMCvkMwAAAAAAAB+hWQGAAAAAADwKx5LZiQlJXmqagAAvIbxDL1RXl6eTCaTwsLCWrxmzZrl69Ba1RTvpUuXfB0KAKCHCPJUxcnJyZ6qGgAAr2E8Q29WXl6u/v37e7SNuro6XXfddR5toye1CwDwDm4zAQAAQAtNMyF27typMWPGKCQkRBMnTlR+fr5zn+rqav3sZz9TdHS0wsLCNHbsWH366afOY61Wq0aPHi2z2ayXX35ZEyZMaNHG119/raCgIJ08edJ5zMaNGzV8+HCZzWalp6fr0qVLqqys1OTJkyVJUVFRCgsL07p169qMuXm7DodDVVVVysjIUGRkpCwWi9LT01VTU+M87sUXX1RcXJxCQkI0ePBgZWVltaivtZialJWVKTU1VeHh4YqKitKjjz6quro6t89hW21Lchk3APR1JDMAAADQql27dslms6miokJjx47V4sWLnWULFy5UQUGBPv74Y1VXV2vv3r2KjIx0lu/bt095eXmy2+1KS0vT119/rSNHjjjLN27cqBkzZmjYsGHObe+9954KCgp07NgxffLJJ1qxYoUiIiKUk5Mj6cpMkurqai1ZsqTNmJu3GxQUpEWLFqmiokInTpxQUVGRTp8+rczMTEnSN998o6VLl2rz5s2qqanR0aNHlZKS0qK+1mJqcv/990uSiouLVVBQoJycHD3xxBNunUNXbbcXNwBAkgEAboqJienW/QAAHdNdn8NHjhwxJBkREREtXitWrGhRfvLkSecxOTk5RlBQkGEYhlFWVmZIMj799NM26z527FiL7Q888IDx8MMPG4ZhGA6Hwxg0aJDx9ttvtzimsLDQuf/WrVud/Wgqr62tddmn5u2eO3fOMJlMxhdffOHc9u677xpRUVGGYRjG2bNnjcDAQOOll14y7HZ7q/W1FVNxcbFbMbd1Dttr21Xc6Nn4fanv4Zr7hsdmZuTm5nqqagAAvIbxDL1ZSUmJ7Ha78/X000+3KL/hhhucPw8YMEAOh0MOh0Nnz56VJI0cObLNuuPi4lr8/8MPP6y33npLNTU1evfdd+VwODR79uwW+wwdOtT587Bhw1RaWtrhPjVv98yZMzIMQ4mJibJYLLJYLJo/f76qq6vV2Nio2NhYbd++XW+//bbi4uKUnJysv/3tb27FVFJS4lbMbZ3D9tp2FTcAwIO3mdhsNk9VDQCA1zCeAdcaNGiQpCvrXrhr0qRJuummm7Rjxw5t3LhR6enp6tevX4t9Tp061eLnpkSAyWTqVJwxMTGSpMLCQmfCprKyUrW1tQoIuPJrcGpqqg4cOKDy8nLNnDlTc+fOdSumprqvLo+OjnY7vrbadiduAOjr+DQEAABAhwwcOFCpqan6+c9/7pyl8dVXX6moqKjd4xYvXqysrCy9++67evDBB68pX7lypS5evKiysjKtWbPGuSZF01ocx48f71Cc/5+9+4+K8rzz//9CsCgzA9OIMkSixEY9LLFZV8PpTHLU1eDmh2tcqllXg1FS7casSavHHpNVP01janIajrsnaX7raihGjT/ipsnWhqhLt0yq5JizBo01igo6glQGQTAw8f7+4ZdZURgG4Z5hnOfjHE8nc933+35f91XmYt5c932npKRo6tSpWrp0qc6fPy/pyoqKoqIiSVJ5ebmKiorU3Nysvn37ymq1KjY2NqicHA6HJk6cqBUrVqixsdHfnpubG1RugY7dWd4AAIoZAAAAUav16SCt/8aMGRP0vuvXr9fw4cN11113yWaz6eGHH/Z/8e7I7NmzVV5ernvuuUfDhw+/rj07O1uZmZkaNmyY7rzzTq1atUqSlJ6eroULF8rlcslut+v1118POs+CggJZLBaNHDlSNptN48eP9z9RpKWlRcuXL/efh40bN2rz5s1B5SRJhYWF8vl8cjgcysjIkMvluu5SnY50duxAeQMwR1VVlQoLC+X1esOdCoIQYxiGYUbg/Px8LVmyxIzQAMIkNTVVHo+nx7YDIgHzGXqTSP8cNgxD3/ve97Rq1Sr/CgfpymNM7777bjU1Nalfv35hzPD/9MacEBki/ec02rndbs2bN0/33Xef5syZo6ysrE73YczDw7SVGU6n06zQAACEDPMZ0HO2bt2qpqYm/fCHPwx3KgDQLqfTqRUrVuiDDz7QP/zDP2jcuHF6++23Wa3RC5lWzHC5XGaFBgAgZJjPgJ6RkpKip556Sm+99Zbi4+PDnQ4AdGj27Nl66aWXZBiGKioqtGHDBo0dO1b/8i//on379oU7Pfz/4sKdAAAAAG5+gR6zOnbsWJl05fMN6405AQid2bNnS5KWLl3qf3LT/v379cc//lE2m025ubmaMWOG7HZ7ONOMahQzAAAAbkKpqanhTgGIWsH+/PFzGllaH8VcW1urlStX6uWXX9Ybb7wR5qyiF8UMAACAmxA3mQPCg5tB3jw++eQT5eXlyefzSZL69u2r/v37KykpSfPnz2dlRpiZds+MkpISs0IDABAyzGcAAESfqwsZiYmJ6tevnx544AEVFBRo3759mj9/PoWMMDNtZYbb7eamaQCAiMd8BgBAdPnkk080d+5cGYah2267jVUYvRSXmQAAAAAAoCt/xHjyySc1ZcoUPf7448rKygp3SugAxQwAAAAAQNSrqqrS8ePHtW/fPlZhRACKGQAAAACAqJeSkuJ/JCt6P9NuAOp0Os0KDQBAyDCfAQAA9D6mFTO4WRoA4GbAfAYAAND7mFbMAAAAAAAAMAPFDAAAAAAAEFEoZgAAAAAAgIhiWjGjpKTErNAAAIQM8xkAAEDvY1oxw+12mxUaAICQYT4DAADofbjMBAAAAAAARBSKGQAAAAAAIKJQzAAAIETcbrfuueceJSQkKCkpSXfddZd27NgR7rQAAAAijmnFDKfTaVZoAABCpqfms4sXL+rBBx/U1KlTVVtbq9raWq1du1YDBgzokfhd0dzc3CtiAAAA3CjTihkul8us0AAAhExPzWfHjh2T1+vV/PnzFR8frz59+mjs2LEaN26cf5v6+nrl5eVpwIABstvtmjt3rhobG/3tDQ0NeuKJJ5SSkiKr1arMzEx98cUXKi0tVUxMjC5duuTftvU9n8/nf11QUKARI0bIZrPJ5/N1eryr3WiMNWvWKC0tTQkJCRo8eLDy8/PbxFu7dq3S09Nls9k0d+7cNn2orq5WTk6OEhMTlZycrEWLFvmLKK37b9u2TRkZGUpISNCYMWN08ODBTo8dzLkGAAC9G5eZAAAQAnfccYcGDhyoxx57TDt37pTH47lum3nz5qm2tlbl5eWqqKhQZWWlli1b5m+fM2eOysrK9Pnnn6uhoUE7d+7s0sqOjz76SKWlpfJ6vYqLi+v0eN2NceLECS1evFgbNmxQY2OjDh8+rOzs7Dbxdu3apbKyMh09elQHDhzQ8uXL/W2zZs2SJHk8HpWVlam4uFgrV65ss//27dvldrtVW1urzMxMLViwIKhj30jfAQBAL2IAQJAcDkePbgdEmyNHjhiPP/64kZ6ebkgysrKyjLKyMsMwDOPcuXNGTEyMceTIEf/2H3/8sZGcnGwYhmFUV1cbkowvvvjiurj79+83JBlNTU3XvdfS0uJ/ffToUX97Z8fr6BhdiXHmzBkjNjbWePXVVw2v19tuvEOHDvnf27Rpk//zw+PxBGxv3f/kyZP+9uLiYiMuLq7TY3e1770Jn8NA78fPafRhzMODlRkAAITIiBEj9M4776i8vFyVlZW69dZbNXPmTEnS6dOnZRiGsrKyZLfbZbfbNXPmTDU0NOjy5cs6c+aMpCsrPG5UWlqa/3Vnx+uJGKmpqdqyZYu2bt2qtLQ0uVwu7d27t028IUOG+F8PHTpUVVVVkqSzZ88GbG81aNAg/+v+/fvL5/PJ5/MFPPaN9h0AAPQephUzSkpKzAoNAEDImDWfDR48WIsXL1ZZWZkkyeFwSJIOHTokr9crr9eruro6NTU1qU+fPrr11lslXbn3xrXi4+MlXbmnRqtrv/Rfq7PjBSOYGDk5OdqzZ49qamo0efJkTZ8+vU2MU6dOtXndWpxojX1te0pKSlC5BTp2T/QdAACEl2kzttvtNis0AAAh01Pz2cmTJ5Wfn6/KykpJUl1dnd5++22NHTtWkpSSkqKpU6dq6dKlOn/+vKQrqxOKiookSQMHDlROTo6efvpp/yqNr7/+WhUVFRo+fLiSkpL02muv6dtvv1VFRYVeeOGFgPl0drxgdBajvLxcRUVFam5uVt++fWW1WhUbG9smxnPPPaeLFy+qurpaq1ev9t8nw+FwaOLEiVqxYoUaGxv97bm5uUHlFujYPdF3AAAQXvz5AQCAHuL1elVYWNjuqoiEhAR99tlnysrKksVi0e23364LFy5o06ZN/m0KCgpksVg0cuRI2Ww2jR8/vs3TOdavX6/hw4frrrvuks1m08MPP6zz58+rX79+Kigo0Pr165WYmKgZM2YoLy+v03w7O14wAsVoaWnR8uXLlZycLKvVqo0bN2rz5s1t9s/OzlZmZqaGDRumO++8U6tWrfK3FRYWyufzyeFwKCMjQy6XS88//3xQeXV27J7oOwAACJ8YwzAMMwLn5+dryZIlZoQGECapqantPoHhRrcDIkEw89m+ffv07rvv6tNPP9W6devkdDpDlF3kKi0t1d13362mpib169cv3OlEDD6Hgd6Pn9Pow5iHR1y4EwAAIBJ5vV69//772rBhg8rLy9WnTx8VFhZSyAAAAAgB04oZ/DIHALgZXDufta7C+N3vfqdbbrlFHo9HcXFxKigo0Lhx48KUJQAAQHQxrZjhcrnMCg0AQMi4XK42qzAuXLggSbp48aIuXryo73znOxQybsDYsWNl0pWuAAAgCph2zwwANx+uB0Q02rNnj3784x+rvr5esbGx+vbbb8OdEgAAiFD8jtxzKGYACBrFDEQrr9er119/XQUFBbpw4YK/oPGd73xH/fv313/8x39weSVCgs9hoPfj5xQIDR7NCgBAJ+x2u5555hkdOnRImzdv1t13363Y2Fg1Nzfr4sWLmjdvntxud7jTBAAAiBqmFTNKSkrMCg0AQMhcO5/dc889+s///E99+eWXeuqpp2Sz2XThwgX90z/9EwUNAADAd+EQMa2YwS90AICbQUfz2dWrNd5//32NHj1aeXl5zH8AAEQ5fhcIDS4zAQCgm+655x7t2LFDbrdbx48fV1VVVbhTAgAAuKmZ9mhWAACijd1u1+zZs8OdBgAAwE2PlRkAAAAAACCimFbM4BF1AICbAfMZAADoCn53CA3Tihkul8us0AAAhAzzGQAA6Ap+dwgNLjMBAAAAAAARhWIGAAAAAACIKBQzAAAAAABARDGtmFFSUmJWaAAAQob5DAAAdAW/O4SGacUMt9ttVmgAAEKG+QwAAHQFvzuEBpeZAIg6paWliomJkc/nC3cqPe7AgQOyWq365ptv2m1v7fulS5dCnBkAAADQcyhmAOi1OvriHcpiRE98+Q+mHz1VZBg9erQaGhoUHx9P4QIAAAA3LYoZAICgNTc3hzsFAAAAwLxihtPpNCs0APi1rj5Yu3at0tPTZbPZNHfu3DarEc6cOaPs7GxZLBaNGjXquusY33jjDWVkZMhms8lutysnJ0dnz55VXV2dxo0bJ0lKTk6W1WrVa6+9Jkmqr69XXl6eBgwYILvdrrlz56qxsdGUPm7fvl0jRozw//fKlSsVExOj48ePS5L27dunpKSkNis8qqqqOsxdkj766CNlZGQoISFBY8aM0cGDB9s9dmu8goICjRgxQjabTT6fr9P+r1mzRmlpaUpISNDgwYOVn5/fJl6g8aqurlZOTo4SExOVnJysRYsW+Ysorftv27atw/w7OrZ0Y+PGfAYAALqC3x1Cw7RihsvlMis0AFxn165dKisr09GjR3XgwAEtX77c35abmyubzabq6moVFRWpoKCgzb5paWn67W9/q/r6ev35z3/WhQsXtGDBAiUlJam4uFiSVFNTo4aGBi1cuFCSNG/ePNXW1qq8vFwVFRWqrKzUsmXLTOnbxIkTdfz4cZ06dUqS9Mknn2j48OEqKiry//f48eMVFxfn3ydQ7tKVAonb7VZtba0yMzO1YMGCgDl89NFHKi0tldfrVVxcXMD+nzhxQosXL9aGDRvU2Niow4cPKzs7u028QOM1a9YsSZLH41FZWZmKi4u1cuXKNvt3lH9nx76RcWM+AwAAXcHvDiFiAECQHA5Hj27Xmf379xuSjKampnbfb2lp8b8+dOiQv33Tpk3+HDwez3XtW7Zs8e/fnt27dxv9+/fvMIdz584ZMTExxpEjR/zvffzxx0ZycnK3+3HtNq3uvvtuY+3atUZdXZ2RlJRkrF271pg+fbphGIYxYcIE49///d+vO1Z7MVvfO3nypP+94uJiIy4uLmDuR48eDbr/Z86cMWJjY41XX33V8Hq97cbrynhd3d5Z/oGO3dVxA3qjUH8OA+g6fk6B0OCeGQB6rT59rnxEXb58uc37rf/d2i5JQ4YM8b8eOnSoqqqqJElnz569rv22225rE2/79u36wQ9+oFtuuUVJSUmaOnWqmpqa9O2337ab1+nTp2UYhrKysmS322W32zVz5kw1NDRcl2tX+9GR++67T0VFRdqzZ4+cTqcefPBB7d69Ww0NDXK73brvvvs6jXG1QYMG+V/3799fPp8v4A1V09LS/K87639qaqq2bNmirVu3Ki0tTS6XS3v37m0TryvjdXV7Z/kHOnZXxw0AAAC9F8UMAL1WamqqJOnkyZNt3i8vL5fD4WhTBGi9BKP1deuXXYfDcV17RUWF/7XH49Ejjzyin/zkJ/J4PKqrq9POnTslSYZhKCYm5rq8WmMeOnRIXq9XXq9XdXV1ampqarcw0ZV+dOS+++7T7t279cknnyg7O1sOh0O33nqr/u3f/k0DBgzQX/3VX123T3u594Rg+p+Tk6M9e/aopqZGkydP1vTp09vE6Mp4nTp1SikpKUHn19GxuzpuAAAA6L1M++2tpKTErNAAokRqaqomTZqkZ555RufOnZMkHTt2TL/85S81Z86cNts+99xzunjxoqqrq7V69Wr/fRccDocmTJigFStWqLGxUdXV1W1uCNm6AsNutys+Pl6nTp3SL37xC3/7gAEDJMl/s01JSklJ0dSpU7V06VKdP39e0pUVBa33sOhOPzpyzz336MKFCyooKPCvwrjvvvv0q1/9SpMmTWp3n/Zy7wmd9b+8vFxFRUVqbm5W3759ZbVaFRsb2yZGoPGaOHFim/FavXq1cnNzg8ot0LG7Om6tmM8AAEBX8LtDaJhWzLj2aQEA0B6v16vCwsLrLiNotXnzZn33u99VZmamrFarJk6cqClTpmjVqlVttsvOzlZmZqaGDRumO++8s017QUGBamtrNXDgQE2aNEmzZ8/2tw0bNkwvvvii5syZI5vNpunTp2vmzJn+9vT0dC1cuFAul0t2u12vv/66P6bFYtHIkSNls9k0fvz4Dp8I0pV+dCQ+Pl733nuv+vXrp1GjRvn7fOHChQ4vMeko954QqP8tLS1avny5/ykqGzdu1ObNm9vsH2i8CgsL5fP55HA4lJGRIZfLpeeffz6ovDo7dlfHTWI+AwAAXcPvDqERYxiGYUbg/Px8LVmyxIzQAMIkNTVVHo+nR7bbt2+f3n33Xe3evVtr16694UdYlZaW6u6771ZTU5P69et3QzEQOpE4Xsxn6E168nMYgDn4OQW/O4RGXOebAEDP8Hq9ev/99/Wb3/xGX3/9tWJjY7Vu3TqexQ0AAACgSyhmADBd6yqMXbt2KS0tTR6PR3369NE777zT5adwAAAAAIBpxQz+0gpEt6tXYTQ0NMhms6mxsVFfffWV4uLitHbtWk2ePLnbxxk7dqxMuloOJojE8WI+AwAAXcHvDqFh2j0zANx8unINqM1mU319vaxWqxoaGkKQHWAOrmdGb8K1+EDv1/pI9mDwcwrcOC4zAWCKzz77TKtXr9YHH3ygmJgY/1/jExMT1adPH+6VAQAAbkoUKIDQMO3RrACi2y233KJf/epXOnr0qNatW6fMzEzFxMTowoULam5uVl5eHo+tAgAAAHBDKGYAMN3999+voqIiffnll3r00UfVp08f1dXVadasWRQ0AAAAAHSZacWMkpISs0IDiFDXrtbIyMhghQZ6PeYzAEB3MZdEF8Y7NEwrZvDlBEAg999/vz7++GO53W4dP35cVVVV4U4JaBfzGQCgu5hLogvjHRrcABRAWNntds2ePTvcaQAAAACIINwzAwAAAAAARBSKGQAAAAAAIKKYVsxwOp1mhQYAIGSYzwAA3cVcEl0Y79CIMQzDCHcSACJDamqqPB5Pj20HAOgaPocBALiCy0wAAAAAAEBEoZgBAAAAAAAiCsUMAAAAAAAQUUwrZpSUlJgVGgCAkGE+AwB0F3NJdGG8Q8O0Yobb7e52jNLSUsXExOjSpUs9kFHvduDAAVmtVn3zzTfhTiVkIrnPkZw7gK7pifkMABDdmEuiC+MdGmG/zOTzzz/XtGnTlJycLIvFovT0dC1atEg1NTXhTi2kRo8erYaGBsXHx5t6nDvuuEN/+tOfrnvf7XbrnnvuUUJCgpKSknTXXXdpx44dpuYSqj6bIZJzBwAAAIBIF9Zixt69ezVhwgRNnDhRx48f18WLF1VcXCyLxaLS0tJwpnZTOnjwoJqampSVldXm/YsXL+rBBx/U1KlTVVtbq9raWq1du1YDBgwIU6aRrbm5OdwpAAAAAMBNLazFjEWLFumZZ57RU089pcTEREnSkCFD9OKLL+r++++/bvvq6mrl5OQoMTFRycnJWrRoUZsvjmvWrFFaWpoSEhI0ePBg5efn+9vq6+uVl5enAQMGyG63a+7cuWpsbOwwt+7ECrRvR23XXlITqK+t227btk0ZGRlKSEjQmDFjdPDgwYDn+4MPPtDDDz+smJiYNu8fO3ZMXq9X8+fPV3x8vPr06aOxY8dq3LhxEd3nQDl7PB6lpKToN7/5jX/7uXPn6m//9m/17bff+o+3du1apaeny2azae7cuf5cr8699XVBQYFGjBghm80mn8/XrXMGAAAAAOiYacUMp9MZsP3MmTP68ssvNXPmzKBjzpo1S9KVL6JlZWUqLi7WypUrJUknTpzQ4sWLtWHDBjU2Nurw4cPKzs727ztv3jzV1taqvLxcFRUVqqys1LJly9o9TndiBdq3s7jB9rXV9u3b5Xa7VVtbq8zMTC1YsCDg+duxY4emTZt23ft33HGHBg4cqMcee0w7d+6Ux+O5bptI7HOgnFNTU1VYWKgnn3xShw8f1vr16/W73/1O7733nmJjY/0xdu3apbKyMh09elQHDhzQ8uXLOzzeRx99pNLSUnm9XsXFxd3wOQPQu3Q2nwEA0BnmkujCeIeIESZffPGFIcmor6/vcJv9+/cbkoympibD4/EYkoxDhw752zdt2mQ4HA7DMAzjzJkzRmxsrPHqq68aXq+3TZxz584ZMTExxpEjR/zvffzxx0ZycnK7x+1OrED7BmrrSl9btz158qS/vbi42IiLi+vgTBrGyZMnDbvdbjQ3N7fbfuTIEePxxx830tPTDUlGVlaWUVZWFrF9DnbM/9//+3/G8OHDDZvNZnz66afX5dZZPk1NTf7XR48eDfr4gc5Lb9ba/57aDgDQNXwOAwBwRdguM0lOTpYknTt3Lqjtz549K+nKZSithg4dqqqqKklX/tK+ZcsWbd26VWlpaXK5XNq7d68k6fTp0zIMQ1lZWbLb7bLb7Zo5c6YaGhp0+fLl647VnViB9g3U1pW+tho0aJD/df/+/eXz+eTz+do9fx988IEefPBB9e3bt932ESNG6J133lF5ebkqKyt16623+lfNRGKfgx3zf/7nf9bJkyc1evRoTZw48bo4neVztbS0tKCPH+x5AQAAAABcL2zFjMGDB+vOO+/Upk2bgtre4XBIkk6dOuV/79SpU0pJSfH/d05Ojvbs2aOamhpNnjxZ06dPb7PvoUOH5PV65fV6VVdXp6amJvXp0/4p6E6sjvbtrK0rfe2qji4xac/gwYO1ePFilZWVtcknkvocTM6XL1/WnDlzNGXKFB09elTr1q27Ls61+VxdTOnu8YM5LwAAAACA64X1BqCvvPKKVq9erV//+teqr6+XJFVWVurZZ5/Vrl272mzrcDg0ceJErVixQo2Njaqurtbq1auVm5srSSovL1dRUZGam5vVt29fWa1W/70PUlJSNHXqVC1dulTnz5+XdGUlQFFRUbt5dSdWoH0DtXWlr131l7/8Rfv379cDDzzQbvvJkyeVn5+vyspKSVJdXZ3efvunxYnjAAAgAElEQVRtjR07NmL7HMyYr1q1SpWVlXr33Xf13nvv6Sc/+Ym+/PLLNnGee+45Xbx40Z9P6309unv8YM8LAAAAAOB6phUzSkpKOt1mwoQJ2rNnj37/+9/r9ttvl9Vq1b333quGhgb/F+mrFRYWyufzyeFwKCMjQy6XS88//7wkqaWlRcuXL1dycrKsVqs2btyozZs3+/ctKCiQxWLRyJEjZbPZNH78+A6fhNGdWIH27SxusH3tqg8//FATJkyQ1Wpttz0hIUGfffaZsrKyZLFYdPvtt+vChQttVs1EWp87y3n37t16+eWX9f7778tisWj8+PH62c9+phkzZujixYv+GNnZ2crMzNSwYcN05513atWqVT1y/K6cFwDhFcx8BgBAIMwl0YXxDo0YwzAMMwLn5+dryZIlZoRGF02bNk1TpkzRj370o3CnEjFKS0t19913q6mpSf369Qt3Oj2uqqpKRUVFeuihh2S324PeLzU1td2n3dzodkAkYD5Db8LnMBCZmEuiC+MdGmG9zASh4XK5gr5fBqJDSkqKhg0bJqfTqezsbL3//vvhTgkAAAAAgkYxIwr87Gc/8z89BmjldDq1bt06HTt2TE8//bSGDRumhQsXBnxiCwAAAAD0BhQzgHaMHTtWhmHclJeYXM3pdKqwsFB2u119+/bVjh079Nd//de69957Wa0BAAAAoNcyrZjhdDrNCg2gBzmdTq1du1axsbH+FTzHjh3TU089xWoNQMxnAIDuYy6JLox3aJh2A9DU1FQzwgIIoYEDB+rcuXOy2Wx68803NWvWLG48BwBhxA1AAQC4Is6swEygQOT48MMP9cQTT+jbb79Vv379lJGRob/85S/q16+fFi1apBkzZnTpqScAAAAAYCbTihkAIkNrIeOWW27R4MGDdezYMQ0bNkw///nPlZWVFe70AAAAAOA6FDOAKLZr1y49+eSTMgxD3/3ud5WTk8MqDAAAAAC9nmk3AC0pKTErNIAe4Ha79dOf/lRTp07Vjh079N///d+aP38+hQzgGsxnAIDuYi6JLox3aJhWzHC73WaFBtBNVVVVOn78uEpKSvTqq69yOQkQAPMZAKC7mEuiC+MdGlxmAkShlJQUzZ49O9xpAAAAAMANMW1lBgAAAAAAgBkoZgAAAAAAgIhiWjHD6XSaFRoAgJBhPgMAdBdzSXRhvEMjxjAMI9xJAIgMqamp8ng8PbYdAKBr+BwGAOAKLjMBAAAAAAARhWIGAAAAAACIKBQzAAAAAABARDGtmFFSUmJWaADostLSUsXExMjn84U7FUnSgQMHZLVa9c0334T0uK3n4dKlSyE9biRjPgMAdBdzSXRhvEPDtGKG2+02KzSAm4Db7dY999yjhIQEJSUl6a677tKOHTvCnVbIjB49Wg0NDYqPjw93KugE8xkAoLuYS6IL4x0aXGYCIOQuXryoBx98UFOnTlVtba1qa2u1du1aDRgwINypwSTNzc3hTgEAAAA3EYoZAELu2LFj8nq9mj9/vuLj49WnTx+NHTtW48aN829TX1+vvLw8DRgwQHa7XXPnzlVjY6Ok/7tUYtu2bcrIyFBCQoLGjBmjgwcP+vc/c+aMsrOzZbFYNGrUqE4r5GvWrFFaWpoSEhI0ePBg5efnB5VLZ/t21Hbt5R7V1dXKyclRYmKikpOTtWjRIn8BIJj+XquhoUFPPPGEUlJSZLValZmZqS+++OK67QIdtyv5X/2ez+fzvy4oKNCIESNks9nk8/k6PZcAAABAMChmAAi5O+64QwMHDtRjjz2mnTt3yuPxXLfNvHnzVFtbq/LyclVUVKiyslLLli1rs8327dvldrtVW1urzMxMLViwwN+Wm5srm82m6upqFRUVqaCgoMN8Tpw4ocWLF2vDhg1qbGzU4cOHlZ2dHVQugfbtLO7VZs2aJUnyeDwqKytTcXGxVq5cGXR/rzVnzhyVlZXp888/V0NDg3bu3NnuypdAx+1K/h356KOPVFpaKq/Xq7i4uKDGFQAAAOiUYZI//vGPZoUGECYOh6PHtjty5Ijx+OOPG+np6YYkIysryygrKzMMwzDOnTtnxMTEGEeOHPFv//HHHxvJycmGYRjG/v37DUnGyZMn/e3FxcVGXFycYRiG4fF4DEnGoUOH/O1btmwxJBktLS3X5XLmzBkjNjbWePXVVw2v19umrbNcAu0bqK21D01NTe3mu2nTJv957Ky/16qurjYkGV988cV1bV05brD5X/teS0uL//XRo0eDPpe9FfMZepOe/BwGEDrMJdGF8Q4N01ZmuFwus0IDuAmMGDFC77zzjsrLy1VZWalbb71VM2fOlCSdPn1ahmEoKytLdrtddrtdM2fOVENDgy5fvuyPMWjQIP/r/v37y+fzyefz6ezZs5KkIUOG+Ntvu+22DnNJTU3Vli1btHXrVqWlpcnlcmnv3r1B5RJo30BtV2sv36FDh6qqqqrNdh3191pnzpyRdGUFTCCdHTfY/ANJS0vzvw52XHsb5jMAQHcxl0QXxjs0uMwEQNgNHjxYixcvVllZmSTJ4XBIkg4dOiSv1yuv16u6ujo1NTWpT5/OP7Za9z916pT/vYqKioD75OTkaM+ePaqpqdHkyZM1ffr0oHPpaN/O2gLle+rUKaWkpHTa1/bceuutkq7cmySQYI7bUf6tT2FpaGjwb3tt8aWj493ouAIAAACt+O0RQMidPHlS+fn5qqyslCTV1dXp7bff1tixYyVJKSkpmjp1qpYuXarz589LurKKoKioKKj4DodDEyZM0IoVK9TY2Kjq6uo2N+W8Vnl5uYqKitTc3Ky+ffvKarUqNjY2qFwC7Ruo7dp8J06c2Cbf1atXKzc3N6j+XmvgwIHKycnR008/7V+l8fXXX19X0OnsuIHyHz58uJKSkvTaa6/p22+/VUVFhV544YWAeXV3XAEAAIBWFDMAhFxCQoI+++wzZWVlyWKx6Pbbb9eFCxe0adMm/zYFBQWyWCwaOXKkbDabxo8fH/DpHdcqKChQbW2tBg4cqEmTJmn27NkdbtvS0qLly5crOTlZVqtVGzdu1ObNm4PKJdC+ncW9WmFhoXw+nxwOhzIyMuRyufT8888H3d9rrV+/XsOHD9ddd90lm82mhx9+2F9ACPa4gfLv16+fCgoKtH79eiUmJmrGjBnKy8vrNK/ujisAAAAgSTGGYRhmBC4pKeFaIeAmk5qa2u6TR250OyCUqqqqVFRUpIceekh2uz3o/ZjP0JvwOQxEJuaS6MJ4h4ZpKzPcbrdZoQEA6LKUlBQNGzZMTqdTU6ZM0aeffhrUfsxnAIDuYi6JLox3aHCZCQAgajidTq1bt05lZWXKzc3ViBEjtHz5cnm93nCnBgAAgC6gmAEAiCpOp1MbN25UUlKSWlpatHbtWmVmZurv/u7vgl6tAQAAgPCimAEAiDqtKzT69esni8Wiy5cv63//939ZrQEAABAh4swK7HQ6zQoNIAKkpqaGOwWgywzDkM/n09q1a7Vlyxa9+eabzGcAgG5jLokujHdomFbM4O6tQHTjLvro7YqKijRv3jz5fD5JUnp6ui5duiSbzabc3FzNmDGjS089AQCgI3w3ii6Md2iYVswAAKC3ai1k9O3bV+np6Tp79qzGjBmjOXPmKCsrK9zpAQAAoBMUMwAAUaWoqEh5eXm6fPmy0tLSWIUBAAAQgShmAACihtvt1lNPPaWpU6eyCgMAACCCmfY0k5KSErNCAwDQZVVVVTp+/LhKSkr06quvBl3IYD4DAHQXc0l0YbxDw7RihtvtNis0AABdlpKSotmzZ3f5chLmMwBAdzGXRBfGOzRMK2YAAAAAAACYgWIGAAAAAACIKBQzAAAAAABARDGtmOF0Os0KDQBAyDCfAQC6i7kkujDeoRFjGIYR7iQARIbU1FR5PJ4e2w4A0DV8DgMAcAWXmQAAAAAAgIhCMQMAAAAAAEQUihkAAJistLRUMTExunTpUrhTMd2BAwdktVr1zTffhDsVAABwEzOtmFFSUmJWaAAAQibY+ezzzz/XtGnTlJycLIvFovT0dC1atEg1NTUmZ9i7jB49Wg0NDYqPjw93KmEXTUUsAIHx3Si6MN6hYVoxw+12mxUaAICQCWY+27t3ryZMmKCJEyfq+PHjunjxooqLi2WxWFRaWhqCLKNTc3NzuFMAgKDw3Si6MN6hwWUmAAB006JFi/TMM8/oqaeeUmJioiRpyJAhevHFF3X//fdft311dbVycnKUmJio5ORkLVq0qM0X8zVr1igtLU0JCQkaPHiw8vPz/W319fXKy8vTgAEDZLfbNXfuXDU2NnaYW3diBdq3o7ZrVyME6mvrttu2bVNGRoYSEhI0ZswYHTx4sN2+tG5fUFCgESNGyGazyefzddqPM2fOKDs7WxaLRaNGjdIrr7yimJgY+Xy+dldPtL7n8/lu+DzV1dVp3LhxkqTk5GRZrVa99tprHY4TAADoGooZAAB0w5kzZ/Tll19q5syZQe8za9YsSZLH41FZWZmKi4u1cuVKSdKJEye0ePFibdiwQY2NjTp8+LCys7P9+86bN0+1tbUqLy9XRUWFKisrtWzZsnaP051YgfbtLG6wfW21fft2ud1u1dbWKjMzUwsWLAh4/j766COVlpbK6/UqLi6u03OSm5srm82m6upqFRUVqaCgIGD8a93IeUpKSlJxcbEkqaamRg0NDVq4cGGXjgsAADpGMQMAgG44d+6cJGnQoEFBbX/27Fl9+umneuGFF2SxWJSSkqJnn31WGzZskCTFx8crNjZWX331lerq6pSYmKjvf//7kq58Kd6+fbteeuklJSYmymazacmSJXrvvffaPVZ3YgXaN1BbV/raavXq1bLb7YqPj9f8+fM7vTRn1apVSkxMVP/+/Tvtx9mzZ7V79+42OSxdujSoserueQIAAOYxrZjhdDrNCg0AQMh0Np8lJydL+r+iRmfOnj0r6cplKK2GDh2qqqoqSVJqaqq2bNmirVu3Ki0tTS6XS3v37pUknT59WoZhKCsrS3a7XXa7XTNnzlRDQ4MuX7583bG6EyvQvoHautLXVlcXgvr37y+fz+e/xKM9aWlp/ted9aO9HG677bYOY1+rO+cJAFrx3Si6MN6hYVoxw+VymRUaAICQ6Ww+Gzx4sO68805t2rQpqHgOh0OSdOrUKf97p06dUkpKiv+/c3JytGfPHtXU1Gjy5MmaPn16m30PHTokr9crr9eruro6NTU1qU+f9qf07sTqaN/O2rrS1+7qrB/t5VBRUeF/3frUlYaGBv97VxdbunOeYmJieqyfACIb342iC+MdGlxmAgBAN73yyitavXq1fv3rX6u+vl6SVFlZqWeffVa7du1qs63D4dDEiRO1YsUKNTY2qrq6WqtXr1Zubq4kqby8XEVFRWpublbfvn1ltVoVGxsrSUpJSdHUqVO1dOlSnT9/XtKV1Q9FRUXt5tWdWIH2DdTWlb72hM764XA4NGHChDY5XH0j0+HDhyspKUmvvfaavv32W1VUVOiFF14IOn6gczFgwABJ0vHjx3usvwAA4AqKGQAAdNOECRO0Z88e/f73v9ftt98uq9Wqe++9Vw0NDRo7dux12xcWFsrn88nhcCgjI0Mul0vPP/+8JKmlpUXLly/3PwFj48aN2rx5s3/fgoICWSwWjRw5UjabTePHj+/w6R/diRVo387iBtvXntLZOSkoKFBtba0GDhyoSZMmafbs2f62fv36qaCgQOvXr1diYqJmzJihvLy8oOMHOhfp6elauHChXC6X7Ha7Xn/99R7tNwAA0SzGMAwj3EkAiAypqanyeDw9th0AhENpaanuvvtutbS0KC4uLiw5VFVVqaioSA899JDsdnvQ+/E5DADAFaatzCgpKTErNAAAIcN8BjOkpKRo2LBhcjqdmj59utxud7hTAmAi5pLowniHhmnFDCZlAMDNgPkMZnE6nVq3bp1KS0v1wx/+UJmZmXr55Zfl9XrDnRqAHsZcEl0Y79DgnhkAACCqjB07VoZhhO0Sk6s5nU699957stlsqqurU35+vkaNGqWcnBx+GQYAIACKGQAAAGHkdDq1fv16WSwWxcXFyefzye1265FHHmG1BgAAHQj/nyQAAOjFXn75Zb388svhTgNRyOfzyev1Kj8/X2+++abeeuutcKcEAECvYVoxw+l0mhUaAICQ2bZtm1wuV7jTwE3uD3/4gx599FE1NzdLkux2u+Li4pSYmKi5c+dqxowZXXrqCYDehe9G0YXxDg0ezQogaDwSEAB6Xmshw+fzyeFwyOv16v7779djjz2mrKysNtvyOQwAwBVcZgIAABAmf/jDHzRr1ixdvnxZ6enprMIAACBIFDMAAADCwO12a8GCBZo6dWq7qzAAAEDHKGYAAACEWFVVlY4fPy63280qDAAAboBpj2YtKSkxKzQAACHDfAYzpKSkaPbs2RQygCjBXBJdGO/QMK2Y4Xa7zQoNAEDIMJ8BALqLuSS6MN6hYVoxAwAAAAAAwAwUMwAAAAAAQEShmAEAAAAAACKKacUMp9NpVmgAAEKG+QwA0F3MJdGF8Q6NGMMwjHAnASAypKamyuPx9Nh2AICu4XMYAIAruMwEAAAAAABEFIoZAAAA6LbS0lLFxMTI5/OFOxVJ0oEDB2S1WvXNN9+EOxUAgAkoZgAAAESZ1sKD1Wpt8+/v//7vw51ajxk9erQaGhoUHx8f7lQAACYwrZhRUlJiVmgAAEKG+Qw3s5qaGjU0NPj/ffjhh+FOCbgpMZdEF8Y7NEwrZrjdbrNCAwAQMsxniEatKze2bdumjIwMJSQkaMyYMTp48KB/mzNnzig7O1sWi0WjRo3q9GdlzZo1SktLU0JCggYPHqz8/Hx/W319vfLy8jRgwADZ7XbNnTtXjY2NQe3bUVtrHy5duiRJqq6uVk5OjhITE5WcnKxFixapubk56P4C3cFcEl0Y79DgMhMAAAC0a/v27XK73aqtrVVmZqYWLFjgb8vNzZXNZlN1dbWKiopUUFDQYZwTJ05o8eLF2rBhgxobG3X48GFlZ2f72+fNm6fa2lqVl5eroqJClZWVWrZsWaf7dhb3arNmzZIkeTwelZWVqbi4WCtXrgy6vwCA3oViBgAAQJRyOByy2+3+fytWrGjTvnr1atntdsXHx2v+/PkqLS2VJJ09e1a7d+/WCy+8IIvFopSUFC1durTD48THxys2NlZfffWV6urqlJiYqO9///uSrlzqsn37dr300ktKTEyUzWbTkiVL9N5773W6b6C2q509e1affvppm3yfffZZbdiwIaj+AgB6H4oZAAAAUers2bPyer3+f88//3yb9kGDBvlf9+/fXz6fTz6fT2fPnpUkDRkyxN9+2223dXic1NRUbdmyRVu3blVaWppcLpf27t0rSTp9+rQMw1BWVpa/qDJz5kw1NDTo8uXLAfcN1HZtP6/Nd+jQoaqqqgqqvwCA3se0YobT6TQrNAAAIcN8BlzP4XBIkk6dOuV/r6KiIuA+OTk52rNnj2pqajR58mRNnz69TaxDhw75iyp1dXVqampSnz59Au7bWVugfE+dOqWUlJQb6T7QZcwl0YXxDg3Tihkul8us0AAAhAzzGXA9h8OhCRMmaMWKFWpsbFR1dXWbm3Jeq7y8XEVFRWpublbfvn1ltVoVGxsrSUpJSdHUqVO1dOlSnT9/XtKVlRRFRUWd7huo7dp8J06c2Cbf1atXKzc3t6dPDdAu5pLowniHBpeZAAAARKnk5GRZrVb/vzFjxgS9b0FBgWprazVw4EBNmjRJs2fP7nDblpYWLV++3H+8jRs3avPmzW1iWSwWjRw5UjabTePHj/c/SSTQvp3FvVphYaF8Pp8cDocyMjLkcrmuu6wGABA5YgzDMMKdBIDIkJqaKo/H02PbAQC6hs9hAACuYGUGAAAAAACIKKYVM0pKSswKDQBAyDCfAQC6i7kkujDeoWFaMcPtdpsVGgCAkGE+AwB0F3NJdGG8Q4PLTAAAAAAAQESJC3cCAAAA6HmpqanhTiEo3KgUAHAjKGYAAADchCKhSBApBRcAQO9j2mUmTqfTrNAAAIQM8xkAoLuYS6IL4x0aphUzXC6XWaEBAAgZ5jMAQHcxl0QXxjs0uAEoAAAAAACIKBQzAAAAAABARKGYAQAAAAAAIoppxYySkhKzQgMAEDLMZwCA7mIuiS6Md2iYVsxwu91mhQYAIGSYz3Cz83q9KiwsVFVVVbhTAW5azCXRhfEODS4zAQAAiEL79u1Tbm6unE6nhg0bppSUlHCnBABA0OLCnQAAAABCw+v16r333tNbb72lqqoq9e3bV5s2bZLT6Qx3agAAdAnFDAAAgJvcvn379Morr6i4uFiGYcjn88lisejdd9+lkAEAiEimFTOYGAEANwPmM0Sqq1dheL1eXbp0SZIUExNDIQMIMX7WogvjHRoxhmEY4U4CQGRITU2Vx+Ppse0AAF3Tlc/hSMF8AQC4EVxmAgAAcBM6fPiw3n//fb3zzjvyer1qampSS0uLJKl///4qLCzkr4cAgIjF00wAAABuQna7XfPnz9ef/vQnFRQU6IEHHlC/fv2UlJSkpqYmzZ49m8cHAgAiFsUMAACAm1xWVpbefPNNHThwQEuWLNGQIUN06dIl/eM//iMFDQBARDKtmFFSUmJWaAAAQob5DDeTq1drfPDBB3rggQeUl5dHQQMwGXNJdGG8Q8O0YgaTIgDgZsB8hptV62oNt9ut48ePq6qqKtwpATct5pLowniHBjcABQAAiGJ2u12zZ88OdxoAAHQJ98wAAAAAAAARhWIGAAAAAACIKKYVM3huOQDgZsB8BgDoLuaS6MJ4h0aMYRhGuJMAEBlSU1Pl8Xh6bDsAQNfwOQwAwBVcZgIAAAAAACIKxQwAAAAAABBRKGYAAAAAAICIYloxo6SkpNsxSktLFRMTo0uXLvVARr3veKFy4MABWa1WffPNN+FO5YbdDH0AEJl6Yj4DAEQ35pLowniHhmnFDLfbHdR2n3/+uaZNm6bk5GRZLBalp6dr0aJFqqmpMSu1Xu2OO+7Qn/70pzbvdVRkaX3f5/MFLMSMHj1aDQ0Nio+P7/T4vaGg014OXekDAPSkYOczAAA6wlwSXRjv0AjrZSZ79+7VhAkTNHHiRB0/flwXL15UcXGxLBaLSktLTT12c3OzqfFvxMGDB9XU1KSsrKxwp9ItvfHcAgAAAABuHmEtZixatEjPPPOMnnrqKSUmJkqShgwZohdffFH333//ddvX19crLy9PAwYMkN1u19y5c9XY2Ohvf+ONN5SRkSGbzSa73a6cnBydPXtW0v/9tb+goEAjRoyQzWaTz+cLmF91dbVycnKUmJio5ORkLVq0qM0X9crKSk2aNEkWi0WjRo3SK6+84l8pIUlr1qxRWlqaEhISNHjwYOXn5wc83gcffKCHH35YMTExwZ3AIF290qH19bZt25SRkaGEhASNGTNGBw8eVF1dncaNGydJSk5OltVq1WuvvSYp8Lnv6NwGGg9Jamho0BNPPKGUlBRZrVZlZmbqf/7nf9rN4drVGoHGJlAfW3V1bAAAAAAAvUfYihlnzpzRl19+qZkzZwa9z7x581RbW6vy8nJVVFSosrJSy5Yt87enpaXpt7/9rerr6/XnP/9ZFy5c0IIFC9rE+Oijj1RaWiqv16u4uLiAx5s1a5YkyePxqKysTMXFxVq5cqW//dFHH1VycrLOnTunTz/9VBs3bvS3nThxQosXL9aGDRvU2Niow4cPKzs7O+DxduzYoWnTpgV9Prpj+/btcrvdqq2tVWZmphYsWKCkpCQVFxdLkmpqatTQ0KCFCxdK6vzcS9ef287GY86cOSorK9Pnn3+uhoYG7dy5U0OHDu0wh6t1NjYd9VG6sbEBAAAAAPQihkn++Mc/Bmz/4osvDElGfX19h9vs37/fkGQ0NTUZ586dM2JiYowjR4742z/++GMjOTm5w/13795t9O/fv02so0ePBnU8j8djSDIOHTrkb9+0aZPhcDgMwzD87Vfn8/777xuSjJaWFuPMmTNGbGys8eqrrxperzfguTAMwzh58qRht9uN5ubmgHm1935LS0uH21y7f+vrkydP+tuLi4uNuLi4Do/V2bkP5twaRtvxqK6uNiQZX3zxRVD97crYdNbHro4N/k/rOe6p7YBI0Nl8BoQSn8NAZGIuiS6Md2iYtjLD5XIFbE9OTpYknTt3Lqh4p0+flmEYysrKkt1ul91u18yZM9XQ0KDLly9LuvKX+B/84Ae65ZZblJSUpKlTp6qpqUnffvutP05aWlpQx2u9HGLIkCH+94YOHaqqqqo27YMHD/a333bbbf7Xqamp2rJli7Zu3aq0tDS5XC7t3bu3w+N98MEHevDBB9W3b9/r2vr0uTJMrf1s1frfre1dMWjQIP/r/v37y+fzdXjZTTDnXrr+3AYajzNnzki6csPTrupsbDrrY1fHBkB062w+AwCgM8wl0YXxDo2wXWYyePBg3Xnnndq0aVNQ2zscDknSoUOH5PV65fV6VVdXp6amJvXp00cej0ePPPKIfvKTn8jj8aiurk47d+6UJBmG0eX8Wo936tQp/3unTp1SSkqKJPn/9/Tp0/72ysrKNjFycnK0Z88e1dTUaPLkyZo+fXqHxwt0iUlqaqok6eTJk23eLy8vl8PhuKFiRkfau19HZ+e+PZ2Nx6233ipJOnbsWFA5tJdPR2MTjK6MDQAAAACgdwnrDUBfeeUVrV69Wr/+9a9VX18v6UpB4Nlnn9WuXbvabJuSkqKpU6dq6dKlOn/+vKQrf6EvKiqSJP9f/O12u+Lj43Xq1Cn94he/uOHcHA6HJk6cqBUrVqixsVHV1dVavXq1cnNzJV0pMIwbN04///nP1dTUpJqamjY3kSwvL1dRUZGam5vVt29fWa1WxcbGtnusv/zlL9q/f78eeOCBdttTUwV7AE8AACAASURBVFM1adIkPfPMM/6VLMeOHdMvf/lLzZkz54b72J4BAwZIko4fP+5/r7Nz357OxmPgwIHKycnR008/7V+l8fXXX6uioqLdHK7W2dh0pitjAwAAAADofcJazJgwYYL27Nmj3//+97r99ttltVp17733qqGhQWPHjr1u+4KCAlksFo0cOVI2m03jx4/3P6Fi2LBhevHFFzVnzhzZbDZNnz69SzcXbU9hYaF8Pp8cDocyMjLkcrn0/PPPt8nH4/EoOTlZf/u3f6tHHnlEMTExio2NVUtLi5YvX+5/IsfGjRu1efPmdo/z4YcfasKECbJarR3msnnzZn33u99VZmamrFarJk6cqClTpmjVqlXd6uO10tPTtXDhQrlcLtntdr3++uv+vnZ07tsTzHisX79ew4cP11133SWbzaaHH35Y58+f7zCHq3U2NoF0ZWwAAAAAAL1PjHEj12AEoaSkJOquFdq0aZN++tOfyuPxdGm/adOmacqUKfrRj35kUmZAW1VVVSoqKtJDDz0ku90e9H6pqalB/f872O2ASBCN8xl6Lz6HgcjEXBJdGO/QMG1lhtvtNit0r3H48GEdOnRI0pXHff7yl7+8oXsvuFyukD2SFZCuXDo0bNgwOZ1OLViwQPv27Qt3SkCvFQ3zGQDAXMwl0YXxDo2wXmYS6bxer6ZMmSKLxaK/+Zu/0dixY/Xiiy92Oc7PfvYz/9NdgFBxOp1at26dfve732natGnKysrS22+/La/XG+7UAAAAACAgihnd4HQ6dfz4cV28eFHnz5/XunXrZLFYwp0WEDSn06nNmzerX79+qqio0K9+9SuNHj2a1RoAAAAAejWKGUCUczqdKiwsVP/+/VVfX69Lly7pv/7rv/Too4+yWgMAAABAr2TaDUBTU1PNCAsgDKxWq9566y3NmjWLG88h6nATL/Qm3AAUiEzMJdGF8Q6NOLMCM4ECkcPtdis3N1cXL170v9e/f38lJSXpxz/+sWbOnNmlp54ANxN+GQEAdBdzSXRhvEPDtGIGgMhwdSHjO9/5jiRpwoQJevLJJ5WVlRXm7AAAAADgehQzgCjmdrs1c+ZMtbS0yOFwsAoDAAAAQESgmAFEKbfbrby8PFZhAAAAAIg4pj3NpKSkxKzQALqpqqpKx48fl9vt1oYNGyhkAAEwnwEAuou5JLow3qFhWjHD7XabFRpAN6WkpGj27NlcTgIEgfkMANBdzCXRhfEODdOKGQAAAAAAAGagmAEAAAAAACIKxQwAAAAAABBRTCtmOJ1Os0IDABAyzGcAgO5iLokujHdoxBiGYYQ7CQCRITU1VR6Pp8e2AwB0DZ/DAABcwWUmAAAAAAAgolDMAAAAAAAAEYViBgAAAAAAiCimFTNKSkrMCg0AQMgwnwEAuou5JLow3qFhWjHD7XabFRoAgJBhPgMAdBdzSXRhvEODy0wAAAAAAEBEoZgBAAAAAAAiCsUMAAAAAAAQUUwrZjidTrNCA0C7SktLFRMTI5/PF+5UcBNhPgMAdBdzSXRhvEPDtGKGy+UyKzSACNdadLh06VK774eiGNFRDj0R4+p+3OhxbmS/nugTrsd8BgDoLuaS6MJ4hwaXmQAAAAAAgIhCMQNAr9S6ymDt2rVKT0+XzWbT3Llz26w6OHPmjLKzs2WxWDRq1KjrHoP1xhtvKCMjQzabTXa7XTk5OTp79qzq6uo0btw4SVJycrKsVqtee+01SVJ9fb3y8vI0YMAA2e12zZ07V42Njab1c82aNUpLS1NCQoIGDx6s/Pz8gPlFQp8AAAAAs1HMANCr7dq1S2VlZTp69KgOHDig5cuX+9tyc3Nls9lUXV2toqIiFRQUtNk3LS1Nv/3tb1VfX68///nPunDhghYsWKCkpCQVFxdLkmpqatTQ0KCFCxdKkubNm6fa2lqVl5eroqJClZWVWrZsmSl9O3HihBYvXqwNGzaosbFRhw8fVnZ2dsD8enufAAAAgFAwrZhRUlJiVmgAUeS5556TxWKRw+HQs88+q8LCQknS2bNntXv3br3wwguyWCxKSUnR0qVL2+w7ZcoUfe9735MkDRo0SP/6r/+qoqKiDo9VU1Oj7du366WXXlJiYqJsNpuWLFmi9957z5S+xcfHKzY2Vl999ZXq6uqUmJio73//+wH36e19uhkxnwEA/r/27jssimv9A/h3qSpFRBEXEBSwgcYSCyLX3mOJRKyRa0UxFhAVY8EOokEw8SeW2E0UjVyNidHYGxivJhhLVFSsIcZGU4TF3d8fXjYuLLCV3WW/n+fheWBn5sw7c2bOGd49M6Mu9iXGhfVdPrSWzCg63JuIqJCJybumRywWy3xe+HfhdABwdXWV/u7m5oYnT54AeJfMKDq9du3aMuUlJibCx8cH9vb2qFq1Kvr164fc3Fy8fftWblyPHz+GRCJB69atYWdnBzs7OwwZMgQ5OTnFYlV2O+QRCoXYvXs3vvvuO7i4uMDX1xcnT54sdRltbxMVx/6MiIjUxb7EuLC+ywdvMyGicicUCgEA9+/fl/k8LS0NtWrVkkkCPHjwQOb3mjVrAgBq1apVbPrDhw+lv6enp2PQoEEICQlBeno6MjMzsX//fgCARCKBQCAoFldhmdevX0dGRgYyMjKQmZmJ3NxcuYkJZbajJP7+/jhx4gSePXuG7t27Y+DAgQAgN77y2CYiIiIiIkPAK1kiKndCoRBdunTB559/jqdPnwIA7ty5g8jISAQGBsrMu3DhQrx69Qp///03oqKiMGzYMADv/knv2LEj5s2bh9evX+Pvv/9GTEyMdLnC0Qp2dnawtLTEgwcPsGjRIun06tWrAwDu3r0r/czR0RH9+vXDjBkz8OLFCwDvRoCUdBuHMtshT1paGo4ePYr8/HyYm5vD2toapqamJcZXHttERERERGQImMwgIp1ISEhAtWrV4O3tDWtra3Tu3Bl9+vTBkiVLZObr1q0bvL294e7ujsaNG8tM3759O16+fAkHBwd06dIFw4cPl05zd3fHsmXLEBgYCBsbGwwcOBBDhgyRTq9Tpw4mTpwIX19f2NnZIT4+XlqmlZUVGjRoABsbG3To0AFXrlxRezvkEYlEmDt3rvTtI99++y0SEhJKjK+8tomIiIiISN8JJBKJRBsFJyUlwdfXVxtFE5GOCIVCpKena2y+0ly8eBGtWrVCbm4uKlWqpFZZROpgf0b6pDzbYSLSHPYlxoX1XT60NjKDlUdERBUB+zMiIlIX+xLjwvouH7zNhIiIiIiIiIgMipmuAyAikqdly5bQ0l1wRERERERk4JjMICKtKHxtqb7jPeVERERERIZHa8kMPvSEqGJSNElhCEkCQ0m4kG6xPyN9w7aLyPCwLzEurO/yobVnZiQnJ2uraCLSkfT09GI/06dPl/s5UUXB/oz0CdthIsPEvsS4sL7LBx8ASkREREREREQGhckMIiIiIiIiIjIoTGYQERERERERkUHRWjKjbdu22iqaiPQIz3Wq6HiMk77jMUqk/3ieGhfWd/kQSCQSia6DICLSBaFQyIfkEREREREZIN5mQkTlIiMjA9988w2ePHmi61CIiIiIiMjAMZlBRFp14cIFfPbZZ2jbti3c3d3h6Oio65CIiIiIiMjAmek6ACKqeDIyMrBnzx5s2bIF9+7dg4mJCXbu3Mn7B4mIiIiISCO0NjIjKSlJW0UTkR55/1wvHIXRokULrFmzBmlpaTA3N8fOnTvh5+enwyiJVMf+jPQdj1Ei/cfz1LiwvsuH1pIZycnJ2iqaiPTIiRMnsGHDBrRr1w6jRo3C0aNHkZubi7/++gsWFhbYsWMHExlk0Nifkb7jMUqk/3ieGhfWd/ngbSZEpLITJ05g9erVJU7Py8tDQEBAOUZERERERETGgMkMIlJZp06dMGnSJFSuXBmbN29GRkYGCgoKAACmpqawsrLCli1b+KwMIiIiIiLSKL7NhIjUUqlSJUybNg1XrlzBnj170K5dO5iZmUEsFiMnJwcjR47kUDsiIiIiItIo0wULFizQVuG1a9fWVtFEpEcKz3UXFxcMGjQIo0ePRuXKlXHz5k1kZGRg3759aNOmDdsEMlg8dknf8Rgl0n88T40L61v7BBKJRKLrIIio4jp//jxiYmJw9epVbNq0ibecEBERERGR2pjMICIiIiIiIiKDwmdmEBEREREREZFBYTKDiIiIiIiIiAyK1pIZSUlJ2iqaiPQIz3Wq6HiMk77jMUqk/3ieGhfWd/nQWjKDr2IkMg4816mi4zFO+o7HKJH+43lqXFjf5YO3mRARERERERGRQWEyg4iIiIiIiIgMitZezRoTE4OwsDBtFE1k8BISEnDr1m2YmZnrOhS13b59G56enroOQ20CAVCtWlWMHj0a5uaGWS8ikQhff70RGRlZug6lQqkox7g+MTUVwNPTA/7+/roOReN00b6X9zFaEdpLovLuM8vzPFWljeU1hGbx2kGzSjqmtZbMSEpKgq+vrzaKJjJox46dwqNHf6Nz5+66DoWKePr0byQkbMLixQthYWGh63CUkp+fj1mz5mL48LGoWdNR1+EQlenMmaNwdXWEn5+frkPRGGNq3w25vSQyhj5TmTbWGPYHGT55x7TWbjNhIoNIvtOnz6JTp266DoPkcHCoiWHDRmPr1q26DkVpGzZs4kUIGRQ/vy44ffqcrsPQKGNq3w25vSQyhj5TmTbWGPYHGT55xzSfmUFUziQSQCAQ6DoMKoG9fU1kZmbqOgylZWRk8iKEDEpFbAeNrX031PaSyBj6TGXaImPYH2T45B3TxZIZJ0+ehEAgwLNnz+R+npGRob0IiYj0gCH+M2KAIRNRBWCI7SURD1tZ3B9kqPRqZEZBQYGuQyAiIiIiIiIiPadyMmPdunVwdXWFmZkZnJ2dERsbKzP9yy+/RIMGDWBhYQEXFxdERETg7du30umFIz1++ukntG7dGhYWFjh06JDqW0JERERERERERsFMlYXu3buH4OBgREZGYujQoXj69CnS09Ol0xcsWIBdu3YhLi4OTZo0wY0bNzBu3Di8ffsWS5culSlr9uzZiIuLQ506dWBlZaXe1hARERERERFRhadSMuPZs2eQSCTo3bs33Nzc4ObmJp32+vVrLF++HMeOHUPbtm0BAC4uLoiMjMSkSZOKJTMWLVqEDh06qLEJRERERERERGRMVEpmNGvWDK1atUL79u3Rt29f9OvXD/7+/jA1NcW1a9eQm5uLbt1kX0329u1bvHnzBjk5ObC2tpZ+/uGHH6q3BURERERERERkVIo9M8PCwgIAkJeXJ/P5mzdvAACWlpYwMzPDuXPnsGPHDlStWhXjx4/HwIEDAQBisRgAcOjQIaSkpEh/rly5gtTUVFSpUkXu+ohId1atWo6pU4OUWiY5+SxcXe3w4sVzteYpL717d8DBg/t1HYZBKFpv+lSPxqo864D1TUREhoZ9l3Eqlszw8PCAQCDA77//LvN5SkoKnJycULlyZQCAubk5+vTpg9WrV2PdunXYt28fcnNz4e3tjUqVKuHBgwfw9PQs9mNiolcvUCHSS9nZWVi5Mgo9erRDw4ZO8PCoCT+/ZggLm4iUlEsASm60Cz/Pysosdb5CGRkvsW7dV5gyZToAwNXVrswfRbVs2RqXLt1EtWr2Ci9TNH5NmTQpDCtWLIVEItFouYYmPf1PzJoVAh8fb7i7O6B5c09MmPBvXL78a4nLqFKPilC2rlWJvaLQdB2Utu+1Vd8E3L+fhuDgkWjWzAN161ZH06buCAjojZMnj+o6NCIqorCdlPdz584tAIqd00XLadKkDiZPHovnz59J53n8+CEGD+6D5s09peVMmjQG6el/SueJjIxAly4+cHd3QNOm7pg2LRgZGS/LbX/oe/tVtO/S5PVkYVleXi7Izc2VmXb79k1p3Wr62tUYqFtPxW4zcXR0RP/+/REWFgYrKyu4u7vj4sWLWLFiBaZOnQoAuHDhAi5cuICuXbvCzMwMBw4cgLOzMypVqgSBQIBZs2Zh8uTJePv2Ldq3bw+RSIRLly7h5s2biIiIUG+LiSq4J0/+wsCBveDg4IjQ0M/h5dUYpqZmSE9/hLNnTyEubjm2bEnQ2Pp27dqOBg0awcOjPgDg0qWb0mkXL17A+PEjcPLkRdjY2Chdtrm5BRwcHDUWq6oKCgrQrVtPhIdPwZkzJ9C+fWddh6QT9++n4eOPu6NFi5ZYtWoDatd2w/PnT3Hw4PeIjV2GLVt2y11OH+pR1dgrivKsA32o74ooL+8NBg36CA0bemPz5gQIhc54/vwZLlw4h8zMDLXLLygogJmZSncP67RsIn137Nh52NlVk/nM3r6G0ud0YTkPHz7AzJmTMW1aMLZu3QMAMDU1g7//EDRu3BTVq9fAn38+wpIl8xAY+AmOHEkGAFy/fhVhYbPRtGlz/PVXOmbOnIIpU8Zh27bvtL4PtN1+qaugoKBc+i5b26r48cd9GDhwqPSzXbu2w9nZBY8fP9Lqukk+ucMktm7divbt2yMgIAB169ZFSEgIQkJCMGfOHACAjY0NEhMT0bp1a3h5eeHWrVtITEyEQCAAAMyfPx9RUVH44osvUL9+fTRr1gwrV66Ek5NT+W0ZkYGaM2cahEIn7NnzI3r27ANX1zpwdnZBy5Y+CAkJx+bNuzS6vu+/34vu3XtL/3ZwcJT+FHbeNWo4yHwuT35+HiZMCESvXu3x/PlTACXfrnD69HH07t0BHh410adPJ9y5kyotZ/DgPgCAxo3d5I4E2bx5LTp2bAl3dwe0bt0IMTGRMq99LlzHiRNH0LdvZ7i7O+DUqaMwN7dAx45dceBAogb2mmGaMycMTZs2x8aNO9GmjS+cnJzRpEkzhIdH4MsvN5S4nLzRPYrWgzp1rUrsBQUFWLFiCdq08YK7uwM6dmyJXbu2y92eU6eO4aOPOsLT0xH9+3fF/ftp+O23i+jTpxM8PR3Rp08npKXdUWs5efuupNFTpe2rouWIxWLEx6/Cv/7VHO7uDmjZsiHi4qKl83/33U707OkHD4+aaNzYDVOnBsl861Havi+6LmX2aWnbYOyuXbuC9PQ/sXRpDJo3b4latYTw9m6CUaMmoH//gTLzqtLOLVz4OZo3ryczHwBMnjwWo0cPUavsU6f045tXIl2oXl32GsjBwfF/zwlU/Jx+v5wWLVohNHQWTp8+joICEQCgVi0hBg/+FN7eTVCrlhAtWrTC5MlhuHnzD7x69QoAsGNHInr37gdn59r48MPWmDFjLk6dOob8/Lxi69I0TbZfpfVfyvSZRduoosuW1M/FxUWja1efYts4YEAPzJ8fXup+CAgYjoSEf/q/ggIR9u5NQEDAcJn5yuqDFekzyypDJMrHwoWfo1kzDzRoIMS4ccOxf/93xUY5KNrmK3tNpEzZmroWlEduMsPW1hZr167FkydPIBKJcO/ePcybNw+mpqYAgEaNGuH48ePIyspCfn4+zp8/j9atW8uUERQUhMuXLyMvLw85OTn45ZdfMHbsWOn0jh07QiKRoEaNGkoFTFSRZWZm4OjRQwgODpGeb0UVJg01IScnB9eu/Y6mTVuoXU5gYACeP3+GPXt+RPXqDqXOHxsbjSVLvsDPP5+FmZkZZs8OlU5bt+5dJ3Hy5EVcunRTZqRIbOwybNu2EfPnR+HcuctYuTIee/fuQkxMZLF1LF++CHPmLMaZM7+iefNWAIBmzT5EcvJZtbbVUL18+QJnzpzA6NET5E63ta2qcFnK1IOqda1q7AsWzMK3327B0qUrcebMbxg/fgrmzp2O3bu/kbsdixYtx+HDZ2FiYoqJE0dh2bIFWLx4BQ4fPgtzcwvMnj1NY8uVpbR9VVR09EKsWROLGTPm4uzZFGzatBMuLq7S6SYmAkREROLMmd/w9dff4vr1K4iImCmdrui+B5Tdp4pvg7FxdKwFgUCAAwcSUVBQUOJ8qrZzY8YEIysrE2fOnJBOf/XqFX7++Uf4+w9Wq+zCNpSI/qHoOS2PhYUlxGKx9FmDRWVkvMR33+2En19HWFlZyZ0nMzMDVapUgZmZudKxK0uT7VdZ/ZeiymqjSurnBg8egTt3UqW3bQPAnTupuHTpFwwZEljqOgcMGISUlF9x/34aAODo0cOwsrKCj4+fzHxl9cGFSuszyypj/vxZOHDgP1i5Mh7Hj/8XXbv2wsKFs4uUr8z1mnLXNuV9LVgSPsCCSI+kpd2BWCxGw4beMp+PGzccDRs6SX+ys7M0sr779+9CIpHAyclF5TJevHiGwYP7oEqVKtixIxHW1mXfjjJjxly0aNEKHh71MXbsRPz3v+elnaO80SAAkJubi/j4OHzxxf+hU6duEAqd4OfXEeHhEdixY1OxdYSFzYGPTzs4O9eGvX11AICTkwsePrwv/SbEmNy7966u69VrqFY5ytaDKnWtauzZ2Vn49tutmDdvCbp27QlnZxcMHRqIMWMmID4+rtj8M2fOw4cftoaHRz2MHRuMK1dSEBY2B82bt5R+9ssv54p9063qcmUpbV+9LycnBxs3rkVERCT69fsETk7O+OCD5jLDXv39h8DXtz2cnJzh49MO06fPxaFDB6TPjFF03yu7TxXdBmPk7FwbCxZEIS4uGk2auOGTT3piyZK5+P3336TzqNPO1anjjs6du2Hfvj3S6YcP/wBTUzN069ZLI20okTHy9W0icw3WunUjAIqd0/K8ePEcGzasRvPmLWFhYSkzLTBwIBo0EOKDD+pCLBZj61b5t1BmZ2fhyy9XYMSIMeXyPEJNtV+K9F+KKquNKqmfEwqd0KFDVyQk7JDOu3v3DnzwQXM0auRdrJyiZXbr1ku67K5d2zFo0PBiXzSW1QcXKq3PLK2MnJxs7Nq1HRERS9G5c3c4O7tg8OBPMWjQPyNElG3zlbm20cW1YEl4AySRAVi6NAavX7/Gb79dxNSpQRp7iGXh0MWSsv6KGD58ABo3bop167YrfE91gwb//FNavboDCgoKkJv7GjY2tiUuc+vWH3jz5g2GD/9Y5vO3b8XIy3uDV69eyWxHkybNipVhY2MDiUSCV69eoWpV5Yax0TvK1oMqda2q27dvoaBAhDZtZL8hadOmHeLjVyE/P0/mwrFBg0bS3+3t340SrF+/ocxnBQUFeP36lUy8yiynDEX31e3bN5Gfnwdf3/YllnXx4nnExEThxo1rePMmFwUFb6X18/7r0cui/D4tv/o2RKNGTUBAwKe4cOEcrl79HefPn8OGDf+HiIhIjBkTrHY7N2DAIISFTURubi4qV66Mffv2oHfvfrC0rITLl39Vuw0lMkYJCT/IXDO8P3K2rHP6fb6+TQC8+yezSZNmcm/vXL78K7x+/Qo3b/6BRYs+R2TkfMyfHyUzT35+HoKCRsDJyRnTp8/R5KaWShPtlyL9l6LUaaOGDfs3QkMnYP78KJibm2Pv3gSEhBQfOSHPkCEjMGPGJHz66WicOXMCUVGxuHfvrsw8ivbBpfWZpZWRmnoTBQUitGwpe7tM69ZtsWZNLABVrtcUv7a5e/e23lwLajSZcfv2bfz44094/ToXEokEAoEAVapUxkcf9YKnp6cmV0VUIdWp4w4TExP88ccVCIX/PGOmZs1aACDzVGsLi3fDCvPz82XKyMt787/pstl+eQobmpycHJUfmtSlS0/88MN/cPPmH/D2bqLQMgJB8W8RykrQFA7F3L49EQ4ONYtNL3zTUiFz8+LDLrOzsyEQCNRK3hiqOnXcIRAIkJp6Q+bYUpay9aBKXRelqdiLkhebvG+4isarzHLybguTSOQPK9bEvgKArKxMBAYORM+efTF9+hzY21fHr7/+F6GhEyAWKzdaRFma2oaKzNraGp0790Dnzj0wZcoMrFq1HF98sQSjRo1Xu53r2rUnTExM8fPPP8LPrwPOnj2JHTvePSdIE20okTGqXdut1NFJpZ3T7/cNCQk/wM6uGmxtq5b4tqhatYQAAHd3TxQUiDB1ahBmzZoPS8tKAN49w+izz0YjKysTCQkHFLrW0yRNtl/yKNNnqtNGde7cHZUrV8HBg/tha1sV2dmZ+PjjAIWW9fPrCBMTE4SGjke7du0hFDrJJDOU6YNL6jMVLaPo/nr/b01cr5V0baOLa8GSaCSZkZ6ejvj49RAKXdG9+wCZYeY5Odk4cuQItm37BsHBQRAKhZpYJVGFZGdXDV269MDq1bFo375zqfdBurnVhUAgwB9/XJV2fgBw/foVODrWQqVKlcpcn5vbu38SHz9+iLp1PVSKefr0ObCzq4ahQ/th587vFU5olKTwG4+i95HWr98IlpaV8PjxQ7RqVfzBTYp4/Pghatd2K5f7S/VNtWr28PPriI0b4+W+zSUrK1Oh52Zooh4KlVTXRSkae716DWBmZo5ffjkLf/9/Hnj4yy/n4OFRv9wv+gBI3wL08uVz6cXwzZvX1SrT07MBLCwskZR0GgEBw4pNT029gZycHEyfPhdOTs4AgJ9/Pigzj6L7Xh/3aUXTqFFjvH79GgUFIrXPLwsLS/Tu3Q//+c8evHjxHA4ONaX3cmvy3CWikr1/Tr/fRpaVFJHn/aS4WCxGaOgEpKXdwZ49BxW6rVfblG2/yuq/NNlnltbPmZmZISBgGHbv3gEbG1v07t1f4f1pYmKCgIDhiIuLxtq1W4tNV6QPLktZZXh61oeZmTkuXjyPvn39pZ9fuJAs/V2bbb4urgVLonYyIyUlBXv37seoURNhbm5RbLq1tQ369PGHSJSPNWvW4JNP+qNZMw5dJCrJ0qUr4e/fA5980gvjx0+Gt/cHsLCwxJ9/PsLu3TsgEAhgYmKCGjVqonv33li8eC6qVLGCq2sd/P77b1i79ssSH5RYlLW1Nby8miAl5RL8/DqqHPPMmfMgkUgwbFh/7Nz5Pby8GqtclrNzbQDAkSM/oXPn7hAIBLC3rw4rKytMnBiCiIiZEIvfok2bdhCJRLhyJQV3zT9UnwAACuZJREFU7qQiJKT0J1ADQErKJfj4tFM5NkO3ZMkX8PfvgTFjhiIoaDJq13bDy5fPcejQD7hyJUWh15tqoh4KlVTXqsZubW2D4cNHYvHieaha1Q6NGjXB6dPHsXHjWkRGrlQ4Lk2qX78h7O2rY9WqFZg5cx5u376FTZvWqVWmtbU1xoyZgMWL56BSpUr48MM2ePbsb9y6dQMDBw6Fi4sbTE1NsWXLOgQGjsW1a1ewefNamTIU3ff6uE8N1cWL57FlywZ89NHHaNTIGxYWlrhx4yqiouajU6dusLCwhIWFpdrn14ABg/HppwPw8OF99O8/UPrNmibPXSJj8vz5U7x9K/vsHzu7arh8+dcyz2lF/fTTu2chNG78AczMzHH16mVERs5Hnz4DpOXMmjUVyclnsXXrHhQUiPD06RMAQI0aNTX6cHh5NNV+ldV/abLPLKufGzo0EPHxcTAxMcHOnd8rVfaUKdMxcmRQsVf2AlCoDy5LWWXY2NhiyJARWLRoNqytbdCggReSkk5LH8xdOApZW22+rq4F5VErmZGeno69e/cjKCikzHnNzS0QFBSC9evj4OjoyBEaRCWoVUuIQ4fOYP361YiNXYb799MgFksgFDrBx6cdfvjhhDR7HBu7FkuXRmDChH8jM/MlHB2FGDMmGJMmhSm8vn79/PHTTweUWkae8PAISCQS6QgNVRMazs4umDFjLqKjF2HGjEkQi8V48ODdO8xDQ2fB0bEW1q37CjNmTIG5uRnq12+EoUP/XWa5IlE+Tp06htWrN6oUV0VQt64HfvzxFFatisbkyWPw7NlTVK1qBx8fP6Xuu1WnHt5XWl2rGvv8+VGwsbHF55+H4tmzZ3B1dcPixStkHopVnszNLfDllxswZ04YOnZshZYt2yA0NBwhIYolHEsSHj4ftrZVERW1AOnpj+HgUBOffjoawLunzi9btgorVizB5s3r0bJlG0yfPhfTpv1z/7Yy+17f9qmhcnWtA1vbqlixYgkePLgHsVgModAJ3bv3RljYP0+gV/f88vFpBweHmkhNvVGsvdPUuUtkTLp0Kf7N87Zt38HLq7FC57QiTExMEBcXjbt3UyESieDk5IKPPw7A1Kn/PMeh8JXYvXr9S2bZq1fvK/VGMlVosv0qrf/SZJ9ZVj/n6loHPj7tkJ7+J9q08VWqbDMz8xL/4VakDy6LImUsXLgMFhYWmDo1CHl5b+Dr2wGzZs1HWNhEWFq+S4Bps83XxbWgPAKJGjesREQswMiRn8kdkVESkSgfW7b8HxYtWqDqaokMWkTEUowbN0nXYUi9fPkC7dp9gP37j6r9pgt9dvDg91ixYjGOH79Q5jcYu3d/jbAw9ZI75S0yMhojRqj3DzJRedu+fS1mz644IwL0rX0vD4bYXhIZS5+paBtrLPujqE6dWmHQoOEIDi77i3lDsHp1DL75ZguSk6/oOhStKXpMq/wun9TUVDg711UqkQG8y7g5O9dFamqqqqsmIg2qVs0eQUGT8dVXMboORatWr47B9OlztD4Uk4iIiIj01/Pnz7Bt29d4/PihwY4yvH79KhITE3D/fhoePXqAnTu3YfXqGAQGjtF1aOVK5dtMDh/+GV269Fdp2fbtu+Dw4f2oV6+eqqsnIg0yhnulDx48pesQiIiIiEjHmjf3hL19dURGxqJ6dQddh6OyTZvWYvbsUOTn58PFxRVTp87E+PFTdB1WuVI5mZGd/Urlp+haW9sgO/uVqqsmIiIiIiIiUpoyz2TQV15ejfHDDyd0HYbOqXybibrvhuV754mIiIiIiIhIFSonM9S975z3rRMRERERERGRKlROZtjYWCEnJ1ulZXNysmFjY6XqqomIiIiIiIjIiKmczOjRoztOnz6m0rKnTx9Djx7dVV01kUHjoCT9Zqj1IxIV6DoEIqNnqO2Hqoxte6niYJ8pi/uDDJXKyYx69erh8eM0iET5Si0nEuXj8eM0vsmEjJalpQWys7N0HQaV4PTpo/Dw8NB1GEqrV88Dx48f1nUYRArLzs6CpaVyr3fXd8bWvhtqe0lkDH2mMm2sMewPMnzyjmmBRI0ncaanp2PNmvUICgpReJn16+MwcWIQhEKhqqslMmgvX2ZgzZr1EIneQiwW6zoc+h+BQAATE6BTp3+hfft/6ToclRw5chJnzpzTdRhEZTI1NUHlyhaYMGEcbG1tdR2OxhhL+14R2kuiitxnqtLGVuT9QYavpGNarWQGAKSkpGDv3v0YNWoizM1Lzv6JRPnYvHkNPvmkP5o1a6bOKomIiIiIiIjIiKmdzADejdBYu3Y9hEJXdOjQDdbWNtJpOTnZOHXqCNLTH2DCBI7IICIiIiIiIiL1aCSZUej27ds4ePAnvHqVi+vXr8HLyxtWVpXRu3cveHp6amo1RERERERERGTENJrMeF9MTAzCwsK0UTQRERERERERGTGV32ZCRERERERERKQLTGYQERERERERkUFhMoOIiIiIiIiIDAqTGURERERERERkUJjMICIiIiIiIiKDwmQGERERERERERkUM0Vm2r17Nx4+fKhUwUlJSUoHU7t2bQwaNEjp5YiIiIiIiIjIeCiUzFA1wRAWFqbSckREREREREREJeFtJkRERERERERkUJjMICIiIiIiIiKDwmQGERERERERERkUJjOIiIiIiIiIyKAwmUFEREREREREBoXJDCIiIiIiIiIyKExmEBEREREREZFBYTKDiIiIiIiIiAwKkxlEREREREREZFCYzCAiIiIiIiIig8JkBhEREREREREZFCYziIiIiIiIiMigMJlBRERERERERAaFyQwiIiIiIiIiMihMZhARERERERGRQWEyg4iIiIiIiIgMCpMZRERERERERGRQtJLMyM3NxcWLF5Gbm6uN4omIiIiIiIjIiGk8mSEWixEVFYV58+YhKioKYrFY06sgIiIiIiIiIiOm8WRGbGwsRowYAS8vL4wYMQKxsbGaXgURERERERERGTGNJjO2bduGtm3bol69egCAevXqoW3btti2bZsmV0NERERERERERkxjyYzDhw/D2toavr6+Mp/7+vrC2toahw8f1tSqiIiIiIiIiMiIaSSZcfnyZdy9exf+/v5yp/v7++Pu3bu4fPmyJlZHREREREREREZM7WTGo0ePcODAAQQHB5c6X3BwMA4cOIBHjx6pu0oiIiIiIiIiMmJqJTOysrIQHx+P8PBwheYPDw9HfHw8srKy1FktERERERERERkxlZMZIpEI0dHRCA8Ph7m5uULLmJubIzw8HNHR0RCJRKqumoiIiIiIiIiMmMrJjOjoaAQHB8PW1lap5WxtbREcHIzo6GhVV01ERERERERERkylZEZ8fDz69u0LFxcXlVbq4uKCvn37Ij4+XqXliYiIiIiIiMh4KZ3MSExMhLu7O5o2barWips2bQp3d3ckJiaqVQ4RERERERERGRelkhlJSUnIyclBjx49NLLyHj16ICcnB0lJSRopj4iIiIiIiIgqPoWTGampqUhOTkZgYKBGAwgMDERycjJSU1M1Wi4RERERERERVUwKJTOePn2K7du3IzQ0VCtBhIaGYvv27Xj69KlWyiciIiIiIiKiikMgkUgkZc20ZcsWDB48GJUrV9ZaILm5uUhISMDIkSO1tg4iIiIiIiIiMnwKJTOIiIiIiIiIiPSFSq9mJSIiIiIiIiLSFSYziIiIiIiIiMigMJlBRERERERERAbl/wGrdqXp6ERPEQAAAABJRU5ErkJggg==;" vertex="1" parent="1">
                    <mxGeometry width="840" height="809.3" as="geometry"/>
                </mxCell>
            </root>
        </mxGraphModel>
    </diagram>
</mxfile>